<svg width="32" height="30" viewBox="0 0 32 30" fill="none" xmlns="http://www.w3.org/2000/svg">
<path d="M3.40843 21.848H0.896393V15.7791C0.896393 15.1353 1.16109 14.5178 1.63219 14.0625C2.10328 13.6073 2.74219 13.3515 3.40843 13.3515H14.7126V15.7791H3.40843V21.848Z" fill="#283D3B"/>
<path d="M8.43255 14.5167H2.15247V21.7993H8.43255V14.5167Z" fill="#283D3B"/>
<path d="M4.6645 12.0891C6.05186 12.0891 7.17653 11.0023 7.17653 9.66159C7.17653 8.32089 6.05186 7.23404 4.6645 7.23404C3.27714 7.23404 2.15247 8.32089 2.15247 9.66159C2.15247 11.0023 3.27714 12.0891 4.6645 12.0891Z" fill="#283D3B"/>
<path d="M8.41998 29.082H5.90794V21.7994H4.65193V29.082H2.13989V19.3718H8.41998V29.082Z" fill="#283D3B"/>
<path d="M31.1036 9.71021H21.0555V0H22.3115C24.6433 0 26.8796 0.89517 28.5285 2.48856C30.1773 4.08195 31.1036 6.24304 31.1036 8.49643V9.71021ZM23.5675 7.28266H28.4283C28.1783 6.12784 27.5853 5.06851 26.722 4.23425C25.8587 3.39999 24.7625 2.82698 23.5675 2.58535V7.28266Z" fill="#283D3B"/>
<path d="M18.5309 20.6342C16.3492 20.4384 14.3219 19.4624 12.8459 17.8975C11.37 16.3326 10.5518 14.2916 10.5518 12.1742C10.5518 10.0568 11.37 8.01578 12.8459 6.45087C14.3219 4.88597 16.3492 3.90999 18.5309 3.71417H19.7869V10.9968H27.323V12.2106C27.3031 14.4514 26.3681 16.5938 24.7214 18.1715C23.0747 19.7491 20.8497 20.6343 18.5309 20.6342ZM17.2749 6.26311C16.1577 6.47518 15.1212 6.97676 14.2762 7.71417C13.4312 8.45159 12.8097 9.39707 12.4779 10.4495C12.1461 11.502 12.1166 12.6219 12.3926 13.6893C12.6685 14.7567 13.2396 15.7316 14.0447 16.5095C14.8497 17.2875 15.8585 17.8394 16.963 18.1061C18.0676 18.3728 19.2264 18.3443 20.3155 18.0236C21.4046 17.703 22.3831 17.1023 23.1461 16.2858C23.9092 15.4692 24.4282 14.4676 24.6477 13.388H17.2749V6.26311Z" fill="#283D3B"/>
</svg>
