<svg width="515" height="515" viewBox="0 0 515 515" fill="none" xmlns="http://www.w3.org/2000/svg">
<path d="M485.598 270.574C496.696 270.574 325.528 270.465 326.058 270.532C325.286 270.37 324.959 271.55 325.731 271.712C327.045 271.951 483.963 272.253 485.719 271.55C486.615 271.55 486.275 270.404 485.598 270.574Z" fill="#197278"/>
<path d="M346.365 264.195C346.329 264.811 347.343 264.831 347.343 263.992C347.972 262.104 347.706 222.751 347.629 221.87C349.118 222.009 349.192 221.914 359.268 221.991C359.268 221.991 359.024 260.575 359.065 261.958C359.065 262.691 359.186 263.464 359.145 264.195C359.106 264.806 360.041 264.767 360.082 264.195C360.082 264.396 360.164 263.801 360.164 263.585C360.821 257.006 360.406 227.715 360.406 221.612C360.486 221.531 360.53 221.421 360.53 221.307C360.53 221.193 360.486 221.084 360.406 221.002C360.16 220.832 359.882 220.711 359.589 220.648C359.296 220.585 358.994 220.58 358.699 220.634C358.442 220.634 348.376 220.727 347.302 220.879C347.022 220.655 346.61 220.819 346.61 221.368C346.352 222.913 346.236 261.726 346.244 261.986C346.35 262.717 346.391 263.457 346.365 264.195Z" fill="#197278"/>
<path d="M375.791 263.696C375.75 264.306 376.688 264.265 376.726 263.696C376.726 263.776 376.726 263.655 376.767 263.534C376.767 263.451 376.767 263.369 376.809 263.33C377.339 261.219 377.012 224.347 377.012 209.77C378.464 209.899 388.993 209.853 388.733 209.853C388.636 210.53 388.512 263.964 388.53 263.698C388.489 264.309 389.426 264.268 389.467 263.698C389.467 263.778 389.467 263.616 389.506 263.536C389.499 263.453 389.514 263.369 389.547 263.292C390.062 261.232 389.805 210.092 389.709 209.474L389.751 209.433C389.829 209.351 389.872 209.241 389.872 209.128C389.872 209.014 389.829 208.905 389.751 208.823C389.244 208.498 388.636 208.368 388.041 208.457C387.783 208.457 377.908 208.557 376.726 208.74C376.686 208.683 376.63 208.638 376.565 208.611C376.5 208.585 376.429 208.578 376.36 208.591C376.291 208.604 376.228 208.637 376.177 208.685C376.126 208.733 376.091 208.796 376.075 208.864C376.075 209.132 375.632 266.075 375.791 263.696Z" fill="#197278"/>
<path d="M406.234 263.696C406.193 264.306 407.13 264.306 407.171 263.696C407.314 262.726 407.382 261.746 407.374 260.765C407.699 253.64 407.49 197.189 407.416 196.581C408.489 196.676 408.235 196.663 419.137 196.663C419.137 197.145 419.014 197.281 419.014 197.639V263.696C419.014 263.752 419.025 263.808 419.046 263.859C419.068 263.911 419.099 263.958 419.139 263.998C419.178 264.038 419.226 264.069 419.277 264.091C419.329 264.112 419.385 264.123 419.441 264.123C419.497 264.123 419.553 264.112 419.605 264.091C419.656 264.069 419.704 264.038 419.743 263.998C419.783 263.958 419.814 263.911 419.836 263.859C419.857 263.808 419.868 263.752 419.868 263.696C420.178 260.926 420.314 258.14 420.275 255.353C420.507 240.531 419.971 196.257 420.234 196.257C420.313 196.175 420.358 196.065 420.358 195.951C420.358 195.837 420.313 195.728 420.234 195.646C419.48 195.131 420.268 195.234 408.84 195.443C408.309 195.443 407.778 195.484 407.253 195.564C407.22 195.498 407.168 195.444 407.104 195.407C407.04 195.371 406.967 195.353 406.894 195.358C406.82 195.362 406.749 195.388 406.69 195.432C406.631 195.476 406.586 195.536 406.561 195.605C406.561 195.816 406.406 195.837 406.478 196.053C406.164 197.634 406.218 263.958 406.234 263.696Z" fill="#197278"/>
<path d="M437.654 263.423V263.626C437.613 264.237 438.55 264.237 438.591 263.626V263.382C438.585 263.285 438.598 263.188 438.63 263.096C439.145 260.055 438.887 188.081 438.795 187.234C440.252 187.362 450.776 187.316 450.516 187.316C450.495 187.564 450.446 187.81 450.372 188.047V263.585C450.372 263.701 450.418 263.812 450.5 263.895C450.582 263.977 450.694 264.023 450.81 264.023C450.926 264.023 451.037 263.977 451.119 263.895C451.201 263.812 451.247 263.701 451.247 263.585V263.34C451.241 263.231 451.255 263.121 451.289 263.016C451.75 260.248 451.626 187.71 451.451 187.193V186.945C451.613 186.945 451.773 186.531 451.533 186.294C451.462 186.225 451.379 186.169 451.289 186.129C449.83 185.81 448.325 185.769 446.852 186.008C444.082 185.938 441.311 186.019 438.55 186.253C438.468 185.926 437.899 185.926 437.857 186.253C437.857 186.402 437.713 186.613 437.778 186.742C437.603 187.79 437.389 260.129 437.492 263.132C437.654 263.248 437.654 263.328 437.654 263.423Z" fill="#197278"/>
<path d="M439.446 166.26C436.041 165.467 432.562 165.035 429.066 164.973C428.947 164.976 428.832 165.021 428.744 165.101C428.655 165.181 428.599 165.29 428.584 165.409C428.569 165.527 428.598 165.647 428.664 165.746C428.73 165.845 428.83 165.917 428.945 165.949C432.116 166.752 435.339 167.336 438.591 167.697C433.909 171.115 429.03 174.255 423.98 177.101C393.139 194.627 360.702 199.656 348.116 202.658C347.384 202.823 347.709 203.84 348.401 203.716C351.656 203.268 354.914 202.578 358.127 201.886C384.075 196.36 409.954 187.975 432.084 173.71C434.533 172.136 436.938 170.494 439.294 168.784C439.224 169.278 439.294 169.402 438.887 172.366C438.645 174.197 438.197 175.989 437.993 177.82C437.911 178.716 439.281 178.837 439.538 178.023C440.197 175.06 440.647 172.055 440.883 169.029C441.096 166.603 441.392 166.505 439.446 166.26Z" fill="#197278"/>
<path d="M500.494 62.8845C500.479 62.7666 500.44 62.6529 500.381 62.55C500.321 62.4471 500.242 62.3571 500.147 62.2852C500.052 62.2133 499.944 62.161 499.829 62.1312C499.714 62.1015 499.594 62.0949 499.477 62.112C499.219 62.112 43.1351 63.16 42.8724 63.2913C42.7729 63.163 42.6354 63.0693 42.4796 63.0235C42.3238 62.9778 42.1574 62.9823 42.0043 63.0365C41.8512 63.0906 41.7191 63.1917 41.6267 63.3253C41.5343 63.4589 41.4863 63.6182 41.4897 63.7806C41.4897 66.9452 42.8467 306.987 42.669 308.748C42.6278 309.848 44.3376 309.848 44.42 308.748C44.7573 302.406 44.7625 301.901 43.1583 64.9599C48.4859 65.0372 498.336 63.6183 498.825 63.6183C498.825 75.8753 500.169 306.049 500.004 307.69C499.966 308.789 501.673 308.789 501.755 307.69C502.948 285.279 500.527 63.2166 500.494 62.8845Z" fill="#283D3B"/>
<path d="M123.341 293.73C123.304 293.613 123.24 293.505 123.154 293.415C123.068 293.326 122.963 293.258 122.847 293.215C120.812 286.678 118.107 280.367 114.777 274.385C115.748 272.749 115.475 260.995 115.243 257.964C115.237 257.841 115.204 257.721 115.146 257.613C115.088 257.504 115.008 257.41 114.909 257.336C114.811 257.262 114.698 257.211 114.577 257.186C114.457 257.161 114.333 257.163 114.213 257.191C101.307 259.491 87.3171 264.355 78.6007 274.163C77.9013 274.746 77.3683 275.504 77.0557 276.36C76.8523 277.335 77.545 278.435 77.8694 279.334C80.1094 285.005 82.6891 290.535 85.5944 295.896C85.6326 295.959 85.6853 296.011 85.7481 296.049C85.8109 296.086 85.8818 296.108 85.9549 296.112C83.4778 300.547 86.9849 306.927 91.2517 306.927C91.3315 307.741 91.6586 308.555 91.7796 309.33C92.5521 313.589 90.9195 315.984 91.2903 317.346C91.3107 317.415 91.3463 317.478 91.3944 317.532C91.4425 317.585 91.502 317.627 91.5684 317.654C91.6348 317.682 91.7065 317.694 91.7783 317.69C91.85 317.686 91.92 317.666 91.983 317.632C93.9555 316.254 93.7314 308.877 92.7143 306.724C94.3134 306.313 95.7051 305.328 96.6232 303.956C96.6779 303.86 96.7039 303.75 96.6983 303.64C96.6926 303.53 96.6555 303.424 96.5912 303.334C96.527 303.244 96.4383 303.175 96.3358 303.134C96.2333 303.093 96.1212 303.083 96.0129 303.103C94.5374 303.482 91.2028 307.759 87.9943 303.183C85.3627 299.452 87.1806 294.943 90.1908 295.124C90.8695 295.228 91.5285 295.434 92.1452 295.736C92.4027 295.821 93.6748 295.389 93.6902 294.706C93.7726 291.359 94.2979 288.027 94.5863 284.695C94.6739 283.665 94.4241 283.394 95.3176 282.946C101.383 280.018 107.597 277.409 113.935 275.129C114.602 276.743 116.17 279.89 116.44 280.709C115.882 280.575 115.299 280.576 114.741 280.71C114.183 280.844 113.664 281.108 113.227 281.481C113.146 281.565 113.095 281.673 113.08 281.789C113.066 281.904 113.09 282.022 113.148 282.123C113.206 282.224 113.295 282.303 113.402 282.349C113.509 282.395 113.629 282.405 113.742 282.377C114.546 282.111 115.412 282.097 116.224 282.336C116.466 282.385 116.819 282.437 116.997 282.256C118.651 286.083 120.099 289.996 121.333 293.978C118.211 296.821 114.276 298.614 110.081 299.103C105.887 299.593 101.644 298.754 97.9519 296.705C96.6386 295.394 95.6653 296.779 96.4867 297.598C98.6773 299.752 100.227 302.472 100.962 305.454C101.418 307.381 101.047 308.655 102.834 309.278C105.945 310.453 109.213 311.161 112.532 311.38C112.439 312.361 112.83 314.91 113.701 315.469C113.986 315.628 114.473 315.507 114.514 315.142C114.64 314.395 113.894 313.179 113.662 311.413C121.024 311.362 126.614 304.522 123.341 293.73ZM117.808 304.721C117.376 305.13 116.833 305.403 116.246 305.505C115.659 305.606 115.056 305.531 114.512 305.29C113.999 305.057 113.556 304.694 113.228 304.238C112.899 303.781 112.695 303.246 112.637 302.686C112.637 302.359 113.047 302.195 113.209 302.359C113.94 303.093 114.47 304.332 115.691 304.314C116.912 304.296 117.607 302.98 118.094 302.604C119.008 301.883 119.479 303.361 117.8 304.721H117.808Z" fill="#283D3B"/>
<path d="M115.235 290.476C115.738 291.343 116.122 292.274 116.376 293.244C116.376 294.04 114.687 294.194 113.891 294.137C113.495 294.137 112.967 294.593 113.16 295.075C113.213 295.219 113.306 295.344 113.429 295.435C113.552 295.527 113.7 295.581 113.853 295.59C114.497 295.698 115.158 295.651 115.781 295.453C116.404 295.255 116.97 294.912 117.434 294.452C118.248 293.352 117.514 291.967 117.025 290.87C115.992 288.386 114.422 286.162 112.426 284.358C112.06 284.072 111.45 284.437 111.736 284.873C113.033 286.656 114.202 288.528 115.235 290.476Z" fill="#283D3B"/>
<path d="M104.249 287.79C104.518 287.222 104.876 286.701 105.309 286.245C105.742 285.849 105.997 285.905 106.396 285.346C107.019 284.471 106.09 284.074 105.515 284.226C104.951 284.479 104.452 284.856 104.056 285.331C103.659 285.805 103.377 286.363 103.229 286.964C103.036 287.94 103.968 288.346 104.249 287.79Z" fill="#283D3B"/>
<path d="M36.2779 337.158C37.5034 335.457 38.1978 333.431 38.2736 331.336C37.7796 329.231 37.0989 327.175 36.2393 325.192C35.7907 322.991 35.9591 320.709 36.726 318.597C36.7672 318.191 36.1981 318.028 35.9535 318.273C35.4026 318.989 35 319.808 34.7693 320.682C34.5385 321.555 34.4841 322.466 34.6093 323.361C34.7921 327.538 38.1191 330.177 36.4814 333.942C35.6437 335.422 34.9098 336.959 34.2849 338.541C33.878 339.965 33.8368 342.244 35.423 343.019C35.4972 343.059 35.5823 343.074 35.6657 343.062C35.7491 343.05 35.8263 343.011 35.8859 342.951C35.9455 342.892 35.9843 342.814 35.9965 342.731C36.0086 342.648 35.9936 342.562 35.9535 342.488C35.4947 341.661 35.2815 340.72 35.339 339.776C35.3964 338.832 35.7222 337.923 36.2779 337.158Z" fill="#283D3B"/>
<path d="M28.8728 318.598C28.9887 319.414 28.9527 320.552 29.5629 321.173C29.6372 321.239 29.7264 321.286 29.823 321.309C29.9195 321.333 30.0204 321.333 30.1168 321.309C30.2133 321.285 30.3024 321.237 30.3764 321.171C30.4504 321.105 30.507 321.021 30.5414 320.928C30.92 320.011 30.1964 318.907 30.0522 315.719C29.9312 313.968 29.89 312.178 29.8076 310.427C29.7689 309.94 29.0351 309.817 28.9527 310.306C28.5387 313.053 28.5119 315.844 28.8728 318.598Z" fill="#283D3B"/>
<path d="M24.2736 321.162C24.3164 321.771 24.5437 322.353 24.9251 322.831C24.993 322.902 25.0789 322.955 25.1739 322.982C25.2688 323.009 25.3693 323.01 25.4649 322.985C25.5604 322.96 25.6475 322.91 25.717 322.84C25.7864 322.769 25.8358 322.682 25.8598 322.586C25.9956 322.02 25.9679 321.427 25.78 320.876C25.0487 316.736 24.6397 312.545 24.5569 308.341C24.5183 307.893 23.8256 307.731 23.7432 308.22C23.147 312.531 23.3267 316.914 24.2736 321.162Z" fill="#283D3B"/>
<path d="M19.0538 321C19.2985 321.813 19.4195 323.034 20.3156 323.4C20.4237 323.435 20.541 323.43 20.6457 323.386C20.7504 323.341 20.8354 323.26 20.8847 323.158C21.5156 322.022 19.9705 321.136 18.6058 312.168C18.5234 311.598 17.5475 311.719 17.5758 312.291C17.7495 315.239 18.2451 318.159 19.0538 321Z" fill="#283D3B"/>
<path d="M21.6296 341.188C16.9045 333.463 15.9646 325.697 13.8582 317.379C13.7346 316.864 12.8282 316.973 12.9209 317.503C13.6172 325.658 15.9132 333.596 19.6777 340.863C20.2468 341.893 20.9395 342.898 21.5086 343.915C22.7188 345.99 22.6132 346.418 23.2596 346.765C23.331 346.801 23.4091 346.82 23.4887 346.822C23.5683 346.825 23.6474 346.81 23.7208 346.779C23.7941 346.748 23.8599 346.701 23.9136 346.643C23.9673 346.584 24.0077 346.514 24.0321 346.438C24.4415 345.473 23.4759 344.208 21.6296 341.188Z" fill="#283D3B"/>
<path d="M18.9817 327.185C18.9284 327.244 18.8976 327.32 18.8944 327.399C18.8912 327.478 18.916 327.556 18.9643 327.619C19.0127 327.682 19.0816 327.727 19.1591 327.744C19.2366 327.762 19.3177 327.751 19.3885 327.715C26.4646 324.095 28.607 325.995 30.6619 325.64C31.1099 325.557 31.0687 324.988 30.7855 324.744C29.2765 323.595 22.5892 323.58 18.9817 327.185Z" fill="#283D3B"/>
<path d="M368.873 331.58C370.047 329.966 370.718 328.041 370.799 326.047C370.34 324.039 369.7 322.078 368.886 320.186C368.485 318.091 368.654 315.926 369.375 313.919C369.414 313.512 368.886 313.388 368.641 313.633C368.122 314.317 367.744 315.097 367.527 315.929C367.311 316.76 367.261 317.626 367.38 318.476C367.557 322.413 370.671 324.914 369.169 328.488C368.389 329.895 367.696 331.349 367.096 332.842C366.728 334.186 366.648 336.383 368.152 337.117C368.221 337.154 368.299 337.168 368.376 337.157C368.453 337.146 368.525 337.11 368.58 337.055C368.635 337 368.671 336.929 368.682 336.852C368.693 336.775 368.679 336.696 368.641 336.627C368.22 335.844 368.019 334.961 368.06 334.072C368.1 333.183 368.382 332.322 368.873 331.58Z" fill="#283D3B"/>
<path d="M361.787 313.957C361.882 314.73 361.867 315.832 362.438 316.401C362.509 316.467 362.595 316.513 362.688 316.537C362.782 316.561 362.88 316.56 362.973 316.536C363.066 316.511 363.152 316.464 363.222 316.397C363.292 316.331 363.344 316.248 363.373 316.156C363.509 315.351 363.44 314.524 363.17 313.754C362.864 311.242 362.702 308.716 362.683 306.186C362.642 305.738 361.949 305.573 361.867 306.062C361.462 308.676 361.435 311.335 361.787 313.957Z" fill="#283D3B"/>
<path d="M357.437 316.401C357.492 316.976 357.703 317.524 358.047 317.987C358.115 318.05 358.198 318.095 358.288 318.117C358.378 318.139 358.472 318.138 358.561 318.114C358.65 318.09 358.732 318.043 358.799 317.979C358.865 317.914 358.914 317.834 358.941 317.745C359.077 317.206 359.049 316.639 358.861 316.115C358.174 312.175 357.779 308.189 357.679 304.19C357.64 303.784 356.989 303.621 356.906 304.069C356.346 308.179 356.525 312.355 357.437 316.401Z" fill="#283D3B"/>
<path d="M352.471 316.239C352.695 317.011 352.839 318.19 353.653 318.517C353.761 318.548 353.877 318.541 353.981 318.496C354.084 318.451 354.169 318.373 354.222 318.273C354.85 317.14 353.192 316.069 352.064 307.813C351.984 307.242 351.047 307.406 351.088 307.934C351.244 310.745 351.707 313.529 352.471 316.239Z" fill="#283D3B"/>
<path d="M354.914 335.448C350.403 327.981 349.622 321.286 347.506 312.819C347.385 312.33 346.53 312.412 346.61 312.94C347.288 320.696 349.475 328.245 353.047 335.162C353.616 336.138 354.226 337.117 354.796 338.093C355.962 340.091 355.795 340.511 356.464 340.82C356.53 340.856 356.603 340.877 356.677 340.882C356.752 340.887 356.827 340.875 356.897 340.848C356.967 340.821 357.03 340.78 357.082 340.726C357.134 340.672 357.174 340.607 357.198 340.536C357.504 339.759 357.054 338.986 354.914 335.448Z" fill="#283D3B"/>
<path d="M360.692 319.169C359.182 319.065 357.666 319.271 356.239 319.775C354.811 320.278 353.502 321.069 352.39 322.097C352.105 322.383 352.47 322.751 352.797 322.586C359.353 319.239 361.756 320.951 363.502 320.634C363.947 320.552 363.908 320.024 363.623 319.779C362.72 319.312 361.706 319.101 360.692 319.169Z" fill="#283D3B"/>
<path d="M204.043 311.964C202.861 310.947 201.354 310.499 200.134 309.603C198.911 308.525 197.519 307.655 196.014 307.028C195.325 306.797 194.591 306.736 193.874 306.85C193.156 306.964 192.477 307.249 191.894 307.682C187.774 310.733 188.546 312.832 189.084 316.105C189.35 317.992 189.267 319.912 188.84 321.77C188.815 321.863 188.824 321.963 188.866 322.05C188.908 322.137 188.979 322.207 189.067 322.246C189.156 322.285 189.255 322.292 189.348 322.265C189.441 322.237 189.521 322.178 189.574 322.097C192.149 317.462 188.49 313.424 190.794 310.62C191.506 309.603 192.494 308.811 193.642 308.339C196.217 307.566 198.445 310.496 200.44 311.596C201.575 312.036 202.602 312.716 203.45 313.589C203.632 313.774 203.765 314 203.839 314.248C203.912 314.496 203.924 314.759 203.874 315.013C203.823 315.266 203.711 315.504 203.547 315.705C203.384 315.905 203.174 316.063 202.935 316.164C201.998 316.484 201 316.584 200.018 316.457C199.036 316.33 198.096 315.98 197.27 315.433C196.755 315.002 196.212 314.608 195.643 314.251C195.275 314.047 194.95 314.413 195.113 314.781C195.981 315.878 197.123 316.727 198.423 317.241C199.724 317.756 201.137 317.918 202.521 317.712C203.193 317.7 203.843 317.469 204.373 317.054C204.902 316.639 205.282 316.063 205.454 315.413C205.626 314.763 205.581 314.074 205.327 313.452C205.072 312.83 204.621 312.307 204.043 311.964Z" fill="#283D3B"/>
<path d="M200.257 306.958C202.034 303.773 203.635 298.592 205.1 296.295C205.342 295.93 205.615 295.603 205.873 295.237C205.388 299.516 204.558 303.75 203.391 307.896C203.308 308.465 204.122 308.993 204.449 308.341C205.841 304.343 206.756 300.194 207.176 295.981C207.256 295.288 207.297 294.392 206.687 293.944C204.984 292.51 202.904 297.58 202.088 299.643C201.072 301.912 200.175 304.232 199.402 306.595C199.376 306.703 199.39 306.817 199.44 306.916C199.49 307.015 199.574 307.093 199.676 307.137C199.779 307.18 199.893 307.186 199.999 307.154C200.105 307.121 200.197 307.052 200.257 306.958Z" fill="#283D3B"/>
<path d="M204.245 310.744C203.988 311.187 204.611 311.72 204.977 311.313C205.684 310.495 206.541 309.818 207.5 309.32C209.192 308.473 209.462 309.441 210.186 309.564C210.958 309.755 211.296 308.277 209.413 307.762C208.355 307.703 207.303 307.954 206.385 308.483C205.468 309.013 204.724 309.798 204.245 310.744Z" fill="#283D3B"/>
<path d="M206.931 313.022C206.565 313.308 207.052 313.877 207.418 313.674C208.569 313.004 209.39 312.103 210.186 311.64C211.491 310.986 211.914 311.776 212.588 312.047C213.263 312.317 213.587 310.831 211.978 310.296C209.66 309.515 207.83 312.317 206.931 313.022Z" fill="#283D3B"/>
<path d="M213.523 315.139C213.183 313.406 210.855 313.759 209.534 315.343C209.251 315.667 209.616 316.277 210.023 315.994C210.389 315.749 211.895 314.853 212.302 315.343C212.464 315.546 212.302 316.318 212.222 316.563C211.401 320.67 202.535 325.146 202.535 329.505C202.541 329.608 202.578 329.706 202.643 329.786C202.707 329.866 202.796 329.924 202.895 329.951C202.994 329.978 203.099 329.973 203.196 329.937C203.292 329.901 203.374 329.835 203.431 329.75C204.301 327.973 205.455 326.351 206.848 324.947C208.962 322.774 214.264 318.896 213.523 315.139Z" fill="#283D3B"/>
<path d="M201.029 330.97C196.481 329.071 192.21 326.566 188.332 323.523C188.165 323.432 187.973 323.395 187.784 323.416C187.594 323.438 187.416 323.518 187.274 323.644C181.43 328.343 176.158 333.712 171.566 339.64C170.325 343.891 169.614 348.278 169.45 352.703C169.448 352.832 169.4 352.955 169.316 353.052C169.232 353.148 169.117 353.212 168.99 353.232C168.863 353.252 168.734 353.226 168.624 353.16C168.515 353.093 168.432 352.99 168.391 352.868C167.312 349.328 168.893 343.856 170.222 339.682C169.246 338.703 163.427 332.925 161.555 331.012C152.04 321.484 141.889 310.154 127.732 309.897C123.941 309.792 120.193 310.722 116.891 312.587C114.177 314.156 112.704 317.416 104.745 318.178C101.151 318.575 97.5167 318.362 93.9943 317.547C91.0846 316.517 93.2785 315.106 86.9105 315.106C74.2724 315.443 63.7355 326.76 57.7718 338.101C54.9141 343.697 52.4749 349.497 50.4743 355.453C52.3025 358.479 58.4774 370.005 58.8301 373.509C58.8688 374.078 58.1375 374.161 57.8516 373.754C56.3659 371.622 56.4457 369.474 51.5429 360.444C48.3756 354.059 43.8135 348.468 38.1941 344.085C36.7984 342.918 36.4817 342.764 34.4912 343.637C34.0097 343.851 23.3518 348.251 23.0943 348.357C22.9095 348.413 22.7471 348.525 22.6301 348.679C22.5131 348.832 22.4476 349.019 22.4428 349.212C22.3372 350.831 26.9413 369.147 38.2765 386.572C41.7347 391.864 46.0015 397.114 52.2356 399.19C59.0181 401.507 64.0934 399.228 69.125 394.102C73.525 389.527 77.3647 384.445 80.5631 378.963C79.3658 374.179 77.0586 364.716 76.2088 359.834C76.1854 359.713 76.2088 359.588 76.2743 359.484C76.3398 359.379 76.4425 359.304 76.5615 359.273C76.6805 359.242 76.8069 359.257 76.915 359.316C77.0231 359.375 77.1048 359.472 77.1435 359.589C81.3331 373.048 81.2893 383.253 93.3429 403.341C93.4637 403.543 93.6588 403.691 93.8868 403.752C94.1147 403.813 94.3574 403.783 94.5634 403.668C116.657 393.061 139.834 385.336 163.671 391.295C163.771 391.321 163.876 391.324 163.978 391.304C164.079 391.284 164.174 391.24 164.257 391.177C164.339 391.115 164.406 391.034 164.452 390.941C164.498 390.849 164.523 390.747 164.524 390.643C164.292 386.634 163.283 382.709 161.555 379.084C157.02 368.831 148.505 354.341 148.651 342.658C148.651 342.21 149.385 342.089 149.465 342.537C151.687 355.572 154.115 359.488 161.838 375.755C170.783 376.365 176.969 375.188 182.719 368.308C191.205 357.458 197.62 345.138 201.642 331.964C201.802 331.581 201.477 331.13 201.029 330.97ZM128.626 366.745C126.478 365.362 124.485 363.752 122.682 361.942C120.924 360.174 119.516 358.09 118.532 355.799C118.369 355.392 119.062 355.106 119.265 355.472C121.732 360.596 127.346 364.16 129.153 366.052C129.232 366.126 129.281 366.227 129.29 366.335C129.299 366.443 129.268 366.55 129.202 366.637C129.136 366.723 129.041 366.782 128.935 366.802C128.828 366.822 128.718 366.801 128.626 366.745Z" fill="#197278"/>
<path d="M298.79 279.079C291.142 260.253 260.862 260.905 255.159 285.259C254.089 289.475 253.943 293.873 254.73 298.151C255.517 302.429 257.219 306.486 259.719 310.046C259.961 310.332 260.45 310.087 260.234 309.721C256.472 303.344 254.887 295.915 255.718 288.558C258.233 269.052 277.16 262.581 289.579 270.2C296.74 274.64 299.055 281.105 299.467 289.289C299.806 293.669 299.148 298.068 297.542 302.157C295.937 306.246 293.425 309.918 290.197 312.896C289.586 313.411 290.483 314.279 291.052 313.749C301.359 305.112 302.789 288.915 298.79 279.079Z" fill="#283D3B"/>
<path d="M278.643 296.457C277.669 296.592 276.73 296.91 275.875 297.395C275.468 297.598 275.754 298.208 276.161 298.126C279.392 297.245 281.002 297.655 281.568 297.312C281.634 297.275 281.69 297.222 281.731 297.159C281.773 297.095 281.799 297.023 281.807 296.947C281.815 296.872 281.805 296.795 281.778 296.725C281.751 296.654 281.707 296.591 281.65 296.54C280.674 296.242 279.634 296.213 278.643 296.457Z" fill="#283D3B"/>
<path d="M262.322 296.383C262.239 296.403 262.166 296.454 262.118 296.524C262.069 296.594 262.048 296.68 262.058 296.764C262.068 296.849 262.109 296.927 262.173 296.984C262.236 297.041 262.319 297.073 262.404 297.073C264.292 297.122 266.171 297.34 268.02 297.724C268.15 297.692 268.267 297.619 268.355 297.517C268.442 297.416 268.496 297.289 268.509 297.155C268.509 296.02 264.363 295.747 262.322 296.383Z" fill="#283D3B"/>
<path d="M272.13 296.051C272.05 295.644 271.44 295.765 271.44 296.133C271.482 298.13 270.786 300.072 269.485 301.587C269.158 301.953 268.672 302.277 268.672 302.807C268.672 303.958 271.563 305.488 272.212 304.679C272.291 304.589 272.334 304.473 272.334 304.354C272.334 304.234 272.291 304.118 272.212 304.028C271.968 303.704 271.357 303.742 270.992 303.621C270.703 303.505 269.892 303.037 269.892 302.849C270.795 301.987 271.471 300.915 271.862 299.73C272.252 298.544 272.344 297.28 272.13 296.051Z" fill="#283D3B"/>
<path d="M270.869 310.865C271.402 311.082 271.975 311.188 272.551 311.174C273.127 311.16 273.694 311.028 274.216 310.785C274.616 310.616 274.957 310.332 275.197 309.97C275.436 309.607 275.562 309.182 275.561 308.748C275.683 307.885 275.541 307.005 275.154 306.224C274.672 305.622 274.005 306.024 274.07 306.716C274.226 307.159 274.3 307.627 274.289 308.096C274.302 308.463 274.246 308.829 274.124 309.175C273.626 309.574 273.021 309.816 272.386 309.87C271.75 309.925 271.113 309.79 270.555 309.482C269.844 309.201 269.522 310.231 270.869 310.865Z" fill="#283D3B"/>
<path d="M93.0953 404.108C89.31 410.512 81.4434 439.44 81.5361 442.772C81.5361 443.258 82.27 443.503 82.4734 443.016C83.5034 440.956 84.742 431.457 90.9374 413.02C91.8154 410.19 92.8347 407.405 93.9914 404.677C94.3158 404.018 93.4558 403.503 93.0953 404.108Z" fill="#283D3B"/>
<path d="M164.644 392.224C164.611 392.102 164.53 391.998 164.42 391.935C164.31 391.871 164.18 391.853 164.057 391.885C163.934 391.917 163.829 391.995 163.763 392.104C163.698 392.213 163.678 392.343 163.707 392.467C166.482 404.119 168.44 415.95 169.568 427.875C170.217 436.723 170.142 436.53 170.384 437.969C170.505 438.659 171.44 438.417 171.481 437.807C171.975 431.702 169.2 406.078 164.644 392.224Z" fill="#283D3B"/>
<path d="M140.185 424.7C138.71 425.087 130.192 432.94 126.633 441.834C126.468 442.283 127.161 442.568 127.405 442.161C129.543 438.123 132.152 434.352 135.179 430.929C135.017 432.799 134.976 434.712 134.935 436.594C134.686 438.666 134.727 440.763 135.056 442.823C135.088 442.935 135.155 443.034 135.248 443.104C135.341 443.174 135.454 443.212 135.571 443.212C135.687 443.212 135.8 443.174 135.893 443.104C135.986 443.034 136.054 442.935 136.086 442.823C136.446 440.768 136.556 438.676 136.413 436.594C136.519 434.31 136.482 432.022 136.302 429.742C136.56 429.498 136.616 429.392 136.861 429.147C139.531 426.477 140.226 426.359 140.685 425.483C140.958 425.027 140.633 424.585 140.185 424.7Z" fill="#283D3B"/>
<path d="M139.127 394.259C139.044 393.769 138.231 393.89 138.231 394.38C138.516 399.272 139.003 404.108 139.289 408.99C139.593 413.545 139.832 422.895 140.103 423.562C140.136 423.665 140.202 423.755 140.29 423.819C140.378 423.882 140.483 423.916 140.592 423.916C140.7 423.916 140.806 423.882 140.894 423.819C140.982 423.755 141.047 423.665 141.081 423.562C141.262 413.757 140.608 403.953 139.127 394.259Z" fill="#283D3B"/>
<path d="M133.835 418.677C133.8 421.193 134.046 423.704 134.568 426.165C134.592 426.249 134.643 426.323 134.713 426.376C134.782 426.428 134.867 426.457 134.955 426.457C135.042 426.457 135.127 426.428 135.197 426.376C135.266 426.323 135.317 426.249 135.341 426.165C135.517 424.952 135.531 423.721 135.382 422.504C134.723 412.312 134.244 404.628 133.065 396.007C133.023 395.559 132.331 395.559 132.372 396.007C132.678 403.65 133.361 411.313 133.835 418.677Z" fill="#283D3B"/>
<path d="M303.878 399.141C303.033 398.248 302.074 397.469 301.027 396.823C301.19 395.644 301.738 393.607 301.72 392.876C299.917 392.073 281.076 382.411 279.701 381.685C278.053 380.899 276.476 379.971 274.989 378.912C255.506 388.655 256.379 388.988 251.945 390.757C252.238 392.91 252.659 395.043 253.207 397.145C244.511 402.416 237.626 410.21 233.467 419.489C232.092 422.089 231.144 424.892 230.658 427.793C230.66 427.931 230.707 428.064 230.792 428.173C230.876 428.283 230.994 428.361 231.127 428.398C231.26 428.434 231.402 428.427 231.53 428.376C231.659 428.326 231.767 428.235 231.84 428.117C233.789 423.997 233.562 421.775 238.02 414.524C250.941 393.852 265.039 393.033 289.463 396.046C300.875 397.488 301.007 398.227 305.428 403.657C310.983 410.694 315.645 418.392 319.307 426.575C322.029 432.474 322.333 434.148 323.458 435.938C323.523 436.043 323.624 436.121 323.742 436.158C323.861 436.195 323.988 436.188 324.102 436.139C324.215 436.09 324.307 436.001 324.361 435.889C324.414 435.777 324.426 435.65 324.393 435.531C324.04 432.384 315.334 410.999 303.878 399.141Z" fill="#283D3B"/>
<path d="M323.29 351.279C323.202 341.423 320.552 331.759 315.599 323.238C313.488 319.581 310.07 316.861 306.033 315.626C303.332 314.845 300.496 314.65 297.714 315.055C294.932 315.46 292.269 316.454 289.903 317.972C288.833 314.459 288.569 310.75 289.13 307.121C289.842 307.076 290.536 306.887 291.171 306.563C291.806 306.24 292.368 305.789 292.822 305.24C293.276 304.691 293.613 304.054 293.811 303.369C294.009 302.685 294.064 301.967 293.974 301.26C293.642 298.942 291.814 296.921 289.699 297.312C289.699 296.468 289.385 296.524 288.561 293.772L288.317 293.041C288.382 293.034 288.444 293.013 288.5 292.979C288.555 292.944 288.603 292.898 288.638 292.843C288.673 292.788 288.695 292.726 288.703 292.661C288.711 292.596 288.704 292.531 288.682 292.469C287.274 288.645 268.597 284.229 261.74 287.994C261.699 287.931 261.64 287.882 261.572 287.853C261.503 287.823 261.428 287.815 261.354 287.827C261.281 287.84 261.212 287.874 261.158 287.925C261.103 287.976 261.065 288.042 261.047 288.115C260.465 291.804 260.152 295.532 260.113 299.267C260.02 307.136 262.273 316.277 270.083 317.459C270.011 318.66 269.818 319.851 269.506 321.013C263.489 317.467 255.661 319.017 250.181 322.954C243.872 327.471 240.007 334.472 236.384 341.144C229.787 353.277 219.564 374.619 228.041 385.468C230.37 388.262 233.588 390.171 237.157 390.875C241.947 391.804 246.895 391.492 251.53 389.969C253.472 389.016 267.297 380.542 295.684 367.677C285.531 362.908 271.383 364.844 260.561 367.718C255.373 368.978 250.367 370.892 245.662 373.414C243.823 374.784 243.216 373.607 244.019 372.77C246.159 371.314 248.475 370.136 250.912 369.263C250.916 366.079 251.496 362.922 252.625 359.944C252.929 358.886 253.472 357.912 254.211 357.096C254.287 357.028 254.382 356.986 254.483 356.974C254.584 356.962 254.686 356.982 254.775 357.031C254.865 357.08 254.936 357.155 254.981 357.247C255.026 357.338 255.041 357.441 255.024 357.542C254.703 359.627 252.684 361.069 252.135 368.776C259.293 366.301 266.705 364.635 274.234 363.809C281.933 363.037 290.503 363.101 296.943 367.35C298.097 367.118 299.268 366.982 300.445 366.943C300.445 366.686 300.55 365.256 300.566 364.991C300.659 363.474 300.607 356.308 300.607 355.752C300.607 355.263 301.421 355.101 301.503 355.628C302 359.392 302.123 363.196 301.869 366.984C303.088 367.05 304.299 367.214 305.492 367.473C306.427 367.677 307.869 367.831 308.381 368.694C308.417 368.76 308.438 368.832 308.443 368.907C308.448 368.982 308.437 369.057 308.41 369.127C308.383 369.197 308.341 369.26 308.287 369.312C308.233 369.364 308.169 369.403 308.098 369.428C307.364 369.673 306.697 369.206 305.247 368.936C302.377 368.368 299.43 368.3 296.536 368.735C291.553 371.004 286.29 373.347 275.936 378.461C277.739 379.061 284.544 382.566 285.175 382.898C305.659 393.44 306.684 394.828 312.442 391.485C316.108 389.1 318.917 385.607 320.46 381.515C323.599 373.929 323.677 359.45 323.29 351.279ZM275.712 339.434C273.845 333.344 272.316 327.154 271.134 320.894C271.419 319.826 271.522 318.718 271.44 317.616C275.087 317.653 278.606 316.268 281.248 313.754C282.712 312.628 283.895 311.179 284.707 309.521C284.91 308.99 284.192 308.748 283.852 309.031C281.979 311.416 279.691 313.443 277.097 315.016C275.849 315.688 274.479 316.105 273.068 316.244C271.656 316.384 270.231 316.242 268.875 315.827C267.458 315.271 266.186 314.4 265.157 313.279C264.127 312.158 263.366 310.817 262.932 309.358C260.156 302.02 262.113 292.281 261.956 288.884C263.65 288.402 265.378 288.048 267.124 287.826C272.618 287.441 278.128 288.305 283.241 290.352C284.881 290.871 286.383 291.751 287.637 292.927C287.629 293.321 287.643 293.714 287.678 294.107C287.863 295.176 288.192 296.215 288.654 297.197C288.758 297.359 288.897 297.497 289.061 297.601C288.694 297.771 288.395 298.058 288.209 298.417C288.165 298.503 288.153 298.602 288.175 298.696C288.197 298.791 288.252 298.874 288.329 298.932C288.407 298.99 288.502 299.019 288.598 299.014C288.695 299.009 288.787 298.97 288.857 298.904C290.001 297.722 292.619 299.233 292.72 301.994C292.727 302.53 292.623 303.062 292.414 303.555C292.205 304.049 291.895 304.494 291.505 304.861C291.114 305.229 290.652 305.511 290.146 305.69C289.641 305.868 289.104 305.94 288.569 305.9C288.422 305.897 288.277 305.943 288.159 306.031C288.041 306.119 287.956 306.244 287.918 306.387C287.348 309.451 287.348 312.593 287.918 315.657C288.021 316.28 288.299 318.288 288.96 318.824C288.245 320.099 275.885 339.177 275.712 339.434Z" fill="#283D3B"/>
<path d="M418.038 298.371C417.294 298.842 417.312 300.099 416.045 300.446C414.988 300.54 413.936 300.219 413.112 299.55C413.041 299.483 412.949 299.443 412.852 299.438C412.754 299.432 412.658 299.461 412.58 299.52C412.503 299.579 412.448 299.663 412.427 299.758C412.405 299.853 412.418 299.953 412.463 300.039C412.879 300.637 413.454 301.107 414.123 301.394C414.792 301.682 415.528 301.776 416.248 301.667C416.735 301.547 417.191 301.325 417.584 301.014C417.977 300.703 418.299 300.311 418.527 299.864C418.767 299.564 418.896 299.19 418.893 298.806C418.884 298.71 418.851 298.619 418.798 298.539C418.744 298.46 418.671 298.396 418.586 298.352C418.5 298.309 418.405 298.288 418.309 298.291C418.214 298.294 418.12 298.322 418.038 298.371Z" fill="#283D3B"/>
<path d="M424.752 360.804C424.452 360.572 424.098 360.418 423.722 360.356C421.147 359.496 419.994 355.497 418.104 353.355C416.382 351.729 414.436 350.359 412.325 349.286C411.794 348.839 411.364 348.283 411.064 347.656C410.739 347.007 409.926 347.494 410.005 348.104C410.446 350.888 414.682 351.297 417.373 354.454C419.203 356.638 419.742 359.468 422.461 361.129C423.071 361.456 424.047 361.942 424.698 361.536C424.75 361.491 424.793 361.437 424.824 361.376C424.855 361.316 424.873 361.249 424.878 361.181C424.883 361.113 424.875 361.045 424.853 360.98C424.832 360.915 424.797 360.856 424.752 360.804Z" fill="#283D3B"/>
<path d="M402.082 354.982C404.037 356.079 406.152 356.861 408.35 357.3C409.246 357.465 410.752 357.91 411.566 357.3C411.619 357.266 411.663 357.222 411.697 357.169C411.73 357.116 411.752 357.057 411.76 356.995C411.767 356.933 411.762 356.87 411.742 356.81C411.723 356.751 411.691 356.696 411.648 356.651C410.809 355.811 410.165 356.437 405.705 355.062C403.761 354.296 401.859 353.427 400.007 352.459C399.923 352.437 399.834 352.441 399.752 352.47C399.67 352.499 399.598 352.551 399.546 352.62C399.494 352.69 399.463 352.773 399.458 352.86C399.453 352.946 399.474 353.033 399.518 353.108C400.227 353.911 401.102 354.55 402.082 354.982Z" fill="#283D3B"/>
<path d="M408.309 362.303C409.38 362.434 409.494 362.442 410.181 362.099C410.467 361.976 410.385 361.61 410.181 361.445C409.08 360.905 407.898 360.549 406.682 360.39C403.157 359.228 400.065 357.029 397.811 354.081C397.443 353.633 396.781 354.202 397.038 354.691C398.269 356.688 399.91 358.399 401.853 359.711C403.797 361.024 405.998 361.907 408.309 362.303Z" fill="#283D3B"/>
<path d="M401.472 363.57C402.379 364.085 405.948 365.887 406.926 365.524C406.992 365.499 407.051 365.461 407.102 365.412C407.152 365.363 407.192 365.305 407.218 365.24C407.245 365.175 407.258 365.105 407.257 365.035C407.256 364.965 407.241 364.896 407.212 364.832C406.499 363.645 402.577 363.948 397.849 359.216C397.779 359.149 397.686 359.109 397.589 359.103C397.492 359.098 397.396 359.127 397.318 359.186C397.24 359.244 397.185 359.329 397.164 359.424C397.142 359.519 397.155 359.618 397.2 359.705C398.268 361.34 399.739 362.671 401.472 363.57Z" fill="#283D3B"/>
<path d="M412.381 371.426C406.288 369.551 402.82 368.781 398.584 364.548C398.515 364.483 398.425 364.444 398.329 364.44C398.234 364.436 398.141 364.466 398.067 364.525C397.992 364.585 397.942 364.669 397.925 364.763C397.908 364.856 397.925 364.953 397.974 365.035C401.718 371.498 412.185 371.856 418.486 375.291C419.31 375.856 420.197 376.321 421.131 376.676C421.215 376.697 421.303 376.693 421.385 376.663C421.467 376.634 421.538 376.582 421.59 376.512C421.642 376.443 421.673 376.36 421.678 376.273C421.684 376.186 421.663 376.1 421.62 376.025C420.497 373.965 414.631 372.121 412.381 371.426Z" fill="#283D3B"/>
<path d="M440.097 319.983C435.226 320.148 430.372 320.637 425.566 321.448C413.62 323.371 401.94 326.69 390.768 331.336C390.553 331.391 390.355 331.499 390.193 331.651C390.031 331.803 389.91 331.993 389.841 332.205C389.772 332.416 389.758 332.641 389.799 332.859C389.84 333.077 389.936 333.281 390.078 333.453C396.139 343.683 397.179 346.104 400.576 351.524C400.862 352.013 401.554 351.604 401.348 351.076C398.951 345.898 392.308 334.629 391.744 333.738C391.033 332.497 390.971 332.708 391.417 332.477C405.743 326.577 420.877 322.872 436.309 321.487C437.406 321.407 438.464 321.324 439.523 321.162C439.944 322.362 440.476 323.521 441.111 324.623C453.412 350.043 454.602 357.707 456.332 360.56C456.536 360.925 457.27 360.804 457.187 360.315C456.783 355.865 441.534 320.142 440.097 319.983Z" fill="#283D3B"/>
<path d="M435.905 383.268C432.674 383.011 418.679 385.82 415.514 386.485C409.931 373.983 409.821 373.697 409.076 372.768C408.832 372.443 408.343 372.809 408.425 373.136C408.755 374.781 414.53 387.203 414.651 387.461C414.968 388.089 414.947 387.646 425.68 385.751C429.172 385.399 432.639 384.828 436.06 384.041C436.474 383.933 436.353 383.305 435.905 383.268Z" fill="#283D3B"/>
<path d="M470.581 313.226C466.09 305.184 460.131 303.457 451.168 304.556C446.706 304.962 442.387 306.344 438.519 308.607C436.722 304.521 435.684 300.143 435.458 295.685C436.32 295.627 437.144 295.303 437.814 294.758C438.485 294.212 438.97 293.472 439.202 292.639C450.133 286.572 450.694 273.643 445.382 262.511C436.441 243.938 409.35 246.987 401.061 262.553C399.201 265.646 398.543 269.316 399.213 272.863C399.883 276.409 401.834 279.586 404.694 281.788C398.427 283.907 398.787 291.527 404.563 292.59C404.463 299.316 405.392 305.689 411.603 308.179C413.178 308.825 414.865 309.155 416.568 309.152C416.629 310.535 416.51 311.92 416.215 313.272C412.252 312.333 408.183 311.919 404.112 312.042C391.891 312.299 386.602 322.831 382.135 334.099C380.313 338.356 378.933 342.788 378.015 347.327C378.015 347.814 378.749 348.061 378.952 347.571C379.665 345.748 380.277 343.886 380.783 341.994C382.577 336.49 384.753 331.119 387.295 325.918C390.509 319.772 395.556 314.117 402.84 313.545C407.237 313.332 411.643 313.578 415.988 314.279C415.962 314.368 415.955 314.462 415.969 314.553C415.983 314.645 416.016 314.733 416.068 314.81C418.306 317.41 422.215 317.41 425.39 317.207C429.094 317.173 432.705 316.041 435.767 313.955C441.403 309.724 435.996 310.388 443.832 307.726C449.607 305.759 457.706 304.458 462.995 307.237C467.226 309.523 469.543 314.037 471.459 318.43C474.599 325.863 476.748 333.676 477.85 341.67C478.986 349.562 479.781 364.747 477.85 372.479C475.375 382.548 467.867 387.463 457.907 387.373C452.523 386.986 447.228 385.793 442.199 383.833C436.534 382.043 422.629 377.653 421.318 377.199C423.331 372.19 424.792 366.977 425.675 361.652C425.755 361.288 425.755 360.92 426.162 360.755C426.559 360.642 426.97 360.588 427.383 360.596C435.64 359.744 443.973 359.977 452.17 361.288C455.698 361.843 459.19 362.603 462.629 363.565C463.118 363.688 463.646 363.688 464.174 363.768C464.297 363.765 464.416 363.722 464.513 363.646C464.61 363.57 464.68 363.465 464.712 363.346C464.744 363.227 464.737 363.101 464.692 362.986C464.646 362.871 464.565 362.775 464.46 362.71C462.789 361.876 464.406 362.362 459.006 361C448.74 358.621 438.153 357.948 427.668 359.007C423.106 359.496 425.266 359.62 422.003 370.891C420.013 377.802 419.923 378.142 420.7 378.379C426.602 380.253 444.185 385.867 447.074 386.766C455.056 389.176 463.664 390.015 470.923 385.177C473.421 405.687 473.645 404.35 473.161 404.59C472.823 404.719 472.465 404.788 472.103 404.793C459.537 406.81 446.815 407.695 434.09 407.438C420.25 407.438 406.62 407.319 393.351 404.389C393.588 392.119 394.553 379.874 396.241 367.718C396.282 367.19 395.468 367.105 395.344 367.595C394.829 369.956 394.41 372.356 394.042 374.758C393.076 374.758 390.048 379.319 383.095 380.985C381.052 381.506 378.924 381.608 376.84 381.287C374.756 380.965 372.758 380.226 370.967 379.113C361.182 372.861 358.416 352.018 355.705 341.428C359.719 341.543 363.945 339.236 367.792 337.598C368.119 337.439 368.441 337.308 368.768 337.15C369.811 336.659 369.564 336.862 371.129 338.953C380.01 351.37 380.688 360.81 382.24 363.699C382.413 364.018 382.814 363.82 382.851 363.536C382.622 360.458 381.908 357.435 380.734 354.581C378.676 348.836 375.842 343.4 372.309 338.425C369.597 334.722 370.452 334.998 365.098 337.367C356.374 341.386 354.541 339.926 354.76 340.99C354.709 341.034 354.67 341.09 354.649 341.154C354.628 341.218 354.624 341.287 354.639 341.353C355.927 351.123 358.428 360.694 362.086 369.845C363.635 373.783 366.189 377.245 369.494 379.888C376.792 385.197 387.777 383.009 393.83 376.512C392.632 385.935 391.994 395.421 391.92 404.919C391.93 405.073 391.986 405.221 392.08 405.344C392.174 405.466 392.302 405.559 392.448 405.609C405.697 408.125 419.178 409.203 432.659 408.826C446.191 409.182 459.725 408.228 473.073 405.978C473.421 405.966 473.758 405.857 474.045 405.662C474.333 405.468 474.561 405.196 474.701 404.878C474.83 403.995 474.774 403.094 474.539 402.234C474.294 400.279 474.049 398.325 473.766 396.411C472.177 383.871 472.311 384.566 471.933 384.366C479.006 378.93 480.25 370.37 480.399 361.41C480.665 345.962 478.177 326.454 470.581 313.226ZM401.55 287.443C401.71 286.418 402.178 285.467 402.891 284.714C403.604 283.962 404.53 283.444 405.544 283.23C406.108 283.238 406.664 283.363 407.177 283.598C407.689 283.832 408.148 284.171 408.523 284.592C408.898 285.013 409.181 285.507 409.355 286.044C409.529 286.58 409.59 287.147 409.533 287.708C409.398 288.572 409.003 289.375 408.399 290.008C407.795 290.641 407.012 291.074 406.154 291.248C405.595 291.349 405.02 291.326 404.47 291.182C403.92 291.037 403.408 290.775 402.97 290.413C402.532 290.05 402.178 289.597 401.933 289.084C401.688 288.571 401.557 288.011 401.55 287.443ZM428.498 315.343C424.8 316.229 420.914 315.891 417.425 314.38C417.978 312.675 418.022 310.846 417.551 309.116C422.994 308.387 427.933 305.551 431.307 301.219C431.685 300.74 430.934 299.908 430.331 300.446C427.908 302.916 425.122 305.001 422.068 306.626C416.117 309.343 408.678 307.896 406.618 301.173C405.878 298.442 405.561 295.615 405.681 292.788C406.86 292.687 407.98 292.227 408.89 291.47C409.8 290.712 410.455 289.694 410.769 288.552C410.843 288.204 410.897 287.851 410.931 287.497L411.907 287.255C411.433 288.93 411.04 290.627 410.728 292.34C410.483 293.628 409.873 295.688 411.703 296.043C413.294 296.323 414.932 296.005 416.302 295.15C416.438 295.058 416.534 294.919 416.57 294.759C416.607 294.599 416.58 294.432 416.497 294.291C416.414 294.15 416.28 294.046 416.122 294.001C415.965 293.956 415.796 293.972 415.651 294.048C415.073 294.357 414.458 294.591 413.82 294.743C413.192 294.903 412.535 294.903 411.907 294.743C411.559 294.55 411.634 294.094 412.355 290.834C412.64 289.613 412.965 288.392 413.331 287.17C413.936 287.219 414.528 287.37 415.082 287.618C415.048 288.359 415.169 289.099 415.437 289.791C415.705 290.483 416.115 291.112 416.64 291.637C417.165 292.161 417.793 292.571 418.485 292.839C419.178 293.106 419.918 293.227 420.659 293.193C421.858 293.11 423.001 292.659 423.934 291.902C424.866 291.145 425.542 290.118 425.869 288.962C426.044 288.195 426.058 287.399 425.909 286.626C425.76 285.853 425.452 285.12 425.003 284.472C424.555 283.825 423.977 283.279 423.306 282.867C422.634 282.456 421.885 282.189 421.105 282.084C419.851 282.133 418.64 282.554 417.626 283.293C416.611 284.032 415.84 285.056 415.409 286.235C414.889 286.018 414.34 285.881 413.779 285.828C414.145 284.649 414.472 283.511 414.809 282.326C414.93 281.881 414.23 281.554 413.993 282.002C413.37 283.236 412.84 284.515 412.406 285.828C411.898 285.876 411.402 286.014 410.941 286.235C410.759 285.166 410.274 284.173 409.543 283.372C408.813 282.571 407.868 281.996 406.821 281.716C406.996 280.629 407.336 278.85 407.434 278.469C409.68 276.35 418.707 277.222 421.635 277.606C424.699 278.043 427.721 278.737 430.668 279.682C431.503 279.939 431.675 279.939 431.809 280.861C432.113 283.126 432.774 285.329 433.766 287.389C433.184 287.96 433.704 288.583 434.17 288.31C436.042 287.17 437.835 288.962 438.077 290.834C438.153 291.281 438.127 291.739 437.999 292.174C437.871 292.609 437.645 293.009 437.338 293.343C437.032 293.677 436.653 293.937 436.23 294.102C435.808 294.267 435.353 294.333 434.902 294.295C434.796 294.268 434.686 294.265 434.579 294.287C434.473 294.309 434.373 294.355 434.286 294.422C434.2 294.488 434.13 294.573 434.082 294.671C434.034 294.769 434.009 294.876 434.008 294.985C434.103 298.847 435.499 306.673 437.737 309.688C436.693 311.239 435.328 312.547 433.734 313.523C432.139 314.499 430.353 315.119 428.498 315.343ZM416.856 286.729C417.232 285.64 419.822 282.81 422.109 283.964C422.907 284.319 423.57 284.922 423.999 285.683C424.428 286.444 424.601 287.323 424.491 288.19C424.381 289.057 423.995 289.865 423.39 290.495C422.784 291.126 421.992 291.544 421.131 291.689C420.477 291.821 419.8 291.777 419.17 291.561C418.539 291.345 417.977 290.965 417.542 290.46C417.106 289.955 416.814 289.343 416.693 288.688C416.572 288.032 416.629 287.356 416.856 286.729Z" fill="#283D3B"/>
<path d="M396.588 406.549C394.41 410.257 387.766 437.145 387.269 442.689C387.187 443.423 388.328 443.544 388.531 442.852C389.131 440.719 389.819 436.136 391.621 428.689C394.24 417.841 395.682 413.867 396.547 410.7C396.99 409.412 397.335 408.093 397.577 406.753C397.647 406.263 396.83 406.14 396.588 406.549Z" fill="#283D3B"/>
<path d="M430.328 435.446V435.242C430.331 435.136 430.296 435.032 430.229 434.95C430.162 434.868 430.067 434.813 429.963 434.794C429.566 434.114 429.145 433.448 428.701 432.799C428.64 432.704 428.545 432.637 428.435 432.612C428.326 432.586 428.211 432.605 428.115 432.664C428.019 432.722 427.95 432.816 427.922 432.925C427.894 433.034 427.911 433.149 427.967 433.247C428.335 434.019 428.701 434.792 429.067 435.528C427.225 439.675 425.807 443.997 424.833 448.429C424.817 448.49 424.813 448.554 424.822 448.617C424.831 448.68 424.852 448.741 424.884 448.796C424.916 448.851 424.959 448.899 425.009 448.937C425.06 448.976 425.118 449.004 425.18 449.02C425.241 449.036 425.305 449.04 425.368 449.031C425.431 449.022 425.492 449.001 425.547 448.969C425.602 448.937 425.65 448.894 425.688 448.843C425.726 448.793 425.754 448.735 425.771 448.673C426.643 446.268 428.212 440.433 429.8 436.991C432.262 442.019 434.328 447.231 435.98 452.58C436.266 453.272 437.162 452.742 437.08 452.132C435.417 446.35 433.154 440.757 430.328 435.446Z" fill="#283D3B"/>
<path d="M468.505 415.706C467.832 412.743 466.948 409.833 465.858 406.997C465.695 406.59 464.964 406.794 465.044 407.201C465.505 410.886 465.904 410.842 472.769 438.335C473.356 441.311 474.13 444.247 475.087 447.126C475.29 447.654 476.186 447.654 476.145 447.005C475.808 443.761 469.324 418.858 468.505 415.706Z" fill="#283D3B"/>
<path d="M171.36 169.07C169.617 157.758 162.904 146.237 152.151 142.738C141.394 139.953 129.977 141.429 120.282 146.858C106.079 154.794 101.467 168.758 104.858 184.221C109.47 204.975 126.779 218.62 127.16 232.693C124.008 233.743 122.147 239.13 125.329 241.448C124.784 241.846 124.339 242.365 124.03 242.965C123.72 243.565 123.555 244.228 123.547 244.903C123.539 245.578 123.689 246.246 123.984 246.853C124.279 247.46 124.711 247.99 125.247 248.4C124.616 249.042 124.224 249.881 124.136 250.776C124.047 251.672 124.268 252.571 124.76 253.324C125.637 254.407 126.733 255.293 127.975 255.924C129.217 256.555 130.578 256.918 131.97 256.988C135.092 257.705 138.299 257.979 141.498 257.802C149.738 257.165 151.589 252.394 149.269 249.783C149.907 249.434 150.451 248.936 150.855 248.331C151.26 247.727 151.513 247.034 151.593 246.312C151.673 245.589 151.578 244.858 151.315 244.18C151.053 243.501 150.631 242.896 150.085 242.416C151.347 241.058 152.042 239.269 152.027 237.415C152.121 236.942 152.121 236.455 152.027 235.982C151.933 235.509 151.746 235.06 151.478 234.659C151.209 234.258 150.865 233.914 150.463 233.647C150.061 233.38 149.611 233.195 149.138 233.102C150.526 219.841 161.498 211.681 168.226 193.787C171.338 185.944 172.416 177.441 171.36 169.07ZM137.864 173.262C136.739 172.136 136.216 170.172 137.537 169.191C138.516 168.501 139.409 169.518 139.492 170.452C139.478 171.02 139.322 171.574 139.038 172.065C138.753 172.556 138.35 172.968 137.864 173.262ZM137.213 175.662C137.375 175.579 137.499 175.499 137.661 175.42C139.946 177.244 142.728 178.336 145.643 178.553C144.789 181.036 144.137 183.639 143.527 186.162C139.729 201.464 138.017 217.208 138.439 232.968L133.392 232.724C135.132 216.555 134.391 189.649 129.933 177.168C132.45 177.319 134.962 176.799 137.213 175.662ZM167.94 188.889C161.781 209.778 148.546 217.987 147.387 233.414C147.348 233.455 147.266 233.537 147.266 233.578C144.897 233.326 142.522 233.136 140.143 233.007C139.829 220.992 140.757 208.977 142.911 197.153C144.023 190.833 145.546 184.593 147.469 178.471C148.765 178.455 150.035 178.11 151.161 177.47C152.287 176.829 153.232 175.912 153.907 174.807C155.951 170.429 150.152 166.567 146.298 176.844C143.709 176.785 141.204 175.916 139.134 174.361C143.586 170.45 139.963 166.134 137.017 167.563C135.034 168.526 134.159 171.33 136.448 174.158C134.277 175.267 131.826 175.706 129.406 175.42C128.707 173.307 127.554 171.373 126.027 169.755C122.989 167.239 119.399 170.197 120.9 172.724C122.735 174.985 125.347 176.48 128.226 176.916C129.628 181.262 130.609 185.733 131.157 190.267C134.023 209.525 132.174 228.596 132.174 232.551C129.874 232.448 128.852 232.384 128.43 232.43C128.43 219.419 115.271 208.663 108.527 190.715C102.935 175.798 104.33 160.554 116.829 150.993C127.297 142.941 146.107 139.612 156.796 146.76C162.679 151.171 166.85 157.486 168.6 164.628C170.71 172.611 170.481 181.033 167.94 188.889ZM148.162 176.72C148.602 175.711 149.133 174.744 149.748 173.831C152.547 169.791 153.611 173.349 151.551 175.175C150.586 175.995 149.413 176.53 148.162 176.72ZM127.485 175.051C126.039 174.653 124.684 173.976 123.498 173.058C122.969 172.726 122.534 172.263 122.237 171.714C121.923 170.7 123.98 169.325 125.777 171.959C126.441 172.935 127.012 173.97 127.485 175.051Z" fill="#283D3B"/>
<path d="M60.1277 87.5889C60.3981 87.6172 89.8947 88.0215 93.2165 87.9958C96.1802 88.1886 99.1562 88.0521 102.09 87.5889C102.579 87.4267 102.659 86.613 102.09 86.5306C100.795 86.3612 99.4848 86.3345 98.1837 86.4508C90.1368 86.6928 64.4357 85.8353 59.9655 86.4096C59.2239 86.4508 59.4814 87.522 60.1277 87.5889Z" fill="#283D3B"/>
<path d="M60.1277 99.8408C60.2797 99.8408 89.045 100.279 93.2165 100.248C96.1802 100.44 99.1562 100.304 102.09 99.8408C102.579 99.6785 102.659 98.8623 102.09 98.7824C100.795 98.6122 99.4848 98.5846 98.1837 98.7C90.1368 98.9447 64.4357 98.0872 59.9655 98.6588C59.2239 98.7412 59.4814 99.7918 60.1277 99.8408Z" fill="#283D3B"/>
<path d="M214.706 92.4737C214.847 92.4737 243.615 92.9114 247.794 92.8805C250.757 93.0734 253.732 92.9369 256.665 92.4737C257.154 92.3114 257.234 91.4977 256.665 91.4153C255.37 91.2464 254.06 91.2188 252.759 91.3329C244.712 91.5776 219.011 90.7201 214.541 91.2943C213.81 91.3741 214.095 92.4273 214.706 92.4737Z" fill="#283D3B"/>
<path d="M214.705 104.764C214.963 104.793 244.127 105.199 247.794 105.171C250.757 105.364 253.732 105.228 256.665 104.764C257.154 104.602 257.234 103.788 256.665 103.706C255.37 103.537 254.06 103.51 252.758 103.626C244.712 103.868 219.011 103.011 214.54 103.585C213.809 103.626 214.092 104.697 214.705 104.764Z" fill="#283D3B"/>
<path d="M109.694 140.255C106.171 131.823 101.908 123.718 96.9555 116.038C98.4618 116.444 103.135 117.626 103.957 117.871C104.749 118.221 105.618 118.362 106.48 118.278C106.604 118.243 106.716 118.177 106.805 118.086C106.895 117.995 106.96 117.883 106.993 117.759C107.025 117.635 107.025 117.505 106.992 117.382C106.959 117.258 106.895 117.146 106.805 117.055C106.008 116.548 105.101 116.241 104.16 116.161C103.223 115.916 99.5614 115.02 98.6653 114.817C96.4533 114.302 95.1916 113.434 94.4732 115.589C93.4993 118.297 92.7247 121.073 92.1557 123.894C92.1215 124.018 92.1381 124.151 92.2019 124.263C92.2656 124.375 92.3713 124.457 92.4956 124.491C92.6199 124.525 92.7526 124.509 92.8647 124.445C92.9767 124.381 93.0588 124.276 93.093 124.151C94.1251 121.877 94.9691 119.521 95.6165 117.109C100.41 124.713 104.771 132.581 108.679 140.675C108.968 141.231 109.936 140.827 109.694 140.255Z" fill="#197278"/>
<path d="M197.813 122.915C197.599 121.736 196.51 121.836 193.255 121.412C191.378 121.129 189.487 120.952 187.59 120.881C187.476 120.885 187.368 120.929 187.284 121.006C187.2 121.082 187.146 121.186 187.132 121.298C187.117 121.411 187.143 121.525 187.205 121.62C187.267 121.715 187.36 121.786 187.469 121.818C189.893 122.484 192.371 122.933 194.874 123.16C188.207 129.146 181.181 134.719 173.834 139.849C173.265 140.255 173.752 141.19 174.403 140.824C178.489 138.37 182.419 135.665 186.171 132.726C191.934 128.349 195.956 124.486 196.213 124.301C196.051 125.887 195.603 130.772 195.521 131.627C195.311 132.457 195.325 133.327 195.562 134.15C195.629 134.257 195.722 134.345 195.832 134.406C195.943 134.467 196.067 134.5 196.193 134.5C196.319 134.5 196.443 134.467 196.553 134.406C196.664 134.345 196.757 134.257 196.824 134.15C197.056 133.741 197.168 133.276 197.148 132.806C197.393 130.038 197.99 123.654 197.813 122.915Z" fill="#197278"/>
<path d="M209.821 194.181C207.938 192.013 205.885 189.999 203.682 188.158C203.588 188.077 203.468 188.035 203.344 188.039C203.221 188.044 203.103 188.095 203.016 188.182C202.928 188.27 202.877 188.387 202.873 188.51C202.868 188.634 202.911 188.755 202.992 188.848C204.457 190.855 206.105 192.722 207.915 194.426C206.398 194.683 197.481 194.833 195.014 194.791C190.317 194.744 185.622 194.594 180.932 194.343C180.321 194.302 180.159 195.36 180.769 195.443C189.848 196.475 199.001 196.693 208.119 196.094C201.465 202.993 201.65 202.704 201.527 203.304C201.493 203.428 201.492 203.559 201.525 203.683C201.558 203.807 201.623 203.921 201.713 204.012C201.804 204.103 201.917 204.168 202.041 204.201C202.165 204.234 202.296 204.234 202.42 204.2C203.334 203.943 203.414 203.4 208.404 198.095C209.058 197.48 209.661 196.814 210.207 196.102C210.797 195.402 210.351 194.748 209.821 194.181Z" fill="#197278"/>
<path d="M308.68 148.395C302.94 143.943 296.095 141.14 288.881 140.286C281.668 139.433 274.358 140.562 267.737 143.552C267.592 143.485 267.43 143.458 267.271 143.475C267.111 143.491 266.959 143.55 266.83 143.646C266.701 143.741 266.6 143.87 266.538 144.018C266.476 144.165 266.454 144.327 266.476 144.486C269.327 160.908 273.242 177.127 278.197 193.04C278.246 193.192 278.336 193.326 278.458 193.429C278.58 193.531 278.728 193.596 278.886 193.617C279.044 193.639 279.204 193.615 279.349 193.549C279.493 193.483 279.616 193.377 279.703 193.244C310.459 146.863 309.324 149.039 308.68 148.395Z" fill="#197278"/>
<path d="M485.883 111.359C485.574 110.35 485.02 109.434 484.27 108.692C483.52 107.949 482.598 107.405 481.586 107.106C480.574 106.808 479.504 106.765 478.471 106.981C477.438 107.198 476.475 107.667 475.668 108.346C475.267 106.049 476.093 92.0876 475.272 87.7461C475.04 86.5307 474.914 86.523 473.511 86.541C471.984 86.5642 453.925 86.6492 453.853 86.6646C453.299 86.7573 452.895 87.7229 453.812 88.4671C454.337 89.0924 454.717 89.8268 454.924 90.6171C455.131 91.4073 455.159 92.2336 455.007 93.0362C454.855 93.8387 454.526 94.5974 454.045 95.2572C453.563 95.9171 452.941 96.4616 452.223 96.8513C451.468 97.2453 450.635 97.4679 449.784 97.5031C448.933 97.5383 448.085 97.3853 447.3 97.055C446.515 96.7247 445.813 96.2253 445.243 95.5923C444.673 94.9593 444.25 94.2084 444.004 93.3931C443.352 91.0756 445.062 89.3632 445.997 87.4088C446.037 87.3266 446.056 87.2355 446.051 87.144C446.046 87.0526 446.018 86.9639 445.97 86.8864C445.921 86.8089 445.853 86.7452 445.772 86.7014C445.692 86.6576 445.602 86.6352 445.51 86.6363L372.169 86.4741C372.073 86.4737 371.977 86.4924 371.889 86.529C371.8 86.5657 371.719 86.6195 371.651 86.6875C371.583 86.7555 371.529 86.8362 371.493 86.9251C371.456 87.014 371.437 87.1092 371.438 87.2054C371.517 90.3391 371.721 105.277 371.762 109.59C370.928 108.972 369.959 108.56 368.935 108.389C367.912 108.218 366.862 108.293 365.872 108.607C364.883 108.921 363.982 109.465 363.244 110.195C362.506 110.925 361.952 111.82 361.627 112.806C361.041 114.373 360.97 116.086 361.425 117.696C361.879 119.306 362.835 120.729 364.153 121.759C365.289 122.564 366.646 122.996 368.039 122.996C369.431 122.996 370.788 122.564 371.924 121.759C371.924 122.735 372.128 142.189 372.128 142.189C372.13 142.346 372.183 142.499 372.278 142.623C372.374 142.748 372.507 142.839 372.658 142.882C373.523 143.083 395.465 143.047 395.205 143.044C394.118 144.108 393.332 145.441 392.926 146.907C392.663 148.118 392.748 149.379 393.171 150.544C393.593 151.71 394.337 152.732 395.315 153.493C396.293 154.254 397.466 154.724 398.7 154.847C399.933 154.971 401.176 154.744 402.286 154.191C403.307 153.754 404.218 153.095 404.952 152.261C405.686 151.427 406.225 150.44 406.529 149.371C406.833 148.303 406.895 147.18 406.711 146.085C406.526 144.989 406.099 143.949 405.461 143.039C447.889 143.039 445.147 143.297 445.755 142.918C446.2 142.594 445.631 142.146 445.428 141.86C444.738 141.019 444.29 140.007 444.131 138.931C443.973 137.855 444.11 136.757 444.529 135.753C444.947 134.749 445.631 133.879 446.506 133.234C447.382 132.589 448.416 132.195 449.499 132.093C450.375 132.086 451.242 132.268 452.042 132.626C452.842 132.984 453.555 133.51 454.134 134.168C454.83 134.953 455.245 135.947 455.311 136.994C455.378 138.041 455.093 139.08 454.502 139.947C453.85 141.185 452.357 143.096 453.688 143.243C453.688 143.243 474.255 143.098 474.891 143.08C476.276 143.366 476.276 142.836 476.276 142.594C476.276 135.103 475.99 127.659 475.908 120.168C481.04 122.828 487.503 116.988 485.883 111.359ZM481.936 118.237C477.914 121.234 474.69 116.434 474.283 118.685C474.365 126.294 474.407 133.864 474.649 141.476C468.057 141.597 461.503 141.597 454.911 141.597C459.631 136.267 453.109 128.493 446.929 131.137C445.978 131.555 445.125 132.168 444.427 132.938C443.73 133.707 443.202 134.615 442.879 135.602C442.556 136.59 442.446 137.634 442.554 138.667C442.663 139.7 442.988 140.698 443.509 141.597C437.365 141.556 431.219 141.597 425.072 141.476C424.91 134.678 424.789 127.883 424.707 121.134C423.707 122.057 422.443 122.644 421.093 122.812C419.742 122.98 418.373 122.721 417.177 122.071C415.939 121.382 414.897 120.388 414.149 119.184C413.401 117.981 412.972 116.606 412.903 115.19C412.838 114.14 413.012 113.088 413.41 112.114C413.809 111.139 414.422 110.268 415.205 109.563C415.987 108.859 416.919 108.341 417.929 108.046C418.94 107.752 420.004 107.69 421.042 107.865C421.731 107.912 422.402 108.103 423.013 108.426C423.623 108.749 424.159 109.196 424.586 109.739C424.503 102.493 424.421 95.2497 424.3 88.0036C430.853 88.1272 437.404 88.1272 443.999 88.1272C439.441 93.4575 445.992 101.069 452.097 98.4633C455.882 96.9183 458.079 91.5442 455.354 88.1633C461.534 88.1221 467.727 88.2019 473.871 88.0397C474.484 90.4061 472.895 112.865 475.256 110.872C480.751 103.585 488.814 113.105 481.936 118.237Z" fill="#197278"/>
<path d="M307.214 157.145C307.081 157.403 281.979 195.173 282.142 194.913C281.752 195.512 281.199 195.988 280.548 196.285C279.898 196.582 279.176 196.687 278.468 196.589C277.759 196.491 277.094 196.194 276.548 195.731C276.003 195.269 275.6 194.661 275.387 193.978C270.931 179.738 267.303 165.251 264.521 150.592C252.567 156.269 243.285 166.367 238.634 178.757C228.167 208.292 249.467 236.607 281.696 233.09C301.367 230.981 317.903 217.58 321.253 197.967C322.666 190.529 322.114 182.851 319.652 175.692C317.19 168.533 312.903 162.14 307.214 157.145Z" fill="#197278"/>
<path d="M108.049 290.252C106.231 290.527 107.416 292.876 108.791 292.435C109.072 292.33 109.3 292.12 109.429 291.849C109.557 291.578 109.575 291.268 109.479 290.984C109.382 290.7 109.179 290.465 108.912 290.328C108.645 290.192 108.336 290.164 108.049 290.252Z" fill="#283D3B"/>
<path d="M117.225 286.812C117.047 286.874 116.886 286.978 116.756 287.114C116.625 287.251 116.529 287.417 116.475 287.598C116.422 287.779 116.412 287.97 116.446 288.156C116.481 288.341 116.559 288.516 116.674 288.666C116.877 288.883 117.148 289.023 117.443 289.063C117.737 289.103 118.036 289.04 118.289 288.885C118.49 288.707 118.631 288.472 118.694 288.211C118.757 287.951 118.739 287.677 118.642 287.427C118.535 287.158 118.326 286.942 118.061 286.827C117.795 286.712 117.495 286.706 117.225 286.812Z" fill="#283D3B"/>
<path d="M403.157 287.69C402.896 287.797 402.689 288.004 402.58 288.265C402.472 288.525 402.472 288.818 402.579 289.079C402.687 289.34 402.893 289.547 403.154 289.656C403.415 289.764 403.707 289.765 403.968 289.657C405.034 289.314 404.615 287.157 403.157 287.69Z" fill="#283D3B"/>
<path d="M418.179 288.143C418.049 288.195 417.93 288.272 417.83 288.37C417.73 288.468 417.65 288.584 417.595 288.713C417.54 288.842 417.51 288.98 417.509 289.12C417.507 289.26 417.533 289.399 417.585 289.529C417.637 289.659 417.714 289.778 417.812 289.878C417.91 289.978 418.027 290.058 418.156 290.113C418.284 290.169 418.423 290.198 418.563 290.199C418.703 290.201 418.842 290.175 418.972 290.123C420.051 289.688 419.574 287.661 418.179 288.143Z" fill="#283D3B"/>
</svg>
