<svg width="31" height="30" viewBox="0 0 31 30" fill="none" xmlns="http://www.w3.org/2000/svg">
<path d="M3.78219 12.2529C5.17473 12.2529 6.30361 11.162 6.30361 9.81632C6.30361 8.47061 5.17473 7.3797 3.78219 7.3797C2.38965 7.3797 1.26077 8.47061 1.26077 9.81632C1.26077 11.162 2.38965 12.2529 3.78219 12.2529Z" fill="#283D3B"/>
<path d="M2.52142 22.0116H0V15.9201C0 15.2738 0.265685 14.6541 0.738543 14.1971C1.2114 13.7401 1.8527 13.4834 2.52142 13.4834H6.82048L12.2415 18.71L10.4513 20.4278L5.77407 15.9201H2.52142V22.0116Z" fill="#283D3B"/>
<path d="M7.55171 29.3093H5.0303V21.9994H3.76959V29.3093H1.24817V19.5628H7.55171V29.3093Z" fill="#283D3B"/>
<path d="M7.56432 14.6895H1.26077V21.9994H7.56432V14.6895Z" fill="#283D3B"/>
<path d="M20.1713 13.4834H12.607V11.0468C11.5486 10.2797 10.7669 9.21022 10.3724 7.98986C9.97793 6.76951 9.99074 5.46016 10.4091 4.24726C10.8275 3.03436 11.6302 1.97942 12.7035 1.23186C13.7767 0.484298 15.0662 0.0820312 16.3892 0.0820312C17.7122 0.0820313 19.0017 0.484298 20.075 1.23186C21.1482 1.97942 21.9509 3.03436 22.3692 4.24726C22.7876 5.46016 22.8005 6.76951 22.406 7.98986C22.0115 9.21022 21.2297 10.2797 20.1713 11.0468V13.4834ZM15.1285 11.0468H17.6499V9.67013L18.2802 9.31681C19.0013 8.91452 19.5648 8.29358 19.8834 7.55025C20.2021 6.80691 20.258 5.98273 20.0425 5.20557C19.827 4.42841 19.3521 3.74171 18.6916 3.25191C18.0311 2.76212 17.2217 2.49661 16.3892 2.49661C15.5566 2.49661 14.7474 2.76212 14.0868 3.25191C13.4263 3.74171 12.9514 4.42841 12.7359 5.20557C12.5204 5.98273 12.5764 6.80691 12.895 7.55025C13.2136 8.29358 13.7771 8.91452 14.4981 9.31681L15.1285 9.67013V11.0468Z" fill="#283D3B"/>
<path d="M20.1588 14.6895H12.5946V17.1262H20.1588V14.6895Z" fill="#283D3B"/>
<path d="M26.475 12.2529C27.8675 12.2529 28.9964 11.162 28.9964 9.81632C28.9964 8.47061 27.8675 7.3797 26.475 7.3797C25.0824 7.3797 23.9536 8.47061 23.9536 9.81632C23.9536 11.162 25.0824 12.2529 26.475 12.2529Z" fill="#283D3B"/>
<path d="M28.9964 14.6895H23.9536V29.3093H28.9964V14.6895Z" fill="#283D3B"/>
<path d="M30.2571 20.7933H27.7356V15.9201H25.2142V20.7933H22.6928V15.9201C22.6928 15.2738 22.9585 14.6541 23.4314 14.1971C23.9042 13.7401 24.5455 13.4834 25.2142 13.4834H27.7356C28.4044 13.4834 29.0457 13.7401 29.5186 14.1971C29.9915 14.6541 30.2571 15.2738 30.2571 15.9201V20.7933Z" fill="#283D3B"/>
</svg>
