<svg width="521" height="521" viewBox="0 0 521 521" fill="none" xmlns="http://www.w3.org/2000/svg">
<path d="M484.241 275.434C481.876 252.307 473.962 218.825 441.696 206.923C429.617 222.256 405.513 211.812 399.234 201.406C386.605 221.151 365.145 239.676 350.953 263.665C344.105 275.252 335.844 288.892 344.225 301.615C369.438 299.302 394.807 299.246 420.03 301.448C427.824 287.918 428.736 282.916 428.627 270.969C428.627 269.701 430.45 269.146 430.612 270.693C431.823 281.546 429.363 292.492 423.625 301.784C426.722 301.98 429.797 302.435 432.818 303.144C435.423 303.774 434.657 305.553 432.357 305.332C403.983 302.603 375.414 302.554 347.03 305.186C356.057 316.622 355.58 323.572 353.337 335.404C368.212 345.608 422.63 359.11 447.117 351.657C469.629 344.806 487.023 302.646 484.241 275.434Z" fill="#197278"/>
<path d="M254.456 227.503C240.52 219.065 211.14 216.84 194.943 225.481C191.449 239.327 179.774 255.855 174.001 261.094C165.433 259.01 150.522 252.031 144.95 241.33C120.203 249.236 96.0073 286.87 88.8565 312.116C78.9289 301.672 59.7691 274.497 55.773 265.267C47.3363 271.017 37.6711 274.713 27.5505 276.06C35.4019 330.765 71.1608 381.07 96.5335 379.186C116.759 377.683 129.849 356.278 137.57 342.029C132.85 336.768 128.771 330.966 125.418 324.745C124.738 323.468 125.678 321.051 127.257 323.09C158.256 363.207 201.551 387.809 259.07 391.117C230.298 351.902 220.534 266.132 254.456 227.503Z" fill="#197278"/>
<path d="M174.921 194.372C182.9 193.307 183.413 180.951 176.629 177.273C177.681 170.253 178.069 163.15 177.789 156.058C177.406 145.982 171.828 141.538 162.601 140.467C154.467 139.517 146.863 135.941 140.944 130.281C130.688 120.479 131.456 135.924 140.944 142.655C132.259 141.688 123.806 139.231 115.956 135.392C110.569 132.157 107.946 133.267 109.1 137.948C109.659 140.356 110.743 142.612 112.274 144.553C113.805 146.495 115.745 148.075 117.957 149.181C109.133 150.345 100.167 149.751 91.5736 147.435C84.1702 145.351 80.544 146.036 84.4228 152.492C87.6119 157.12 91.7404 161.026 96.5394 163.952C101.338 166.879 106.7 168.762 112.275 169.479C125.053 170.872 138.823 167.291 153.716 161.536C155.478 169.938 160.145 177.451 166.897 182.754C167.697 183.387 168.843 183.488 169.242 182.329C171.612 175.296 180.719 182.329 177.275 188.912C176.075 191.207 174.353 191.046 172.68 191.064C171.008 191.082 171.557 192.093 171.797 193.601C172.774 199.777 183.369 223.394 187.922 227.393C189.008 228.347 190.022 227.096 189.355 226.015C183.223 216.121 178.372 205.489 174.921 194.372Z" fill="#052F20"/>
<path d="M130.096 176.465C128.821 176.666 127.62 177.197 126.615 178.007C125.609 178.816 124.833 179.876 124.365 181.079C123.511 183.314 124.678 184.278 126.202 182.311C127.546 180.891 129.22 179.824 131.076 179.206C132.595 178.599 132.725 176.041 130.096 176.465Z" fill="#052F20"/>
<path d="M126.989 188.985C126.587 190.126 127.51 190.676 128.497 189.832C129.043 189.362 129.682 189.012 130.372 188.806C131.063 188.6 131.789 188.542 132.503 188.636C133.92 188.636 134.022 187.438 132.889 186.797C132.368 186.497 131.788 186.316 131.189 186.266C130.591 186.216 129.989 186.298 129.426 186.507C128.862 186.716 128.352 187.046 127.931 187.475C127.51 187.903 127.188 188.418 126.989 188.985Z" fill="#052F20"/>
<path d="M148.774 182.754C148.216 182.405 147.589 182.181 146.936 182.096C146.284 182.011 145.62 182.067 144.991 182.26C144.362 182.453 143.782 182.78 143.29 183.217C142.798 183.654 142.405 184.192 142.139 184.793C141.733 185.898 142.462 186.466 143.181 185.953C144.619 184.897 146.36 184.336 148.144 184.353C149.05 184.241 149.952 183.392 148.774 182.754Z" fill="#052F20"/>
<path d="M146.807 204.081C145.875 204.62 145.765 206.048 147.563 205.626C153.593 204.193 156.878 200.601 154.492 196.084C153.807 194.781 151.939 195.862 152.525 197.167C154.404 201.34 149.061 202.776 146.807 204.081Z" fill="#052F20"/>
<path d="M146.922 173.652C145.523 172.973 143.975 172.659 142.422 172.739C140.87 172.82 139.362 173.292 138.042 174.113C137.789 174.307 137.611 174.583 137.538 174.893C137.466 175.203 137.503 175.529 137.643 175.815C137.784 176.101 138.02 176.329 138.31 176.461C138.6 176.593 138.927 176.62 139.235 176.538C141.476 175.65 143.899 175.316 146.297 175.564C147.875 175.838 148.514 174.561 146.922 173.652Z" fill="#052F20"/>
<path d="M136.182 187.716C135.509 190.353 134.454 198.887 137.633 199.759C139.289 200.215 144.228 198.272 143.259 196.578C142.501 195.258 138.964 197.772 138.516 197.021C137.604 193.983 137.366 190.783 137.818 187.643C137.854 186.192 136.89 184.929 136.182 187.716Z" fill="#052F20"/>
<path d="M295.089 236.677C294.816 230.574 287.735 222.631 281.924 222.595C280.564 222.595 279.517 224.58 280.882 224.939C283.85 225.731 286.555 227.298 288.72 229.478C290.884 231.659 292.43 234.375 293.201 237.349C293.651 238.933 295.199 239.16 295.089 236.677Z" fill="#052F20"/>
<path d="M300.096 227.484C298.189 219.318 289.066 215.853 281.4 216.895C272.704 218.078 265.457 224.082 259.888 230.701C253.967 237.735 259.132 248.864 247.754 253.461C245.149 254.503 246.173 256.311 248.819 255.504C262.592 251.294 257.332 237.3 262.407 232.392C267.481 227.484 272.85 222.115 280.15 220.349C287.449 218.583 295.076 221.313 298.056 228.383C298.614 229.73 300.424 228.92 300.096 227.484Z" fill="#052F20"/>
<path d="M286.078 240.944C287.178 243.289 288.798 242.434 288.194 240.163C286.735 234.651 281.736 226.836 274.973 227.625C273.614 227.784 273.851 229.891 274.973 230.199C282.796 232.324 284.344 237.217 286.078 240.944Z" fill="#052F20"/>
<path d="M267.601 232.947C266.15 233.184 265.762 235.453 267.601 235.521C270.056 235.489 272.452 236.278 274.407 237.764C276.363 239.249 277.766 241.345 278.394 243.719C279.092 245.136 280.217 245.136 280.233 243.224C280.262 237.597 273.595 231.965 267.601 232.947Z" fill="#052F20"/>
<path d="M26.0865 239.639C22.8953 227.226 22.2259 223.488 22.4108 215.553C22.4525 213.714 20.8113 214.154 20.1861 216.564C18.8423 224.803 20.1284 233.256 23.8618 240.723C24.5261 242.046 26.4381 240.999 26.0865 239.639Z" fill="#052F20"/>
<path d="M15.1663 224.728C15.1663 222.613 13.1084 223.551 13.051 224.892C12.8156 235.281 15.6353 245.51 21.1604 254.311C24.3145 259.709 26.7383 265.502 28.3684 271.537C28.8452 273.228 30.9344 273.504 30.6661 270.178C29.536 263.846 27.1709 257.799 23.7055 252.38C18.6364 244.002 15.7041 234.506 15.1663 224.728Z" fill="#052F20"/>
<path d="M51.4956 228.719C50.2426 226.552 48.7421 228.102 49.6591 229.761C55.5881 240.421 42.7506 253.93 51.4956 263.775C51.714 263.974 51.9936 264.093 52.2885 264.112C52.5834 264.131 52.8761 264.05 53.1184 263.88C53.3608 263.711 53.5385 263.465 53.6223 263.182C53.7061 262.898 53.6911 262.595 53.5796 262.321C47.8695 251.383 57.732 239.501 51.4956 228.719Z" fill="#052F20"/>
<path d="M38.3508 215.433C38.3248 214.22 36.767 213.115 36.2929 215.433C35.3837 219.862 35.9073 233.088 38.7728 236.761C38.938 236.963 39.1647 237.105 39.4184 237.167C39.6722 237.228 39.939 237.205 40.1784 237.101C40.4178 236.997 40.6167 236.818 40.7448 236.59C40.8729 236.363 40.9232 236.1 40.8881 235.841C39.4303 229.129 38.5811 222.298 38.3508 215.433Z" fill="#052F20"/>
<path d="M30.812 212.169C30.812 210.81 29.249 210.646 28.754 212.169C26.7898 218.354 27.514 231.431 31.161 237.177C31.9425 238.425 34.1151 237.915 33.766 236.276C31.5353 228.443 30.5386 220.31 30.812 212.169Z" fill="#052F20"/>
<path d="M336.162 306.609C337.522 307.163 337.884 305.017 337.082 304.264C332.429 299.854 318.696 299.262 311.782 304.449C311.523 304.589 311.328 304.823 311.238 305.103C311.147 305.383 311.168 305.687 311.296 305.952C311.423 306.217 311.648 306.423 311.924 306.526C312.199 306.629 312.504 306.622 312.775 306.507C324.56 301.891 330.663 304.381 336.162 306.609Z" fill="#052F20"/>
<path d="M325.977 326.823C338.033 324.836 339.072 328.141 342.873 328.404C343.222 328.433 343.569 328.324 343.838 328.099C344.107 327.874 344.277 327.553 344.311 327.204C344.6 324.002 332.184 321.389 325.221 324.802C323.848 325.474 324.653 327.042 325.977 326.823Z" fill="#052F20"/>
<path d="M319.008 321.014C331.351 317.187 335.542 319.605 342.432 321.491C343.808 321.869 344.162 319.834 343.24 319.084C338.392 315.122 325.005 315.161 318.292 318.972C317.096 319.652 317.518 321.475 319.008 321.014Z" fill="#052F20"/>
<path d="M315.33 314.577C326.365 311.225 331.254 312.842 338.626 314.056C338.915 314.1 339.209 314.05 339.466 313.912C339.723 313.774 339.928 313.556 340.05 313.292C340.172 313.027 340.205 312.73 340.144 312.445C340.083 312.16 339.93 311.903 339.71 311.712C334.99 307.604 319.933 308.135 314.337 312.577C313.121 313.551 313.934 315.002 315.33 314.577Z" fill="#052F20"/>
<path d="M496.539 147.617C490.78 150.471 484.365 151.741 477.952 151.296C471.021 164.79 460.825 188.308 442.329 185.997C436.28 185.244 432.855 180.597 429.239 176.252C428.244 175.058 427.131 176.147 427.676 177.32C429.639 181.513 432.614 185.153 436.335 187.909C434.496 191.816 432.657 202.158 433.503 205.982C433.552 206.217 433.68 206.427 433.866 206.578C434.052 206.728 434.284 206.811 434.523 206.811C434.762 206.811 434.994 206.728 435.18 206.578C435.366 206.427 435.494 206.217 435.543 205.982C435.665 204.178 435.942 202.388 436.371 200.632C448.782 203.206 464.961 211.833 473.769 226.205C499.655 220.69 501.934 191.897 487.244 181.014C505.237 176.429 504.539 153.796 496.539 147.617Z" fill="#052F20"/>
<path d="M452.416 160.431C454.5 160.976 456.584 156.204 454.859 155.12C452.567 153.695 449.579 159.686 452.416 160.431Z" fill="#052F20"/>
<path d="M464.844 166.199C466.389 166.295 468.103 163.164 467.694 161.932C466.511 158.384 461.187 165.975 464.844 166.199Z" fill="#052F20"/>
<path d="M468.963 154.365C470.259 155.139 471.276 156.304 471.867 157.694C472.216 158.944 473.907 159.348 473.889 157.123C473.781 155.962 473.353 154.853 472.652 153.921C471.951 152.989 471.005 152.271 469.919 151.846C467.947 151.106 466.313 152.809 468.963 154.365Z" fill="#052F20"/>
<path d="M458.868 149.991C461.239 150.772 461.994 148.738 460.119 147.36C458.689 146.476 457.034 146.026 455.354 146.062C453.674 146.098 452.04 146.619 450.649 147.563C449.766 148.501 450.246 149.402 451.431 149.217C453.928 148.657 456.54 148.929 458.868 149.991Z" fill="#052F20"/>
<path d="M440.649 169.065C440.466 170 440.475 170.964 440.673 171.896C440.871 172.829 441.255 173.712 441.803 174.493C442.35 175.274 443.049 175.936 443.859 176.441C444.668 176.945 445.571 177.281 446.513 177.429C446.641 177.519 446.789 177.577 446.944 177.6C447.099 177.622 447.257 177.609 447.406 177.56C447.554 177.511 447.69 177.428 447.801 177.318C447.912 177.208 447.997 177.073 448.047 176.925C448.097 176.777 448.113 176.619 448.092 176.463C448.071 176.308 448.014 176.16 447.925 176.031C447.837 175.901 447.72 175.794 447.584 175.718C447.447 175.641 447.294 175.597 447.138 175.59C446.508 175.432 445.917 175.148 445.401 174.753C444.885 174.359 444.456 173.863 444.139 173.297C443.821 172.73 443.623 172.105 443.557 171.459C443.49 170.813 443.556 170.161 443.751 169.541C444.546 164.993 441.167 165.912 440.649 169.065Z" fill="#052F20"/>
<path d="M457.93 172.899C460.1 171.87 462.033 163.445 460.944 162.325C459.259 160.593 459.121 167.955 456.716 170.049C455.674 170.95 454.372 168.356 453.041 169.13C451.407 170.078 454.971 174.298 457.93 172.899Z" fill="#052F20"/>
<path d="M323.715 409.118C321.418 411.142 325.211 413.836 327.391 412.426C353.441 395.603 381.851 413.106 375.305 443.001C375.096 443.64 375.146 444.335 375.443 444.938C375.74 445.541 376.262 446.003 376.896 446.227C377.529 446.451 378.226 446.417 378.835 446.134C379.445 445.851 379.92 445.341 380.158 444.713C393.503 411.095 350.516 385.472 323.715 409.118Z" fill="#052F20"/>
<path d="M381.869 399.464C359.81 379.926 314.374 378.558 291.476 397.921C243.283 438.679 287.516 507.107 348.692 495.143C395.027 486.093 416.644 430.252 381.869 399.464ZM354.843 488.25C303.688 504.781 250.382 451.16 289.481 406.875C309.315 384.404 354.27 383.453 377.089 402.095C408.782 427.983 392.878 475.957 354.843 488.25Z" fill="#052F20"/>
<path d="M430.481 150.569C431.297 153.049 431.263 153.882 434.728 151.71C440.136 148.323 445.317 145.33 448.571 134.392C454.013 140.202 460.976 144.368 468.668 146.417C476.361 148.466 484.473 148.315 492.084 145.982C507.803 141.126 522.256 105.018 481.404 102.444C482.764 80.8774 446.286 80.7315 442.243 98.0678C429.114 88.5803 412.825 96.2443 410.673 104.705C423.544 139.823 412.512 174.386 403.319 193.103C400.745 198.345 404.101 197.532 404.882 195.99C410.785 184.186 415.396 172.599 423.638 162.013C425.076 160.166 423.805 159.457 422.242 158.723C421.667 158.391 421.166 157.947 420.768 157.416C420.369 156.886 420.083 156.28 419.924 155.636C419.766 154.992 419.74 154.322 419.847 153.668C419.954 153.013 420.193 152.387 420.549 151.827C422.682 146.956 428.898 145.773 430.481 150.569Z" fill="#052F20"/>
<path d="M163.448 209.945C162.036 212.413 160.077 214.525 157.721 216.118C155.366 217.712 152.677 218.745 149.86 219.138C128.864 221.693 123.928 191.23 120.7 176.705C120.166 174.295 118.66 175.6 118.861 176.965C120.387 193.09 126.785 223.941 148.279 222.436C149.243 228.232 149.41 234.133 148.774 239.975C148.631 241.39 150.118 242.807 151.22 239.79C152.564 236.114 152.416 226.765 151.624 221.883C154.508 221.129 157.202 219.777 159.53 217.914C161.858 216.052 163.769 213.721 165.139 211.073C165.899 209.609 164.211 208.66 163.448 209.945Z" fill="#052F20"/>
<path d="M282.679 383.836C295.55 381.231 329.923 369.801 339.95 361.113C341.583 359.696 339.728 356.7 337.743 357.656C312.475 369.806 300.971 372.364 275.434 379.994C247.415 341.622 235.221 295.472 269.055 248.611C270.805 246.186 267.25 243.948 265.377 246.331C235.81 283.987 235.94 331.843 267.674 378.707C272.671 386.084 273.004 385.8 282.679 383.836Z" fill="#052F20"/>
<path d="M149.436 60.5246C205.032 25.008 272.322 18.4486 332.375 47.1505C399.698 79.3353 424.279 133.311 384.076 200.507C368.05 227.289 331.518 260.015 326.878 287.673C326.357 290.76 330.577 291.979 331.124 288.848C335.636 263.014 369.238 232.754 384.553 209.135C426.845 143.885 412.728 85.9337 344.957 48.242C284.45 14.601 203.357 15.63 147.443 57.9691C145.359 59.5529 146.992 62.0876 149.436 60.5246Z" fill="#052F20"/>
<path d="M309.852 146.294C328.905 166.751 317.844 195.047 297.663 210.13C295.475 211.766 298.085 214.965 300.528 213.162C320.918 198.141 333.612 170.88 317.737 147.748C295.464 115.3 245.464 121.786 214.777 147.227C195.917 126.843 167.762 92.6754 151.074 69.9937C149.345 67.6492 146.974 69.4049 148.923 72.0777C165.48 94.9053 190.209 127.59 209.247 149.295C212.758 153.302 213.745 154.385 218.033 150.988C242.963 131.248 285.089 119.705 309.852 146.294Z" fill="#052F20"/>
<path d="M367.508 92.2586C335.342 46.4419 258.208 31.8982 209.392 57.4923C208.723 57.798 208.203 58.3565 207.945 59.0454C207.688 59.7343 207.714 60.4973 208.018 61.1669C208.323 61.8365 208.88 62.3581 209.568 62.6171C210.257 62.8762 211.02 62.8515 211.69 62.5486C271.537 39.6585 320.84 56.4477 364.163 95.4029C366.758 97.737 369.649 95.3117 367.508 92.2586Z" fill="#052F20"/>
<path d="M342.745 352.102C345.59 357.07 349.841 354.447 346.843 349.677C343.844 344.907 340.653 339.653 337.449 334.711C336.256 332.869 333 334.711 334.083 336.696C336.919 341.86 339.806 346.996 342.745 352.102Z" fill="#052F20"/>
</svg>
