<svg width="307" height="307" viewBox="0 0 307 307" fill="none" xmlns="http://www.w3.org/2000/svg">
<path d="M84.4493 100.363C83.6925 97.1673 78.7698 93.9545 80.1896 81.0037C81.8306 66.2601 91.4581 58.1092 105.856 58.5927C103.263 59.1205 100.772 60.0634 98.4792 61.3849C97.9081 61.5476 93.6501 61.1194 93.4966 62.0971C93.3431 63.0749 95.2894 63.1164 95.8497 63.1164C94.4922 64.1675 93.2565 65.3671 92.1657 66.6929C90.6625 66.5539 89.1483 66.5879 87.6528 66.7942C87.5664 66.8185 87.4857 66.8596 87.4151 66.9151C87.3446 66.9706 87.2857 67.0394 87.2418 67.1177C87.1979 67.1959 87.1699 67.2821 87.1593 67.3712C87.1487 67.4603 87.1557 67.5506 87.18 67.637C87.3688 68.3078 88.032 68.1543 90.8211 68.4766C90.1598 69.4493 89.5728 70.4704 89.065 71.5313C87.4134 71.6326 85.7632 71.7047 84.1223 71.8567C83.6941 71.8567 82.2803 73.2842 86.4555 73.4162L88.2085 73.4669C87.6988 74.8166 87.3199 76.2122 87.0772 77.6344C85.5955 77.663 84.1164 77.7686 82.6456 77.9506C81.4422 78.1747 82.1452 79.9876 86.8024 79.6622C86.6658 81.0162 86.6043 82.3767 86.6182 83.7376C85.7525 83.7376 81.5957 83.1973 81.5251 84.4713C81.4545 85.7454 85.0402 85.6533 86.6182 85.7546L86.8945 89.4232C85.5898 89.5859 84.2758 89.7179 82.9818 89.9221C82.3095 90.0249 82.3678 91.0733 84.0011 91.3189C85.0651 91.4049 86.1335 91.4249 87.2 91.3788C87.4323 92.6814 87.7922 93.9581 88.2745 95.1902L85.8599 95.3023C85.8599 95.3023 83.2627 95.5663 85.0756 96.7897C86.4321 97.2915 87.8918 97.4497 89.3244 97.2502C90.0944 98.5075 91.1393 99.5739 92.3806 100.369C93.0836 100.807 94.0691 99.9303 93.3999 99.2472C87.9491 93.3375 87.2261 81.4673 90.0382 74.2037C95.1329 60.9582 112.342 56.0569 121.532 63.4848C121.721 63.6135 121.949 63.6704 122.176 63.6454C122.403 63.6203 122.614 63.5149 122.77 63.3481C122.927 63.1813 123.018 62.9642 123.028 62.736C123.038 62.5077 122.967 62.2833 122.826 62.1033C119.546 58.4546 114.297 57.4875 109.815 56.8843C98.4132 55.3662 87.8785 58.209 81.8152 68.8051C77.4543 76.3957 76.1603 88.1645 79.9732 96.3154C82.707 102.013 84.7087 101.464 84.4493 100.363Z" fill="#197278"/>
<path d="M126.765 96.4812C126.318 97.3884 127.497 99.0492 129.015 96.6945C133.56 89.6243 133.244 75.5023 127.446 68.3891C127.07 67.9286 125.877 68.8082 126.183 69.2963C131.176 77.2446 131.396 87.067 126.765 96.4812Z" fill="#197278"/>
<path d="M118.765 85.5074C118.639 86.8124 118.161 88.0589 117.384 89.1146C114.049 84.8627 110.723 80.6066 107.406 76.3465C109.373 75.0525 110.667 75.3288 112.868 74.9404C112.981 74.9189 113.089 74.8753 113.185 74.812C113.281 74.7488 113.363 74.6672 113.428 74.5719C113.492 74.4766 113.537 74.3695 113.56 74.2568C113.583 74.1441 113.584 74.0279 113.562 73.915C113.342 72.7684 109.815 71.786 105.868 74.4108C105.389 73.8613 104.849 73.3363 104.37 72.8313C103.891 72.3263 102.923 72.8313 103.259 73.5558C103.6 74.2639 103.996 74.9449 104.441 75.5928C95.352 84.7629 107.182 99.8934 117.106 92.6313C119.144 95.5478 120.469 94.6682 120.346 93.4157C120.091 92.4869 119.583 91.6472 118.879 90.9904C120.2 89.5301 120.989 87.667 121.12 85.7023C121.146 85.3901 121.047 85.0803 120.844 84.8412C120.642 84.6022 120.352 84.4533 120.04 84.4275C119.728 84.4016 119.418 84.5009 119.179 84.7034C118.94 84.9059 118.791 85.1951 118.765 85.5074ZM115.708 90.8154C108.37 96.1956 99.498 84.8043 105.914 77.662C105.752 77.662 105.566 77.2107 115.708 90.8154Z" fill="#197278"/>
<path d="M182.05 155.262C157.337 109.212 80.1602 107.37 48.9659 141.068C38.7766 135.148 22.8418 135.178 20.1309 137.624C17.6442 139.876 19.8562 158.002 24.4289 166.942C26.1829 163.309 28.7994 160.161 32.0502 157.772C32.5706 157.425 33.0695 158.179 32.7026 158.587C22.6161 169.091 17.939 187.906 25.0614 203.601C47.1976 190.739 73.6794 201.392 72.8428 217.76C72.1199 231.873 58.793 235.815 50.9676 236.601C64.6214 244.11 76.6635 246.973 77.0825 247.941C79.405 253.423 80.7911 261.104 85.8044 268.951C91.4378 269.856 102.106 269.968 106.254 268.951C109.238 261.308 111.276 248.572 111.654 243.163C111.654 242.694 112.575 242.47 112.671 243.072C113.054 245.598 113.013 248.17 112.55 250.683C122.697 249.682 132.468 246.318 141.08 240.859C141.436 240.654 141.803 241.186 141.619 241.531C140.458 243.743 133.907 247.105 131.532 248.174C131.868 249.071 130.151 266.178 129.199 268.756C134.079 269.694 145.206 269.878 151.289 268.195C156.536 266.739 169.017 242.998 173.7 232.534C169.812 207.337 171.35 200.969 182.05 155.262ZM22.4887 140.884C19.5123 139.349 20.8278 138.592 23.3038 139.539C28.1436 141.394 38.2823 150.898 40.7583 154.823C41.3723 155.772 39.8618 156.77 39.1588 155.933C35.3044 151.298 27.8351 143.641 22.4887 140.884ZM40.3607 189.557C38.2317 189.781 37.3659 182.957 40.1566 182.567C42.4805 182.231 42.2871 189.355 40.3607 189.557ZM41.053 173.142C38.5694 173.816 37.6299 175.445 36.5508 177.34C36.1118 178.094 34.2775 177.87 35.5316 174.844C36.4324 172.819 38.0886 171.225 40.1473 170.402C40.3307 170.328 40.5274 170.292 40.7252 170.297C40.923 170.302 41.1177 170.347 41.2972 170.43C41.4767 170.513 41.6373 170.632 41.769 170.78C41.9007 170.928 42.0006 171.101 42.0627 171.289C42.1248 171.477 42.1477 171.675 42.13 171.872C42.1122 172.069 42.0542 172.261 41.9596 172.434C41.8649 172.608 41.7356 172.76 41.5797 172.882C41.4238 173.004 41.2445 173.092 41.053 173.142ZM61.9612 189.516C59.9228 189.085 60.5659 182.578 63.1739 183.077C65.7818 183.575 64.0596 189.961 61.9612 189.516ZM72.0692 173.276C71.3017 171.644 70.0307 168.924 64.9975 168.282C63.8263 168.14 63.0925 165.519 67.0359 166.245C68.59 166.434 70.0489 167.095 71.2165 168.137C72.3841 169.18 73.2045 170.555 73.5674 172.078C73.7915 173.621 72.9672 175.171 72.0692 173.276ZM80.7496 226.666C80.2093 226.777 80.0067 225.882 80.5056 225.647C86.1191 222.591 85.9456 217.404 82.6546 212.656C81.9009 211.557 83.7291 210.242 84.5503 211.275C88.7485 216.569 88.308 225.113 80.7496 226.666ZM101.25 150.788C98.1796 147.741 90.8883 139.783 81.7796 138.153C85.855 142.708 90.6442 161.751 89.4546 168.069C89.4127 168.216 89.3239 168.346 89.2016 168.438C89.0793 168.531 88.9302 168.581 88.7769 168.581C88.6236 168.581 88.4746 168.531 88.3523 168.438C88.23 168.346 88.1411 168.216 88.0992 168.069C86.9587 160.641 84.7468 143.553 79.5032 138.806C74.2673 139.825 66.2577 151.776 63.355 156.291C62.936 156.952 61.7233 156.495 62.0503 155.731C64.7317 149.91 68.5905 144.708 73.3832 140.453C77.9283 136.285 80.8525 135.439 86.9756 137.926C92.2636 140.028 96.9653 143.377 100.68 147.687C102.605 149.984 102.077 151.606 101.25 150.788ZM93.2921 131.002C90.2359 129.774 87.7492 128.107 84.6623 127.078C94.5769 122.381 114.976 121.74 125.082 123.216C128.591 124.368 131.814 126.255 134.538 128.75C124.878 127.527 107.466 127.272 93.2921 131.002Z" fill="#197278"/>
<path d="M129.515 248.939C126.55 250.09 115.475 253.014 112.386 252.162C111.817 256.371 110.349 265.122 108.311 268.608C114.736 269.459 121.245 269.459 127.67 268.608C128.83 262.114 129.447 255.535 129.515 248.939Z" fill="#197278"/>
<path d="M70.7247 216.395C70.7247 207.225 59.4148 199.357 44.7525 199.949C26.0961 200.717 20.0743 208.031 20.1357 216.784C20.2063 226.849 29.0203 234.674 43.8253 235.184C58.6304 235.693 70.7247 230.548 70.7247 216.395ZM33.6253 223.67C28.1453 224.634 26.9004 213.816 31.9045 212.371C36.4788 211.047 39.0975 222.707 33.6253 223.67ZM55.6648 223.843C50.1633 223.548 51.6508 211.677 56.7746 212.553C60.9836 213.278 61.157 224.138 55.6648 223.843Z" fill="#197278"/>
<path d="M51.1305 238.668C54.047 246.421 63.0421 267.655 65.7821 268.42C69.0839 269.341 77.5709 269.54 83.1951 268.604C80.6378 264.834 76.6545 253.32 75.7274 249.082C71.5307 248.847 55.2597 241.379 51.1305 238.668Z" fill="#197278"/>
<path d="M87.8611 111.01C90.073 112.21 95.1876 112.172 94.3925 110.47C93.843 109.298 90.8467 111.194 87.3622 109.278C86.7712 108.962 85.6614 109.816 87.8611 111.01Z" fill="#283D3B"/>
<path d="M92.3865 108.931C92.4877 108.843 92.5639 108.729 92.6074 108.602C92.6509 108.475 92.6603 108.338 92.6345 108.206C92.6087 108.074 92.5486 107.952 92.4604 107.85C92.3721 107.749 92.2588 107.672 92.1317 107.628C91.1124 107.353 89.8798 108.453 85.7829 106.093C85.0998 105.696 84.4183 106.746 86.4859 108.132C88.0255 109.085 91.1216 109.839 92.3865 108.931Z" fill="#283D3B"/>
<path d="M119.152 68.0221C118.927 68.3061 119.071 68.8587 119.508 68.8081C121.332 68.5932 122.566 67.4619 126.642 67.1671C126.887 67.1671 127.123 67.0695 127.297 66.8956C127.471 66.7217 127.569 66.4859 127.569 66.24C127.569 65.9941 127.471 65.7583 127.297 65.5844C127.123 65.4105 126.887 65.3129 126.642 65.3129C124.471 65.4556 120.488 66.3444 119.152 68.0221Z" fill="#283D3B"/>
<path d="M114.068 56.4283C116.4 56.1342 118.768 56.4596 120.934 57.3718C123.1 58.284 124.988 59.7507 126.407 61.6243C127.813 63.3558 129.016 62.0725 127.426 60.0647C125.101 57.2539 121.755 55.4807 118.124 55.1343C113.569 54.706 113.193 56.5312 114.068 56.4283Z" fill="#283D3B"/>
<path d="M90.3372 113.701C93.7895 114.613 97.4303 114.52 100.832 113.435C104.725 112.13 103.472 110.44 102.636 110.552C101.535 110.694 100.18 112.987 90.5214 112.589C90.393 112.601 90.272 112.655 90.1774 112.742C90.0829 112.83 90.0201 112.947 89.999 113.074C89.9779 113.201 89.9997 113.332 90.0609 113.445C90.1222 113.559 90.2193 113.648 90.3372 113.701Z" fill="#283D3B"/>
<path d="M98.183 101.453C100.22 103.493 101.373 102.187 99.9053 100.434C98.2533 98.8807 97.1034 96.8691 96.6035 94.6575C96.4408 94.0865 94.7492 93.4541 95.5858 96.9493C96.0429 98.6518 96.9384 100.205 98.183 101.453Z" fill="#283D3B"/>
<path d="M96.6955 102.738C97.0117 101.817 95.7883 101.382 95.2388 102.044C92.6093 105.243 88.1072 104.082 85.1078 103.063C84.4861 102.839 84.1868 103.654 84.6473 104.082C87.8217 106.761 95.3999 106.506 96.6955 102.738Z" fill="#283D3B"/>
<path d="M131.053 64.3949C135.669 70.8757 145.573 86.0676 152.074 89.9603C152.19 90.0263 152.326 90.0486 152.457 90.0233C152.589 89.998 152.706 89.9267 152.79 89.8222C152.873 89.7177 152.917 89.5868 152.912 89.4532C152.908 89.3195 152.856 89.1918 152.766 89.093C144.38 80.1578 138.879 72.1896 131.798 62.2965C130.779 60.8183 130.034 60.608 129.831 62.3472C129.582 64.092 129.13 65.8017 128.485 67.4419C127.936 69.1027 130.115 68.9707 131.053 64.3949Z" fill="#283D3B"/>
<path d="M132.591 89.1653C133.611 91.3357 135.7 94.8094 137.767 96.0328C137.878 96.1139 138.013 96.1533 138.15 96.1441C138.287 96.1349 138.416 96.0778 138.515 95.9827C138.613 95.8877 138.675 95.7608 138.69 95.6245C138.704 95.4882 138.67 95.3512 138.593 95.2377C137.075 92.7925 135.964 92.4056 134.191 88.5436C134.151 88.4374 134.09 88.3403 134.012 88.2577C133.935 88.1751 133.841 88.1088 133.738 88.0626C133.634 88.0163 133.522 87.9911 133.409 87.9883C133.296 87.9855 133.183 88.0052 133.077 88.0463C132.971 88.0874 132.875 88.1491 132.793 88.2277C132.711 88.3063 132.646 88.4004 132.601 88.5045C132.556 88.6085 132.531 88.7205 132.53 88.8339C132.528 88.9473 132.549 89.06 132.591 89.1653Z" fill="#283D3B"/>
<path d="M106.854 112.864C114.683 116.719 142.201 116.177 156.72 114.006C166.818 112.497 182.254 110.063 190.659 104.388C191.107 104.072 190.771 103.277 190.231 103.481C177.271 108.575 172.615 109.595 158.849 111.785C138.127 115.056 112.316 114.22 107.557 111.642C104.501 110.012 103.747 105.825 103.829 102.574C132.756 103.755 151.167 95.9607 168.019 87.2911C176.752 82.8396 185.147 75.8277 198.434 77.8662C223.301 81.676 232.709 127.944 232.23 142.27C230.824 147.182 201.806 155.067 185.566 151.043C188.297 137.688 185.984 122.809 177.771 111.917C177.677 111.782 177.532 111.69 177.37 111.662C177.208 111.633 177.041 111.67 176.906 111.765C176.771 111.86 176.679 112.004 176.65 112.166C176.622 112.329 176.659 112.496 176.754 112.631C183.651 124.072 186.058 137.665 183.508 150.779C183.171 152.467 185.281 152.928 187.816 153.305C199.708 155.037 220.016 152.459 230.182 146.356C232.597 144.909 233.912 143.931 233.912 141.985C233.912 121.709 223.824 81.9201 200.431 76.3173C187.796 73.2596 178.173 80.3928 167.356 85.6609C143.062 97.5909 129.953 101.963 103.084 101.117C102.949 101.097 102.812 101.107 102.681 101.145C102.55 101.184 102.43 101.251 102.327 101.341C102.225 101.431 102.144 101.543 102.089 101.667C102.034 101.792 102.007 101.928 102.01 102.064C101.821 106.17 102.9 110.919 106.854 112.864Z" fill="#283D3B"/>
<path d="M168.619 58.3532C168.225 58.2805 167.818 58.3573 167.477 58.5684C167.137 58.7795 166.887 59.11 166.777 59.4953C166.665 60.0555 167.062 60.2628 167.419 59.9435C167.784 59.5055 168.301 59.2215 168.866 59.1483C169.537 58.9549 169.414 58.4254 168.619 58.3532Z" fill="#283D3B"/>
<path d="M165.879 55.9586C166.642 55.8161 167.427 55.837 168.182 56.0199C168.773 56.1627 169.272 55.8465 169.028 55.2524C168.671 54.3652 166.613 54.1611 165.532 54.6001C164.452 55.0391 164.412 56.2333 165.879 55.9586Z" fill="#283D3B"/>
<path d="M164.289 65.19C164.991 65.4817 167.183 65.497 167.45 64.467C167.469 64.3849 167.47 64.2993 167.452 64.2168C167.434 64.1342 167.398 64.0568 167.346 63.9903C167.294 63.9237 167.227 63.8698 167.151 63.8325C167.076 63.7952 166.992 63.7754 166.908 63.7748C166.317 63.7748 165.95 64.4563 165.043 64.3243C165.829 61.1008 164.862 60.0447 164.473 62.0724C164.188 63.5491 163.594 64.9014 164.289 65.19Z" fill="#283D3B"/>
<path d="M168.804 67.7674C170.061 68.6086 173.185 68.1143 173.716 65.9346C173.914 64.9369 173.828 63.9035 173.468 62.9522C173.108 62.001 172.487 61.1701 171.677 60.5545C171.063 60.094 170.537 60.8292 170.712 61.4755C171.26 63.606 169.425 65.3682 168.529 66.3061C167.907 66.9262 168.053 67.2655 168.804 67.7674ZM171.906 62.7388C173.354 64.7772 172.787 67.442 169.45 66.8618C170.773 65.8583 171.654 64.3798 171.906 62.7388Z" fill="#283D3B"/>
<path d="M160.225 56.4682C159.77 56.9017 159.437 57.4469 159.258 58.0493C159.079 58.6517 159.061 59.2904 159.206 59.902C159.298 60.1875 159.991 60.7078 160.225 59.4031C160.363 58.6402 160.717 57.9328 161.244 57.3646C162.048 56.4589 161.009 55.8158 160.225 56.4682Z" fill="#283D3B"/>
<path d="M161.846 62.2766C162.123 62.0121 162.482 61.8497 162.863 61.8161C163.507 61.7333 163.465 61.1837 162.782 61.0609C162.488 61.0076 162.185 61.0674 161.934 61.2283C161.683 61.3892 161.501 61.6392 161.427 61.9282C161.315 62.246 161.566 62.5391 161.846 62.2766Z" fill="#283D3B"/>
<path d="M178.881 261.053C174.876 262.912 170.716 264.416 166.447 265.546C164.165 266.169 164.002 268.604 166.314 269.124C168.352 269.562 186.115 269.124 188.241 269.012C189.872 268.94 191.4 268.512 191.695 266.688C192.003 264.853 191.641 262.969 190.676 261.378C190.3 260.892 189.188 261.071 189.321 261.736C189.709 263.854 191.42 267.064 187.233 267.262C183.931 267.416 169.453 267.812 167.058 267.393C170.96 266.232 176.391 264.468 179.52 262.187C179.626 262.084 179.694 261.948 179.715 261.801C179.736 261.654 179.708 261.505 179.635 261.375C179.563 261.246 179.449 261.144 179.313 261.086C179.176 261.028 179.025 261.016 178.881 261.053Z" fill="#283D3B"/>
<path d="M257.958 232.932C261.286 234.62 262.135 233.767 259.507 240.228C257.411 245.426 254.587 250.301 251.121 254.706C250.988 250.63 251.582 245.23 251.477 241.073C251.477 240.36 250.296 240.237 250.205 240.981C249.663 245.261 249.522 250.202 249.307 254.614C249.164 257.53 251.009 257.731 252.925 255.185C256.9 249.984 260.055 244.205 262.278 238.048C262.818 236.513 263.295 234.909 262.278 233.463C261.349 232.308 260.046 231.515 258.594 231.22C258.376 231.171 258.148 231.203 257.952 231.309C257.756 231.415 257.605 231.589 257.527 231.798C257.45 232.007 257.45 232.237 257.53 232.446C257.609 232.654 257.761 232.827 257.958 232.932Z" fill="#283D3B"/>
<path d="M156.516 58.9136C158.051 64.7006 164.498 77.8755 172.308 75.0633C172.671 76.7831 173.483 78.3759 174.663 79.6791C174.959 79.8924 175.55 79.587 175.355 79.2002C174.599 77.6892 173.952 76.1261 173.419 74.523C174.501 73.775 175.423 72.8202 176.133 71.7136C176.843 70.607 177.327 69.3707 177.556 68.076C177.607 67.4436 176.741 67.4129 176.537 67.9225C175.436 70.5719 173.531 73.9643 170.26 73.9551C163.404 73.9551 157.779 59.9651 156.906 54.5342C155.225 54.2272 151.882 53.2203 150.873 51.7636C150.81 51.6584 150.783 51.5353 150.796 51.4133C150.81 51.2912 150.863 51.1769 150.947 51.0878C151.031 50.9986 151.143 50.9396 151.264 50.9197C151.385 50.8998 151.509 50.9202 151.618 50.9777C157.297 54.238 164.404 53.0161 170.243 50.6937C171.263 54.565 174.218 56.5113 174.707 55.6748C177.335 51.1204 181.503 55.7469 178.669 58.8138C177.65 59.8331 177.529 60.117 177.702 61.0964C178.354 64.8663 183.428 73.1799 185.792 75.289C208.677 68.2387 224.781 88.5959 233.935 121.221C238.173 119.428 245.693 115.557 246.66 98.1835C247.627 80.8104 234.38 73.47 228.259 72.7117C222.137 71.9534 220.852 70.7761 220.852 62.6651C220.852 54.5542 211.262 50.7628 202.773 51.211C192.871 51.7405 189.528 44.764 187.104 38.3722C184.881 32.484 174.878 31.9744 170.293 35.643C165.708 39.3117 161.304 38.9126 154.284 37.3852C147.865 35.9684 142.311 44.6488 144.442 51.4044C145.244 53.8799 146.896 55.9918 149.106 57.3661C151.316 58.7404 153.941 59.2886 156.516 58.9136Z" fill="#283D3B"/>
<path d="M233.901 146.9C218.466 156.426 194.633 156.549 184.464 154.622C180.215 166.207 175.416 194.961 174.52 205.262C173.624 215.563 176.842 246.191 178.511 259.059C182.878 260.007 187.399 259.987 191.757 258.999C191.339 255.656 193.457 216.787 194.232 212.668C194.935 208.929 200.61 195.765 205.022 186.625C204.88 183.216 204.298 179.839 203.29 176.579C203.233 176.451 203.23 176.305 203.28 176.174C203.33 176.043 203.43 175.937 203.558 175.879C206.816 174.428 208.115 205.148 214.06 213.993C216.037 216.928 241.724 234.8 249.242 239.568C251.861 237.632 256.141 233.77 256.917 229.521C253.778 227.3 232.911 205.781 232.525 204.629C232.138 203.478 237.397 169.842 233.901 146.9Z" fill="#283D3B"/>
<path d="M298.296 271.273C205.582 271.147 101.969 270.805 8.69364 271.528C8.55657 271.523 8.41983 271.545 8.29162 271.594C8.16341 271.643 8.04637 271.717 7.94751 271.812C7.84864 271.907 7.76999 272.021 7.71627 272.147C7.66255 272.273 7.63486 272.409 7.63486 272.546C7.63486 272.684 7.66255 272.819 7.71627 272.946C7.76999 273.072 7.84864 273.186 7.94751 273.281C8.04637 273.376 8.16341 273.45 8.29162 273.499C8.41983 273.548 8.55657 273.57 8.69364 273.565C102.758 273.751 205.108 273.738 298.285 273.341C298.424 273.347 298.563 273.325 298.693 273.276C298.824 273.227 298.943 273.152 299.044 273.056C299.144 272.96 299.225 272.845 299.28 272.717C299.335 272.589 299.364 272.452 299.365 272.313C299.365 272.173 299.338 272.035 299.284 271.907C299.23 271.779 299.151 271.663 299.051 271.566C298.952 271.468 298.833 271.393 298.704 271.342C298.574 271.292 298.435 271.269 298.296 271.273Z" fill="#283D3B"/>
</svg>
