<svg width="319" height="319" viewBox="0 0 319 319" fill="none" xmlns="http://www.w3.org/2000/svg">
<path d="M192.391 182.702C189.042 180.788 185.714 178.874 182.36 176.933C182.12 176.794 181.852 176.708 181.576 176.68C181.299 176.652 181.02 176.684 180.756 176.773C180.493 176.862 180.252 177.005 180.048 177.195C179.845 177.384 179.684 177.615 179.577 177.871C177.593 182.856 174.402 187.27 170.293 190.718C166.183 194.167 161.282 196.542 156.028 197.63C155.731 197.695 155.454 197.828 155.218 198.02C154.982 198.212 154.794 198.456 154.67 198.734C154.546 199.011 154.489 199.314 154.503 199.618C154.517 199.921 154.603 200.217 154.752 200.482C156.826 204.171 159.95 209.505 161.226 211.719C161.407 212.032 161.673 212.287 161.994 212.453C162.315 212.62 162.677 212.691 163.037 212.658C170.55 212.244 177.682 209.218 183.2 204.104C188.719 198.99 192.278 192.108 193.262 184.648C193.354 184.273 193.318 183.878 193.161 183.526C193.003 183.173 192.732 182.884 192.391 182.702ZM182.576 201.364C178.328 204.974 173.343 207.614 167.97 209.1C167.534 208.301 166.902 207.626 166.134 207.138C165.365 206.651 164.485 206.368 163.576 206.315C163.078 206.32 162.582 206.388 162.101 206.516L159.584 202.323C160.229 202.015 160.769 201.522 161.134 200.907C161.498 200.292 161.671 199.582 161.63 198.868C165.722 197.064 169.573 194.757 173.095 192C176.348 189.63 178.788 186.311 180.079 182.498C180.914 182.588 181.758 182.444 182.516 182.083C183.274 181.722 183.917 181.157 184.373 180.452L188.801 183.739C188.533 184.98 188.131 187.932 189.707 189.073C188.881 193.894 186.35 198.257 182.576 201.367V201.364Z" fill="#197278"/>
<path d="M194.201 120.845C194.073 120.582 193.865 120.367 193.608 120.228C193.35 120.09 193.055 120.036 192.766 120.075L176.999 122.054C176.816 122.078 176.64 122.138 176.48 122.23C176.32 122.322 176.18 122.445 176.068 122.591C175.956 122.738 175.873 122.905 175.826 123.083C175.779 123.261 175.767 123.447 175.792 123.63C177.627 135.41 178.179 147.355 177.436 159.254C177.419 159.443 177.441 159.633 177.5 159.812C177.56 159.992 177.655 160.158 177.781 160.299C177.906 160.441 178.06 160.555 178.231 160.635C178.402 160.715 178.588 160.759 178.777 160.765L196.322 161.033C196.687 161.04 197.039 160.903 197.303 160.652C197.567 160.401 197.722 160.056 197.732 159.691C197.892 153.758 198.259 130.004 194.201 120.845ZM195.069 155.672C194.118 155.639 193.19 155.965 192.469 156.586C191.748 157.207 191.287 158.076 191.179 159.021H184.1C183.949 158.008 183.476 157.069 182.751 156.345C182.026 155.62 181.088 155.147 180.074 154.996C180.175 151.239 180.478 134.969 178.565 128.16C179.353 127.79 180.03 127.221 180.53 126.509C181.03 125.797 181.335 124.967 181.416 124.101L190.105 122.994C190.012 123.606 190.041 124.231 190.192 124.833C190.342 125.434 190.611 125.999 190.982 126.496C191.353 126.992 191.819 127.41 192.353 127.724C192.887 128.039 193.479 128.244 194.093 128.327C194.404 131.144 196.247 149.191 195.069 155.672Z" fill="#197278"/>
<path d="M159.851 127.252C157.104 122.209 155.65 116.563 155.621 110.82C155.592 105.077 156.988 99.4167 159.684 94.3458C159.832 94.0577 159.91 93.739 159.912 93.4153C159.914 93.0916 159.841 92.7718 159.698 92.4816C159.554 92.1914 159.345 91.9388 159.086 91.744C158.828 91.5492 158.527 91.4177 158.209 91.3599C153.743 90.5545 147.203 89.4459 144.522 89.0121C144.142 88.951 143.752 88.997 143.397 89.1449C143.041 89.2928 142.734 89.5368 142.509 89.8495C137.715 96.3325 135.331 104.283 135.766 112.335C136.201 120.386 139.428 128.033 144.892 133.962C145.171 134.276 145.537 134.498 145.944 134.6C146.351 134.701 146.779 134.678 147.173 134.532C151.03 133.096 154.921 131.646 158.778 130.205C159.054 130.096 159.305 129.93 159.512 129.717C159.719 129.504 159.879 129.25 159.98 128.97C160.082 128.691 160.123 128.394 160.101 128.097C160.078 127.801 159.993 127.513 159.851 127.252ZM154.484 129.466L148.782 130.843C148.715 130.876 148.715 130.843 148.715 130.843C147.876 129.803 145.729 127.455 143.716 127.991C142.779 126.984 139.389 122.727 139.322 113.432C139.378 107.598 140.32 101.807 142.115 96.2566C143.334 96.5522 144.618 96.4083 145.741 95.8501C146.864 95.292 147.754 94.3554 148.254 93.2054L153.452 94.0762C153.265 94.8197 153.301 95.6023 153.558 96.3248C153.815 97.0473 154.281 97.6775 154.896 98.1355C153.419 103.361 152.704 108.772 152.774 114.202C152.767 117.849 153.803 121.423 155.76 124.501C155.113 125.132 154.651 125.929 154.426 126.805C154.201 127.68 154.221 128.601 154.484 129.466Z" fill="#197278"/>
<path d="M161.864 67.3743L160.355 58.5524C159.941 58.4663 158.832 58.2031 157.325 57.8474L158.314 63.5511C157.453 63.9008 156.697 64.4679 156.121 65.197C155.545 65.9262 155.168 66.7923 155.026 67.7109C147.512 67.8784 130.975 73.2455 127.218 74.4864C126.815 73.5699 126.137 72.8022 125.276 72.2907C124.416 71.7793 123.417 71.5499 122.42 71.6346C122.219 71.6346 122.018 71.6697 121.884 71.6697L119.704 64.4236C120.64 64.0293 121.391 63.2924 121.802 62.3633C122.213 61.4343 122.255 60.3833 121.917 59.4249C125.383 57.6241 132.909 55.6862 139.336 54.2028C136.714 53.9034 134.082 53.6986 131.444 53.5887C126.644 54.8931 121.879 56.3249 117.155 57.8825C116.973 57.9421 116.805 58.0375 116.66 58.163C116.516 58.2886 116.398 58.4418 116.313 58.6136C116.229 58.7854 116.18 58.9723 116.169 59.1634C116.158 59.3545 116.185 59.5459 116.249 59.7263L121.951 77.5058C122.012 77.6983 122.112 77.8762 122.245 78.0279C122.378 78.1797 122.541 78.3021 122.724 78.3873C122.907 78.4725 123.106 78.5187 123.308 78.5229C123.51 78.5271 123.71 78.4893 123.897 78.4117C138.446 72.5405 155.558 69.7908 160.617 69.0858C160.813 69.0594 161.002 68.9935 161.172 68.8923C161.342 68.791 161.489 68.6563 161.606 68.4964C161.723 68.3365 161.805 68.1546 161.85 67.9618C161.894 67.7689 161.899 67.5691 161.864 67.3743Z" fill="#197278"/>
<path d="M64.2149 197.697C63.612 195.316 62.1414 189.578 61.0616 185.688C60.9657 185.398 60.8058 185.133 60.5936 184.913C60.3814 184.693 60.1223 184.523 59.8357 184.417C59.5491 184.311 59.2422 184.27 58.9378 184.299C58.6334 184.327 58.3393 184.424 58.0773 184.581C52.8773 187.587 47.014 189.258 41.0108 189.444C35.9681 189.593 30.9505 188.679 26.2842 186.762C26.0255 186.649 25.7463 186.591 25.464 186.591C25.1818 186.591 24.9027 186.65 24.6442 186.763C24.3858 186.877 24.1536 187.042 23.9623 187.25C23.771 187.457 23.6248 187.702 23.5328 187.969C22.3924 191.524 21.2519 195.081 20.1115 198.603C19.999 198.97 20.0068 199.363 20.1336 199.725C20.2604 200.087 20.4997 200.399 20.8165 200.616C26.7948 204.897 33.9593 207.207 41.3123 207.224C49.3559 207.228 57.1709 204.549 63.5195 199.609C63.8173 199.4 64.0437 199.105 64.168 198.763C64.2924 198.421 64.3088 198.049 64.2149 197.697ZM57.3053 200.348C52.3377 202.214 47.1489 203.429 41.8689 203.961C32.3085 204.803 27.7308 201.925 26.6781 201.118C27.0482 199.375 24.9013 197.731 23.5583 196.892L24.5983 191.759C25.437 191.927 26.3047 191.88 27.1204 191.622C27.936 191.364 28.6729 190.904 29.262 190.283C32.4855 192.121 36.8 192.406 40.939 192.126C45.6522 191.667 50.2986 190.677 54.79 189.177C55.2991 189.692 55.9433 190.054 56.6486 190.22C57.3539 190.386 58.0918 190.35 58.7775 190.116L59.8509 194.644C58.8186 195.138 57.9957 195.983 57.5293 197.028C57.0629 198.073 56.9835 199.25 57.3053 200.348Z" fill="#197278"/>
<path d="M37.6697 200.769C38.0949 201.355 38.654 201.831 39.3005 202.157C39.947 202.483 40.6621 202.65 41.3861 202.643C42.5617 202.602 43.6768 202.112 44.5023 201.274C45.3279 200.436 45.8011 199.313 45.8248 198.137C45.8484 196.961 45.4208 195.82 44.6297 194.95C43.8386 194.079 42.7441 193.545 41.5711 193.456C40.4998 193.411 39.443 193.716 38.5612 194.326C37.6794 194.936 37.0209 195.817 36.6856 196.836C36.5365 197.523 36.5478 198.235 36.7184 198.917C36.8891 199.599 37.2146 200.233 37.6697 200.769Z" fill="#197278"/>
<path d="M244.016 168.446C244.888 168.722 245.825 168.715 246.693 168.426C247.561 168.137 248.314 167.58 248.846 166.835C249.489 165.924 249.882 164.86 249.986 163.749C250.087 162.709 250.189 161.569 248.98 161.167C247.92 160.901 246.803 160.994 245.801 161.431C244.8 161.868 243.972 162.624 243.445 163.582C243.064 164.121 242.819 164.744 242.732 165.399C242.644 166.053 242.717 166.719 242.943 167.339C243.163 167.821 243.542 168.212 244.016 168.446Z" fill="#197278"/>
<path d="M240.225 169.52C242.037 168.58 243.077 170.158 241.802 171.129C239.729 173.176 228.451 183.977 224.594 187.264C221.44 189.949 217.716 195.282 213.087 194.979C211.903 194.837 210.749 194.509 209.666 194.008C207.491 193.242 205.243 192.702 202.958 192.397C202.418 192.318 201.907 192.103 201.473 191.771C201.039 191.44 200.697 191.004 200.478 190.503C200.26 190.003 200.173 189.456 200.225 188.912C200.277 188.369 200.466 187.848 200.776 187.398C201.265 186.688 201.791 186.005 202.353 185.352C206.143 181.127 212.987 180.053 218.153 178.275C225.23 175.86 240.225 169.52 240.225 169.52Z" fill="#197278"/>
<path d="M147.24 201.957L127.851 173.646C127.647 173.346 127.385 173.09 127.079 172.894C126.774 172.698 126.432 172.566 126.074 172.507C125.716 172.447 125.349 172.461 124.997 172.547C124.644 172.633 124.313 172.79 124.023 173.008L113.389 180.958C111.184 179.539 108.758 178.496 106.212 177.873C101.485 176.82 96.565 177.021 91.94 178.457C87.3151 179.892 83.1459 182.512 79.8463 186.057C77.7447 188.541 76.5397 191.66 76.425 194.912C76.183 199.078 76.8587 203.247 78.4044 207.124L67.7036 215.14C67.1568 215.542 66.7855 216.139 66.6668 216.808C66.548 217.476 66.6908 218.164 67.0656 218.73L77.7329 235.334C88.7724 227.013 99.9213 218.839 111.177 210.813C132.612 195.45 142.039 190.25 131.673 198.704C122.246 206.519 99.838 223.593 79.5448 238.153L94.0019 260.661C94.3743 261.249 94.9633 261.667 95.6412 261.823C96.3192 261.98 97.0316 261.863 97.6242 261.499L111.882 252.945C112.321 252.654 112.67 252.245 112.89 251.766C113.109 251.287 113.19 250.756 113.123 250.233C112.15 231.012 126.776 216.856 128.116 215.448C130.899 212.562 138.683 207.028 145.492 206.055C145.937 205.996 146.36 205.822 146.718 205.55C147.076 205.278 147.357 204.918 147.534 204.504C147.71 204.091 147.776 203.639 147.724 203.192C147.673 202.745 147.506 202.32 147.24 201.957ZM109.904 205.307C109.369 207.137 108.504 208.853 107.352 210.373C106.312 211.747 105.138 212.082 104.535 210.532C103.931 209.023 104.971 205.97 106.984 204.527C108.998 203.131 110.306 203.769 109.904 205.312V205.307ZM80.5864 205.508C80.1444 204.094 79.819 202.647 79.6134 201.181C79.1532 198.246 79.267 195.25 79.9484 192.359C80.8543 188.636 84.2421 185.885 87.3954 183.972C90.9287 181.757 94.964 180.469 99.1273 180.229C103.291 179.989 107.447 180.803 111.212 182.597L80.5864 205.508Z" fill="#197278"/>
<path d="M147.021 107.166C146.874 107.142 146.726 107.133 146.578 107.138C145.18 107.167 143.843 107.715 142.826 108.674C142.299 109.092 141.885 109.635 141.619 110.253C141.354 110.871 141.245 111.545 141.304 112.215C141.362 112.885 141.586 113.53 141.955 114.093C142.324 114.655 142.827 115.117 143.418 115.438C144.086 115.925 144.855 116.255 145.669 116.403C146.482 116.552 147.318 116.514 148.115 116.295C149.183 115.994 150.108 115.322 150.724 114.399C151.34 113.476 151.606 112.364 151.474 111.262C151.342 110.161 150.821 109.143 150.004 108.392C149.188 107.641 148.13 107.206 147.021 107.166Z" fill="#197278"/>
<path d="M120.404 93.9455C117.194 87.2402 111.745 81.8653 104.996 78.7476C98.2478 75.63 90.6229 74.9652 83.4365 76.8678C83.0643 76.9634 82.729 77.1677 82.4734 77.4546C82.2177 77.7415 82.0533 78.098 82.001 78.4788C81.497 82.2685 81.0281 86.0263 80.5241 89.816C80.4876 90.0885 80.51 90.3656 80.5895 90.6286C80.6691 90.8917 80.8041 91.1347 80.9854 91.3413C81.1668 91.5479 81.3902 91.7132 81.6408 91.8262C81.8914 91.9392 82.1632 91.9972 82.4381 91.9964C87.732 91.9217 92.9616 93.1642 97.6562 95.612C102.351 98.0599 106.363 101.636 109.333 106.02C109.505 106.266 109.733 106.468 109.999 106.61C110.264 106.751 110.559 106.829 110.859 106.835C111.16 106.842 111.458 106.777 111.729 106.647C112 106.517 112.236 106.325 112.419 106.087C115.002 102.798 118.692 97.9346 120.235 95.9552C120.449 95.6701 120.579 95.3302 120.609 94.9747C120.639 94.6192 120.568 94.2624 120.404 93.9455ZM115.14 97.1993L112.255 101.058C111.58 100.479 110.728 100.148 109.84 100.118C109.315 100.12 108.797 100.246 108.33 100.487C106.256 98.4753 95.4485 88.5783 86.4591 89.8192C86.2313 89.0197 85.7835 88.3002 85.1668 87.7427C84.5501 87.1852 83.7892 86.8121 82.9708 86.6659L84.3122 81.4024C85.5531 81.1663 88.405 80.4295 88.8069 78.5505C91.0208 77.946 102.795 75.6317 115.274 90.8943C114.534 91.7706 114.117 92.8741 114.092 94.0209C114.067 95.1677 114.436 96.2884 115.137 97.1961L115.14 97.1993Z" fill="#197278"/>
<path d="M102.559 82.0675C102.045 81.8236 101.483 81.6978 100.914 81.699C100.084 81.7081 99.2675 81.9154 98.5331 82.3036C97.7889 82.6652 97.1365 83.1912 96.6253 83.842C96.1142 84.4927 95.7575 85.251 95.5824 86.0598C95.3995 87.1597 95.5991 88.289 96.148 89.2596C96.6968 90.2301 97.5617 90.9833 98.5985 91.3935C99.6184 91.6946 100.708 91.6581 101.706 91.2893C102.703 90.9206 103.555 90.2393 104.133 89.3471C104.541 88.6997 104.805 87.9729 104.909 87.2152C105.014 86.4574 104.955 85.6862 104.738 84.9528C104.607 84.342 104.345 83.7671 103.968 83.2686C103.592 82.7701 103.111 82.3601 102.559 82.0675Z" fill="#197278"/>
<path d="M188.265 136.982C188.103 136.956 187.939 136.945 187.775 136.951C186.301 136.974 184.89 137.553 183.826 138.574C183.325 139.009 182.922 139.545 182.643 140.146C182.363 140.748 182.214 141.402 182.204 142.065C182.27 142.807 182.506 143.523 182.893 144.159C183.28 144.795 183.808 145.334 184.437 145.734C185.14 146.253 185.953 146.603 186.813 146.757C187.673 146.911 188.558 146.865 189.397 146.622C190.515 146.296 191.481 145.585 192.124 144.614C192.768 143.643 193.046 142.476 192.91 141.32C192.774 140.163 192.232 139.092 191.382 138.297C190.531 137.502 189.426 137.034 188.263 136.977L188.265 136.982Z" fill="#197278"/>
<path d="M189.305 290.583L182.765 276.125C182.693 275.956 182.587 275.803 182.453 275.677C182.319 275.55 182.161 275.452 181.988 275.39C181.815 275.327 181.631 275.3 181.447 275.311C181.263 275.323 181.084 275.372 180.92 275.455C170.212 280.688 158.965 284.738 147.379 287.531C147.193 287.571 147.017 287.649 146.863 287.761C146.708 287.872 146.578 288.014 146.481 288.177C146.383 288.34 146.32 288.522 146.296 288.711C146.272 288.899 146.286 289.091 146.339 289.274L151.269 306.114C151.312 306.289 151.391 306.453 151.5 306.597C151.609 306.74 151.747 306.859 151.904 306.947C152.061 307.035 152.235 307.09 152.414 307.109C152.594 307.127 152.775 307.108 152.947 307.053C158.649 305.442 181.461 298.801 189.008 292.193C189.214 291.986 189.353 291.721 189.406 291.434C189.459 291.147 189.424 290.85 189.305 290.583ZM181.791 294.306C179.207 295.413 162.469 302.492 155.961 303.296C155.741 302.511 155.278 301.816 154.639 301.311C154.001 300.805 153.218 300.514 152.404 300.479C152.137 300.485 151.871 300.507 151.607 300.546L149.533 293.804C150.453 293.356 151.206 292.627 151.683 291.722C152.16 290.817 152.335 289.783 152.183 288.772C155.807 287.765 171.438 283.237 177.384 279.412C177.983 280.04 178.729 280.51 179.554 280.779C180.379 281.049 181.258 281.109 182.113 280.956L185.735 288.931C185.123 289.024 184.535 289.237 184.005 289.558C183.475 289.878 183.014 290.3 182.647 290.8C182.281 291.299 182.016 291.866 181.869 292.468C181.723 293.069 181.696 293.694 181.791 294.306Z" fill="#197278"/>
<path d="M169.051 287.349C168.259 286.867 167.353 286.604 166.426 286.59C165.984 286.584 165.545 286.659 165.131 286.811C164.42 287.103 163.785 287.554 163.275 288.13C162.765 288.705 162.394 289.389 162.19 290.13C161.897 290.981 161.803 291.888 161.913 292.781C162.024 293.674 162.337 294.53 162.828 295.284C163.533 296.278 164.558 297 165.732 297.328C166.906 297.656 168.158 297.571 169.276 297.086C170.294 296.53 171.105 295.661 171.589 294.607C172.074 293.554 172.205 292.372 171.964 291.237C171.78 290.42 171.426 289.651 170.924 288.981C170.422 288.311 169.784 287.755 169.051 287.349Z" fill="#197278"/>
<path d="M108.831 132.318L102.356 131.177L61.7 163.146L69.4485 164.755C70.1264 164.889 70.8253 164.875 71.4972 164.713C72.169 164.551 72.7978 164.246 73.3403 163.818L109.502 135.036C109.732 134.852 109.905 134.606 110 134.327C110.095 134.048 110.108 133.748 110.037 133.462C109.966 133.176 109.815 132.916 109.601 132.713C109.388 132.51 109.12 132.373 108.831 132.318Z" fill="#197278"/>
<path d="M99.12 130.618L95.4116 129.97C94.7803 129.859 94.1329 129.88 93.5098 130.03C92.8866 130.18 92.301 130.456 91.7894 130.843L54.4871 159.021C54.2542 159.202 54.0772 159.445 53.9769 159.722C53.8765 160 53.8568 160.3 53.9201 160.587C53.9834 160.875 54.1271 161.139 54.3345 161.349C54.5418 161.559 54.8044 161.705 55.0916 161.771L58.6261 162.505L99.12 130.618Z" fill="#197278"/>
<path d="M44.6603 107.227C45.168 106.959 45.5586 106.512 45.7567 105.973C45.9549 105.435 45.9467 104.841 45.7338 104.308C45.5282 104.103 45.2823 103.943 45.0116 103.838C44.7409 103.732 44.4513 103.685 44.1612 103.697C43.871 103.71 43.5867 103.783 43.3261 103.911C43.0656 104.039 42.8344 104.22 42.6474 104.442C42.323 104.835 42.1568 105.335 42.1816 105.844C42.2064 106.353 42.4203 106.834 42.7814 107.194C43.0614 107.371 43.3848 107.468 43.7162 107.474C44.0476 107.48 44.3742 107.394 44.6603 107.227Z" fill="#197278"/>
<path d="M167.692 50.0192C166.925 49.2943 166.15 48.577 165.368 47.8675L165.219 48.5231C164.294 48.5178 163.385 48.7531 162.579 49.2059C161.773 49.6586 161.099 50.3133 160.623 51.1054C153.647 48.3556 136.269 46.9807 132.346 46.7112C132.446 43.6583 129.561 42.4174 128.487 42.049L129.226 34.5349C130.243 34.5205 131.216 34.1213 131.95 33.4178C132.685 32.7144 133.125 31.7588 133.183 30.7436C137.075 30.6763 140.965 30.9603 144.806 31.5922C143.211 30.5235 141.585 29.4804 139.938 28.4867C135.268 27.9763 131.334 27.6701 129.358 27.5297C129.168 27.5152 128.978 27.5385 128.797 27.5984C128.616 27.6582 128.449 27.7534 128.306 27.8784C128.162 28.0034 128.045 28.1556 127.961 28.3263C127.877 28.497 127.828 28.6827 127.816 28.8727L126.272 47.456C126.257 47.6551 126.282 47.8552 126.347 48.044C126.412 48.2328 126.515 48.4063 126.649 48.5539C126.784 48.7015 126.947 48.82 127.129 48.9022C127.311 48.9844 127.508 49.0286 127.707 49.0319C143.405 49.1994 160.245 53.1917 165.209 54.4661C165.399 54.5146 165.596 54.5242 165.79 54.4944C165.983 54.4645 166.168 54.3958 166.335 54.2924C166.501 54.1889 166.644 54.0529 166.756 53.8925C166.869 53.7321 166.947 53.5507 166.987 53.3591L167.724 50.0623L167.692 50.0192Z" fill="#197278"/>
<path d="M142.394 37.4825C142.014 38.3183 141.829 39.2294 141.852 40.1472C141.875 41.065 142.107 41.9655 142.528 42.7811C142.841 43.5003 143.316 44.1372 143.917 44.6415C144.517 45.1458 145.227 45.5037 145.989 45.6872C146.678 45.786 147.381 45.7376 148.05 45.5452C148.718 45.3527 149.339 45.0206 149.87 44.5707C150.551 44.0563 151.115 43.4031 151.525 42.6544C151.935 41.9057 152.181 41.0784 152.247 40.2275C152.377 39.007 152.071 37.7797 151.382 36.7641C150.693 35.7484 149.665 35.0102 148.483 34.681C147.3 34.3517 146.04 34.4527 144.925 34.966C143.81 35.4793 142.913 36.3716 142.394 37.4841V37.4825Z" fill="#197278"/>
<path d="M182.025 34.8029C176.49 25.7114 155.491 11.6578 150.224 8.20144C149.899 7.99409 149.504 7.92368 149.127 8.00553C148.75 8.08739 148.421 8.31488 148.211 8.63847L137.808 24.1355C137.698 24.3026 137.624 24.4906 137.59 24.6877C137.555 24.8849 137.562 25.0869 137.609 25.2814C137.656 25.4758 137.743 25.6585 137.864 25.8181C137.984 25.9777 138.136 26.1107 138.311 26.209C151.964 33.991 164.745 45.668 168.469 49.1866C168.612 49.3231 168.781 49.4292 168.966 49.4984C169.152 49.5676 169.349 49.5984 169.546 49.589C169.744 49.5796 169.937 49.5302 170.115 49.4437C170.293 49.3573 170.451 49.2356 170.581 49.0861L181.83 36.5143C182.045 36.2893 182.18 36.0002 182.215 35.6913C182.25 35.3823 182.184 35.0703 182.025 34.8029ZM171.463 44.022C170.655 43.5637 169.742 43.3228 168.813 43.3228C167.884 43.3228 166.971 43.5637 166.163 44.022C161.4 38.2512 146.874 28.5903 143.587 26.4435C145.165 23.8277 143.286 21.3395 142.514 20.5069L146.803 14.3071C147.695 14.7979 148.74 14.9289 149.726 14.6732C150.711 14.4176 151.562 13.7947 152.103 12.9322C158.443 15.7905 173.237 28.4292 175.45 30.3416C175.153 30.9307 174.976 31.573 174.93 32.2312C174.884 32.8894 174.97 33.5502 175.182 34.1749C175.395 34.7995 175.729 35.3756 176.167 35.8693C176.605 36.363 177.136 36.7645 177.731 37.0502L171.463 44.022Z" fill="#197278"/>
<path d="M156.644 23.4209C155.937 24.006 155.371 24.7438 154.99 25.579C154.609 26.4142 154.423 27.3249 154.444 28.2426C154.409 29.0274 154.557 29.8095 154.877 30.5273C155.196 31.245 155.677 31.8788 156.284 32.3785C156.86 32.7684 157.513 33.0318 158.198 33.1511C158.884 33.2704 159.587 33.243 160.261 33.0707C161.1 32.9062 161.894 32.5651 162.59 32.0701C163.286 31.5751 163.869 30.9375 164.3 30.1997C164.886 29.1724 165.123 27.9831 164.976 26.8097C164.83 25.6364 164.307 24.542 163.487 23.6905C162.548 22.8715 161.357 22.3982 160.113 22.3491C158.868 22.3001 157.644 22.6783 156.644 23.4209Z" fill="#197278"/>
<path d="M177.572 201.567C178.199 201.678 178.843 201.651 179.458 201.488C180.074 201.325 180.647 201.029 181.137 200.622C181.644 200.118 182.028 199.504 182.261 198.827C182.493 198.151 182.568 197.431 182.478 196.721C182.424 195.882 182.183 195.066 181.772 194.333C181.36 193.599 180.79 192.968 180.102 192.485C179.289 192.005 178.363 191.752 177.419 191.753C176.762 191.74 176.109 191.867 175.504 192.124C174.9 192.382 174.356 192.765 173.91 193.247C173.231 194.089 172.84 195.127 172.796 196.209C172.752 197.29 173.057 198.356 173.666 199.251C174.116 199.891 174.697 200.428 175.371 200.827C176.044 201.226 176.794 201.478 177.572 201.567Z" fill="#197278"/>
<path d="M135.499 137.01C135.255 135.848 134.86 134.722 134.325 133.661C134.322 133.636 134.31 133.612 134.292 133.594C134.14 133.208 133.905 132.861 133.604 132.577C133.302 132.293 132.941 132.079 132.547 131.951L94.6415 124.41C94.2636 124.353 93.8814 124.331 93.4995 124.343C88.5693 115.117 72.5683 85.9035 68.2076 86.7393C64.1818 87.5017 17.3861 115.411 11.8179 123.998C11.5813 124.299 11.4062 124.643 11.3027 125.012C11.1993 125.38 11.1695 125.765 11.215 126.145C12.5564 131.782 39.7942 159.087 42.8806 162.207C43.2752 162.582 43.5046 163.098 43.5186 163.642C43.6852 164.502 44.0968 165.295 44.7038 165.926C45.3108 166.557 46.0873 166.999 46.9398 167.199L79.5464 174.652C79.866 174.719 80.1914 174.753 80.5178 174.755C81.5005 174.749 82.4538 174.419 83.2293 173.815L133.218 135.237C133.654 136.444 134.995 138.926 133.687 140.066C118.793 153.115 101.947 163.414 86.523 175.724C85.9535 176.203 86.7239 177.168 87.2949 176.731C102.624 165.628 120.235 155.632 133.721 142.18C133.788 142.146 133.821 142.146 133.88 142.113C134.622 141.516 135.17 140.713 135.458 139.806C135.746 138.898 135.76 137.926 135.499 137.01ZM12.7239 125.777C12.7239 125.777 12.6569 125.509 13.1274 124.837C18.3255 116.821 64.6858 88.9786 68.509 88.2736C70.9908 88.2736 82.2627 106.616 91.8901 124.64C91.8901 124.64 91.1851 125.176 91.1181 125.209C90.4482 125.713 89.7768 126.215 89.0718 126.72C83.4366 130.879 77.768 134.972 72.1648 139.199C65.7848 143.894 59.1145 148.255 52.9769 153.254C50.9975 154.863 48.8841 156.339 46.8378 157.849C46.1944 158.29 45.5782 158.77 44.9923 159.285C44.4899 159.763 44.0864 160.224 43.5568 160.66C34.8306 151.908 13.7303 130.104 12.7239 125.777ZM82.3297 172.539C81.9926 172.803 81.6008 172.988 81.183 173.08C80.7651 173.173 80.3319 173.171 79.9149 173.075L47.3083 165.628C46.7421 165.506 46.2255 165.217 45.825 164.798C45.4245 164.38 45.1584 163.851 45.0609 163.28C44.9084 162.531 45.0403 161.752 45.431 161.095L92.0911 126.38C92.5776 126.024 93.1664 125.836 93.769 125.844C93.9604 125.85 94.151 125.872 94.3385 125.911L132.245 133.458C132.398 133.515 132.528 133.621 132.614 133.76L82.3297 172.539Z" fill="#283D3B"/>
<path d="M33.6902 113.03C27.7887 116.484 22.4519 120.343 16.8502 124.233C16.6985 124.331 16.5701 124.461 16.474 124.614C16.3779 124.766 16.3165 124.938 16.2942 125.118C16.2718 125.297 16.289 125.479 16.3446 125.65C16.4002 125.822 16.4927 125.98 16.6158 126.112C18.5617 128.629 20.5746 131.546 23.3243 133.19C23.9623 133.559 24.7997 132.712 24.2973 132.217C22.3285 130.149 20.5543 127.903 18.9971 125.509C23.8129 121.346 28.9127 117.524 34.2596 114.07C34.8976 113.634 34.3266 112.628 33.6902 113.03Z" fill="#283D3B"/>
<path d="M52.7106 147.783C64.808 140.99 76.3778 133.298 87.3221 124.77C87.514 124.651 87.6526 124.463 87.7087 124.244C87.7649 124.025 87.7344 123.793 87.6235 123.596C82.7776 114.588 77.4032 105.873 71.5284 97.4991C71.4751 97.4101 71.3886 97.3458 71.288 97.3206C71.1873 97.2953 71.0807 97.311 70.9917 97.3643C70.9026 97.4176 70.8384 97.5041 70.8131 97.6048C70.7879 97.7054 70.8036 97.812 70.8569 97.901C73.1394 102.367 75.9609 106.489 78.5129 110.782C80.6933 114.473 83.9471 120.845 85.0205 122.992C85.136 123.224 85.1722 123.488 85.1235 123.742C85.0748 123.997 84.9439 124.229 84.7509 124.402C82.0682 126.716 71.8027 133.828 68.0465 136.377C62.8468 139.899 57.1447 143.052 52.1125 146.81C52.0425 146.846 51.9808 146.897 51.9311 146.958C51.8815 147.019 51.845 147.089 51.8239 147.165C51.8028 147.241 51.7976 147.321 51.8086 147.399C51.8196 147.477 51.8465 147.551 51.8878 147.619C51.929 147.686 51.9837 147.744 52.0483 147.789C52.1129 147.834 52.1861 147.865 52.2633 147.88C52.3405 147.896 52.4201 147.895 52.4971 147.878C52.574 147.862 52.6467 147.829 52.7106 147.783Z" fill="#283D3B"/>
<path d="M240.091 249.255L240.058 249.222C238.884 248.349 238.884 251.201 240.058 250.329L240.091 250.295C240.177 250.238 240.247 250.161 240.295 250.07C240.344 249.979 240.369 249.878 240.369 249.775C240.369 249.672 240.344 249.571 240.295 249.481C240.247 249.39 240.177 249.312 240.091 249.255Z" fill="#283D3B"/>
<path d="M281.285 157.645C281.285 157.645 286.887 154.055 282.122 151.707C282.122 151.707 285.981 147.581 282.089 145.737C282.089 145.737 284.606 142.985 284.102 140.633H284.202C284.487 140.991 284.84 141.287 285.242 141.505C287.994 142.847 288.967 141.236 288.967 141.236C288.967 141.236 287.994 145.529 290.243 146.569C290.795 146.891 291.446 146.997 292.071 146.867C292.697 146.737 293.252 146.38 293.63 145.866C293.353 146.206 293.155 146.603 293.049 147.028C292.944 147.454 292.934 147.898 293.021 148.327C293.108 148.757 293.288 149.163 293.55 149.514C293.812 149.866 294.149 150.155 294.536 150.361C297.489 152.139 298.428 149.959 298.428 149.959C298.065 150.753 298.001 151.652 298.248 152.49C298.494 153.328 299.034 154.049 299.77 154.52C302.419 156.096 305.033 152.976 304.936 151.468C304.768 148.482 303.09 147.48 300.238 147.408C300.238 147.408 300.876 140.767 296.079 143.081C296.079 143.081 295.208 137.513 291.35 139.425C291.35 139.425 290.712 135.534 288.364 134.628C289.387 133.825 290.208 132.794 290.762 131.618C291.316 130.442 291.587 129.152 291.554 127.852C291.625 126.184 291.136 124.541 290.162 123.184C289.189 121.828 287.789 120.838 286.187 120.371C286.187 120.371 292.828 119.7 289.239 112.824C285.651 105.948 280.148 109.537 280.148 109.537C280.148 109.537 281.355 105.946 276.861 104.002C274.68 103.062 272.532 104.337 270.889 105.879C270.41 104.444 269.547 103.168 267.87 103.364C267.024 103.56 266.262 104.02 265.695 104.677C265.129 105.335 264.786 106.156 264.716 107.021C264.241 106.624 263.657 106.379 263.041 106.319C262.424 106.259 261.804 106.387 261.261 106.685C259.188 107.926 260.221 109.336 261.127 110.14C258.855 110.918 256.741 112.101 254.888 113.629C252.005 116.015 249.835 119.148 248.615 122.686C247.998 124.448 247.636 126.289 247.541 128.153C247.455 129.647 247.626 131.145 248.045 132.581C247.564 132.744 247.135 133.034 246.804 133.42C244.89 135.801 246.367 137.144 246.367 137.144C246.367 137.144 242.342 135.366 240.866 137.345C240.688 137.607 240.542 137.889 240.431 138.184C240.288 138.019 240.164 137.839 240.061 137.647C238.263 134.682 236.843 131.504 235.834 128.187C231.81 115.877 229.36 101.519 227.313 88.8383C226.711 85.2143 226.175 81.5798 225.704 77.9365C225.641 76.937 225.305 75.9741 224.731 75.1532C224.425 74.8358 224.041 74.6038 223.617 74.4802C223.194 74.3565 222.745 74.3455 222.316 74.4482C221.357 74.7211 220.425 75.0804 219.531 75.5216C218.558 75.8901 217.653 76.3271 216.713 76.7625C214.002 78.0704 211.414 79.6814 208.764 81.0898C206.117 82.4472 203.591 84.0299 201.216 85.8205C200.928 86.0335 200.648 86.257 200.377 86.4904C198.835 87.7314 200.444 87.5304 203.832 85.7536C206.349 84.4106 208.764 82.9017 211.279 81.5268C213.176 80.4812 215.112 79.5076 217.083 78.608C218.756 77.7119 220.481 76.9167 222.249 76.2266C222.589 76.077 222.974 76.065 223.323 76.1931C223.482 76.2601 223.658 76.6286 223.758 77.3001C223.959 78.7754 224.16 80.3529 224.363 81.9622C225.843 94.3273 228.061 106.593 231.004 118.693C232.309 124.106 234.117 129.385 236.405 134.46C237.336 136.477 238.532 138.361 239.96 140.062C239.373 139.723 238.68 139.614 238.017 139.757C237.354 139.899 236.768 140.283 236.371 140.834C234.091 143.386 236.036 144.725 236.036 144.725C235.326 144.221 234.458 143.987 233.59 144.067C232.723 144.147 231.912 144.535 231.306 145.161C229.259 147.442 231.81 150.629 233.285 150.83C236.237 151.233 237.545 149.79 238.182 147.002C238.182 147.002 244.59 148.879 243.214 143.748C243.214 143.748 248.849 143.949 247.709 139.822C247.709 139.822 251.029 139.856 251.601 138.347C252.489 139.294 253.519 140.097 254.653 140.728C257.483 142.166 260.742 142.513 263.81 141.701C265.34 141.345 266.862 140.953 268.374 140.527C267.647 141.107 267.091 141.872 266.763 142.741C266.46 143.844 266.391 144.998 266.562 146.129C265.286 146.397 263.71 146.968 263.408 148.376C263.31 148.749 263.289 149.137 263.347 149.518C263.405 149.899 263.539 150.264 263.743 150.59C261.67 150.959 259.55 151.329 257.505 151.898C256.196 152.235 255.122 152.402 255.357 150.622C255.626 148.509 256.901 146.663 256.934 144.517C256.929 144.373 256.878 144.235 256.788 144.123C256.699 144.011 256.576 143.93 256.437 143.892C256.298 143.855 256.151 143.863 256.018 143.915C255.884 143.967 255.77 144.06 255.693 144.182C254.389 146.394 253.502 148.827 253.076 151.359C252.95 151.946 253.027 152.558 253.296 153.095C253.564 153.632 254.008 154.061 254.553 154.311C255.552 154.631 256.63 154.594 257.606 154.209C258.653 154.068 259.685 153.833 260.69 153.506C259.686 156.726 262 157.162 262 157.162C261.141 156.996 260.25 157.145 259.493 157.583C258.735 158.02 258.16 158.716 257.874 159.543C256.968 162.495 260.585 164.307 262.033 163.87C264.884 163.033 265.488 161.187 264.917 158.369C264.917 158.369 271.527 157.463 268.171 153.338C268.171 153.338 273.371 151.225 270.654 147.904C270.654 147.904 277.034 145.253 273.707 141.228L276.825 141.027C276.787 141.384 276.798 141.746 276.861 142.1C277.499 145.086 279.376 144.885 279.376 144.885C279.376 144.885 275.388 146.764 275.955 149.179C276.04 149.815 276.358 150.397 276.847 150.812C277.336 151.227 277.962 151.446 278.604 151.426C278.164 151.417 277.727 151.505 277.324 151.684C276.922 151.863 276.564 152.129 276.276 152.462C275.987 152.795 275.776 153.187 275.657 153.611C275.537 154.035 275.513 154.48 275.585 154.914C275.988 158.302 278.296 157.733 278.296 157.733C277.443 157.941 276.693 158.448 276.182 159.161C275.671 159.875 275.433 160.749 275.511 161.623C275.915 164.676 279.977 164.813 281.079 163.837C283.196 161.872 282.995 159.959 281.285 157.645ZM250.725 135.036C250.138 134.018 249.698 132.923 249.417 131.782C249.192 130.804 249.102 129.799 249.149 128.796C253.615 127.051 259.312 125.375 264.077 126.917C265.859 127.54 267.396 128.716 268.464 130.273C269.531 131.831 270.074 133.688 270.013 135.575C266.592 137.081 255.858 141.073 250.725 135.036ZM253.309 117.457C255.196 115.067 257.605 113.139 260.352 111.822C260.99 111.521 261.593 111.251 262.198 111.017C263.474 112.358 266.185 110.278 266.759 109.809H266.919C268.362 111.822 271.313 110.414 271.447 110.347C271.414 110.414 270.978 111.387 272.32 112.594C273.545 113.716 274.952 114.623 276.479 115.277C276.479 115.277 276.412 115.478 275.439 118.363C275.198 118.995 275.198 119.693 275.44 120.324C275.681 120.955 276.147 121.475 276.747 121.785C275.205 129.669 274.833 131.546 274.833 131.546C274.867 131.412 275.537 131.513 275.604 131.513C276.476 131.648 277.784 131.782 278.156 132.789C278.31 133.262 278.339 133.767 278.24 134.255C278.142 134.744 277.92 135.198 277.594 135.575C276.985 136.294 276.163 136.799 275.246 137.018C274.781 137.076 274.308 137.031 273.862 136.886C273.416 136.741 273.007 136.5 272.664 136.179C272.358 135.934 271.982 135.793 271.591 135.776C272.107 133.646 271.851 131.401 270.868 129.442C269.885 127.483 268.24 125.935 266.223 125.075C261.325 122.761 254.18 124.573 249.417 127.021C249.417 126.887 249.45 126.787 249.45 126.653C249.882 123.295 251.215 120.117 253.309 117.457Z" fill="#283D3B"/>
<path d="M256.092 122.958C256.998 122.958 257.032 122.691 256.63 122.456C256.26 122.188 255.194 121.751 254.985 120.644C254.583 118.43 260.118 117.223 261.56 116.719C262.399 116.417 262.533 116.216 261.928 116.049C260.698 115.877 259.444 116.004 258.273 116.417C256.88 116.669 255.561 117.231 254.414 118.062C254.118 118.325 253.881 118.648 253.718 119.009C253.555 119.37 253.471 119.762 253.471 120.158C253.471 120.555 253.555 120.947 253.718 121.308C253.881 121.669 254.118 121.992 254.414 122.255C254.888 122.657 255.474 122.902 256.092 122.958Z" fill="#283D3B"/>
<path d="M265.15 120.778C266.069 120.368 266.833 119.675 267.331 118.8C267.599 118.129 267.061 117.928 266.122 118.363C265.203 118.774 264.439 119.468 263.941 120.343C263.673 121.013 264.211 121.22 265.15 120.778Z" fill="#283D3B"/>
<path d="M266.525 130.071C265.424 130.669 264.281 131.184 263.104 131.613C261.291 132.301 259.372 132.665 257.433 132.686C256.592 132.667 255.756 132.532 254.952 132.284C254.353 132.055 253.798 131.726 253.309 131.311C252.57 130.608 252.269 130.54 252.537 131.245C252.839 131.976 253.326 132.616 253.948 133.104C254.571 133.592 255.31 133.911 256.092 134.029C257.97 134.374 259.903 134.264 261.729 133.709C263.556 133.154 265.223 132.17 266.592 130.839C267.23 130.004 267.094 129.803 266.525 130.071Z" fill="#283D3B"/>
<path d="M268.134 115.578C268.693 115.675 269.202 115.959 269.578 116.384C270.259 117.094 270.735 117.976 270.952 118.936C271.106 119.722 271.106 120.531 270.952 121.317C270.852 121.853 270.919 122.022 271.22 121.753C271.767 121.122 272.052 120.306 272.018 119.472C272.035 118.234 271.578 117.036 270.742 116.122C270.468 115.752 270.098 115.463 269.673 115.286C269.248 115.109 268.783 115.05 268.327 115.116C267.801 115.344 267.9 115.511 268.134 115.578Z" fill="#283D3B"/>
<path d="M213.692 86.5288C211.961 87.2803 210.309 88.2019 208.761 89.2801C207.26 90.2051 205.835 91.2484 204.5 92.4C204.433 92.4334 204.4 92.5004 204.341 92.5674C204.039 92.8019 203.703 92.5339 203.535 92.1655C203.179 91.2312 202.696 90.3505 202.1 89.5481C201.127 88.3742 200.792 88.4747 201.026 89.3471C201.16 89.782 201.361 90.453 201.629 91.36C201.763 91.9396 201.931 92.5106 202.133 93.0699C202.248 93.3895 202.431 93.6807 202.668 93.924C202.905 94.1672 203.192 94.3567 203.508 94.4798C203.836 94.5768 204.182 94.5907 204.516 94.5203C204.85 94.4498 205.162 94.2972 205.422 94.0763C208.072 92.3999 210.588 90.521 213.07 89.0457C215.552 87.6022 217.866 86.4618 219.142 85.6244C221.706 84.0469 219.294 84.216 213.692 86.5288Z" fill="#283D3B"/>
<path d="M289.301 162.676C287.866 161.435 286.349 162.374 287.692 163.716C314.225 190.721 308.992 229.867 282.055 254.288C281.486 254.79 282.224 255.763 282.861 255.328C314.896 234.562 315.064 184.615 289.301 162.676Z" fill="#283D3B"/>
<path d="M276.755 255.395C275.819 253.916 274.812 252.483 273.737 251.101C272.082 249.177 270.538 247.161 269.112 245.062C267.536 242.217 265.718 239.512 263.678 236.979C263.608 236.892 263.53 236.813 263.443 236.743C263.711 236.475 264.014 236.207 264.282 235.945C268.375 231.852 271.562 229.438 273.573 223.633C276.962 213.872 275.419 201.463 267.034 194.818C266.632 194.483 266.061 195.019 266.431 195.423C279.68 209.344 271.461 228.8 257.004 237.655C256.733 237.817 256.516 238.058 256.385 238.346C256.253 238.633 256.211 238.954 256.266 239.266C257.797 246.188 261.103 252.592 265.86 257.849C266.632 258.789 267.933 257.581 267.437 256.608C265.726 253.154 262.84 249.094 261.197 245.069C260.662 243.773 260.159 242.465 259.689 241.145C259.589 240.88 259.578 240.59 259.656 240.318C259.735 240.045 259.899 239.806 260.124 239.634C260.729 239.132 261.666 238.358 262.74 237.387C263.411 238.663 264.585 240.942 266.161 244.062C268.04 247.987 271.327 251.409 273.675 254.562C274.28 255.359 274.817 256.138 275.32 256.91C276.192 257.916 271.798 259.829 271.126 260.1C269.212 260.939 268.946 261.207 270.389 261.173C271.493 261.064 272.577 260.805 273.61 260.401C274.918 259.899 277.232 259.194 277.399 257.518C277.438 257.139 277.401 256.756 277.291 256.391C277.18 256.027 276.998 255.688 276.755 255.395Z" fill="#283D3B"/>
<path d="M202.725 100.954C205.208 119.137 211.683 157.107 235.103 161.738C235.292 161.783 235.492 161.754 235.659 161.655C235.827 161.557 235.949 161.397 236.002 161.21C236.054 161.023 236.031 160.823 235.938 160.652C235.846 160.481 235.691 160.353 235.505 160.294C212.963 152.981 207.529 120.008 204.778 100.383C204.567 99.0495 202.521 99.6125 202.725 100.954Z" fill="#283D3B"/>
<path d="M200.675 47.818C211.443 50.4019 216.341 62.3437 220.367 71.5676C220.669 72.2391 221.776 71.7701 221.575 71.0652C218.522 61.2033 212.383 48.2886 201.112 46.2757C200.106 46.1082 199.671 47.5836 200.675 47.818Z" fill="#283D3B"/>
<path d="M245.592 228.391C252.924 221.956 258.627 213.874 262.231 204.809C262.533 204.071 261.526 203.433 261.125 204.171C255.383 215.51 248.143 224.97 238.179 231.241C236.668 230.314 235.348 229.107 234.289 227.686L233.349 227.082C233.148 226.948 232.981 226.78 232.778 226.646C238.118 222.903 242.685 218.165 246.23 212.692C246.733 211.894 245.492 211.216 244.989 211.953C241.232 217.454 236.268 221.447 231.102 225.338C228.388 222.953 226.234 219.998 224.795 216.684C224.527 216.052 224.201 215.445 223.822 214.872C228.585 209.572 233.818 204.709 238.884 199.71C239.004 199.59 239.071 199.427 239.071 199.257C239.071 199.087 239.004 198.924 238.884 198.804C238.764 198.684 238.601 198.616 238.431 198.616C238.261 198.616 238.098 198.684 237.978 198.804C232.981 203.466 227.143 208.096 222.548 213.497C214.933 208.632 212.316 203.098 211.512 200.783C211.4 200.455 211.187 200.171 210.904 199.972C210.62 199.773 210.281 199.67 209.935 199.676C206.882 199.81 198.462 200.212 188.231 201.152C184.743 205.111 174.31 215.61 162.167 214.939C161.736 214.907 161.318 214.772 160.951 214.544C160.583 214.316 160.275 214.003 160.054 213.631L155.354 206.084C147.034 208.029 139.857 210.511 135.663 213.698C117.515 227.485 113.927 251.067 114.29 269.316C99.5972 273.303 88.1595 275.79 84.2007 276.629C81.3855 272.121 78.398 267.723 75.2448 263.445C73.3308 260.862 71.3195 258.28 69.0721 255.763C68.4133 254.964 67.5573 254.351 66.5887 253.985C65.9581 253.77 65.2761 253.759 64.6385 253.951C64.0009 254.144 63.4396 254.532 63.0335 255.06C61.7925 256.702 63.2344 259.218 63.8054 260.862C65.9523 267.202 68.4309 273.442 71.0515 279.205C72.2274 282.125 73.8203 284.86 75.7807 287.323C76.7101 288.53 77.9205 289.49 79.3064 290.122C80.6923 290.753 82.2115 291.036 83.7318 290.946C85.0442 290.755 86.3355 290.44 87.5885 290.006C87.9234 289.906 88.2935 289.772 88.6284 289.671C97.655 288.234 106.647 286.59 115.598 284.739C116.169 288.698 116.772 291.757 117.142 293.494C117.109 294.635 117.042 295.81 117.008 297.152C116.605 297.311 116.169 297.487 115.699 297.654C109.765 300.062 104.013 302.899 98.4903 306.141C97.4169 306.779 95.8745 307.577 95.975 309.06C96.0755 310.368 97.5174 310.939 98.6578 310.974C108.431 311.493 118.165 309.373 126.837 304.835C127.944 304.23 128.95 303.661 129.051 302.252C129.009 301.127 128.747 300.021 128.279 298.997C127.306 296.348 126.467 294.033 125.763 292.155C126.031 290.545 126.701 286.854 127.709 282.058C153.626 276.271 178.983 268.212 203.486 257.974C209.021 255.592 219.186 253.445 223.479 251.131C230.291 247.137 235.649 241.073 238.775 233.822C241.165 232.047 243.546 230.101 245.592 228.391ZM79.9484 288.376C76.7584 286.665 75.0502 283.176 73.6083 280.023C71.6624 275.83 69.9191 271.569 68.2746 267.242C67.3017 264.658 66.3287 262.009 65.4563 259.393C65.1567 258.539 64.8775 257.677 64.6189 256.809C64.5519 256.441 64.5519 256.374 64.6189 256.24C64.7604 256.061 64.9633 255.941 65.1883 255.903C66.1947 255.568 67.4692 257.111 68.6096 258.42C73.2064 263.787 77.1301 269.188 80.4844 273.917C81.2563 275.024 81.9943 276.098 82.6982 277.138L86.5565 288.443C84.2757 289.106 82.0618 289.577 79.9484 288.376ZM126.945 300.251C127.092 300.688 127.204 301.137 127.28 301.592C127.314 301.894 127.18 302.195 127.213 302.465C127.213 302.9 125.435 303.505 125.14 303.639C117.131 307.347 108.365 309.128 99.5446 308.838C99.4106 308.838 98.1697 308.738 98.6052 308.435C104.537 304.864 110.675 301.65 116.988 298.807C117.659 298.506 118.264 298.305 118.398 297.466C118.47 296.616 118.459 295.761 118.364 294.914L124.838 293.236C124.953 293.384 126.017 297.397 126.945 300.244V300.251ZM198.932 234.872C181.724 246.746 156.531 256.441 133.989 263.518C134.022 266.106 133.899 268.694 133.62 271.268C133.285 274.589 132.681 275.93 131.942 274.185C131.142 271.066 131.087 267.802 131.783 264.658C131.916 263.998 132.095 263.349 132.32 262.714C135.67 250.94 140.203 238.896 145.704 232.993C153.722 224.405 181.295 225.412 196.86 226.753C197.772 226.841 198.634 227.208 199.329 227.803C200.024 228.399 200.519 229.194 200.746 230.082C200.972 230.969 200.92 231.904 200.595 232.76C200.271 233.616 199.69 234.351 198.932 234.865V234.872Z" fill="#283D3B"/>
<path d="M188.733 54.7627C191.396 54.2202 194.135 54.1635 196.818 54.5952C199.087 55.3529 201.314 56.226 203.493 57.211C203.684 57.258 203.885 57.2418 204.066 57.1648C204.247 57.0878 204.398 56.9542 204.496 56.7841C204.594 56.6139 204.635 56.4165 204.611 56.2214C204.588 56.0263 204.502 55.8441 204.366 55.7022C199.74 51.7434 193.9 51.5759 188.298 53.1502C188.092 53.2145 187.918 53.3563 187.814 53.5456C187.71 53.735 187.684 53.9573 187.74 54.1658C187.796 54.3744 187.931 54.5531 188.116 54.6644C188.302 54.7756 188.523 54.8109 188.733 54.7627Z" fill="#283D3B"/>
<path d="M193.633 62.5447C195.412 62.3437 196.753 63.2162 198.396 63.4506C198.586 63.4944 198.785 63.4759 198.964 63.398C199.143 63.3201 199.293 63.1868 199.39 63.0178C199.488 62.8488 199.529 62.6529 199.507 62.4589C199.485 62.2649 199.401 62.0831 199.268 61.9402C197.523 59.7263 193.096 59.8284 190.915 61.3022C189.732 62.0545 188.862 63.2107 188.467 64.556C188.099 66.2323 189.373 67.4413 190.541 68.384C191.179 68.888 192.049 68.049 191.446 67.4796C191.152 67.2767 190.904 67.014 190.718 66.7087C190.532 66.4033 190.413 66.0622 190.368 65.7076C190.322 65.353 190.353 64.9929 190.456 64.6507C190.559 64.3085 190.734 63.992 190.968 63.7218C191.716 63.0682 192.646 62.6577 193.633 62.5447Z" fill="#283D3B"/>
<path d="M253.207 159.556C253.173 158.918 252.133 158.685 252.033 159.396C251.518 163.233 250.664 167.016 249.481 170.702C249.424 170.915 249.452 171.142 249.558 171.336C249.664 171.529 249.841 171.675 250.052 171.742C251.927 171.887 253.813 171.693 255.62 171.171C257.934 170.702 260.282 170.265 262.596 169.796C263.67 169.561 263.234 167.882 262.128 168.118C260.383 168.488 258.671 168.89 256.928 169.293C255.132 169.843 253.27 170.147 251.393 170.198C252.676 166.8 253.292 163.187 253.207 159.556Z" fill="#283D3B"/>
<path d="M251.865 143.992C243.681 145.668 239.185 156.202 236.938 163.347C236.9 163.504 236.909 163.668 236.962 163.821C237.016 163.973 237.112 164.106 237.239 164.205C237.366 164.304 237.52 164.365 237.68 164.379C237.841 164.393 238.002 164.361 238.145 164.287C241.603 162.286 245.189 160.516 248.879 158.986C249.618 158.651 249.082 157.442 248.31 157.679C245.115 158.714 242.044 160.098 239.152 161.805C241.298 155.229 245.257 146.474 252.1 144.931C252.224 144.9 252.331 144.821 252.398 144.711C252.464 144.601 252.483 144.469 252.452 144.344C252.421 144.22 252.342 144.113 252.232 144.047C252.122 143.98 251.99 143.961 251.865 143.992Z" fill="#283D3B"/>
<path d="M239.219 249.121C238.581 249.893 239.622 250.967 240.326 250.228C242.037 248.483 246.666 248.182 247.344 251.504C247.433 251.824 247.645 252.096 247.934 252.26C248.223 252.423 248.566 252.465 248.886 252.377C251.671 251.504 254.389 250.531 257.172 249.726C257.97 249.491 257.877 248.117 256.971 248.184C254.282 248.393 251.626 248.91 249.055 249.726C246.699 246.774 241.836 246.002 239.219 249.121Z" fill="#283D3B"/>
<path d="M249.283 259.487C250.155 259.05 249.484 257.91 248.678 258.01C244.25 258.682 239.319 258.95 235.529 256.165C234.857 255.662 234.253 256.702 234.69 257.24C237.877 261.331 244.922 261.567 249.283 259.487Z" fill="#283D3B"/>
<path d="M252.235 265.39C252.838 264.988 252.704 263.781 251.832 263.882C249.384 264.149 247.103 265.158 244.619 265.39C241.641 265.605 238.658 265.038 235.965 263.748C235.81 263.667 235.629 263.649 235.461 263.698C235.293 263.747 235.151 263.86 235.064 264.012C234.978 264.164 234.953 264.344 234.996 264.513C235.039 264.683 235.146 264.829 235.295 264.921C237.734 266.718 240.664 267.726 243.692 267.81C246.72 267.894 249.701 267.049 252.235 265.39Z" fill="#283D3B"/>
<path d="M262.867 265.995C256.159 268.947 250.39 271.258 242.876 270.222C242.137 270.121 241.769 271.16 242.539 271.396C249.557 273.409 258.44 272.672 263.706 267.135C263.827 267.014 263.901 266.854 263.914 266.683C263.926 266.513 263.878 266.343 263.776 266.205C263.675 266.067 263.528 265.97 263.361 265.932C263.194 265.893 263.019 265.916 262.867 265.995Z" fill="#283D3B"/>
<path d="M137.408 57.2605C136.203 57.4889 135.111 58.1214 134.314 59.0537C133.517 59.986 133.062 61.1623 133.023 62.3884C133.038 63.2948 133.262 64.1856 133.677 64.9917C134.092 65.7977 134.687 66.4973 135.416 67.0362C135.946 67.5478 136.593 67.9216 137.301 68.1246C138.009 68.3276 138.756 68.3538 139.477 68.2007C140.198 68.0476 140.87 67.7201 141.434 67.2467C141.999 66.7734 142.438 66.1688 142.714 65.4859C143.096 64.7343 143.315 63.9105 143.356 63.0685C143.397 62.2266 143.259 61.3854 142.952 60.6004C142.523 59.512 141.748 58.5952 140.746 57.9915C139.743 57.3879 138.571 57.131 137.408 57.2605Z" fill="#197278"/>
</svg>
