<svg width="303" height="303" viewBox="0 0 303 303" fill="none" xmlns="http://www.w3.org/2000/svg">
<path d="M108.901 65.4344C109.066 68.9643 109.962 69.9521 109.63 70.8884C109.298 71.8246 104.512 88.0821 104.053 90.7485C104.571 97.8902 105.371 107.22 106.408 109.478C107.583 105.62 110.619 96.254 112.701 93.5013C111.525 84.6537 111.007 71.8777 111.454 70.8414C112.657 69.1946 114.213 67.8366 116.007 66.866C115.276 64.8984 114.444 62.9703 113.513 61.0894C111.489 62.7059 109.454 64.2587 108.901 65.4344Z" fill="#197278"/>
<path d="M111.913 35.9631C111.174 36.5903 108.63 37.1508 108.266 35.1753C108.148 34.5511 107.466 34.539 107.383 35.1753C107.066 38.0932 111.654 38.528 112.807 36.763C113.148 36.2449 112.564 35.4131 111.913 35.9631ZM110.231 25.2217C109.488 24.9279 108.68 24.8344 107.889 24.9506C106.618 25.1975 106.536 26.5625 108.041 26.5746C108.609 26.5994 109.173 26.6821 109.724 26.8216C110.898 27.0564 110.79 25.4338 110.231 25.2217ZM118.383 27.0564C117.395 26.4385 116.213 26.2081 115.066 26.4095C114.157 26.6216 114.172 27.8336 115.255 27.9518C116.126 28.0119 116.979 28.2311 117.771 28.5987C118.855 29.0335 119.242 27.7518 118.383 27.0564ZM115.353 30.3394C114.413 30.1879 114.025 32.6922 114.919 32.8104C115.812 32.9285 116.1 30.4591 115.36 30.3394H115.353ZM108.224 29.1638C107.366 29.0986 107.048 31.6226 107.907 31.7165C108.766 31.8105 109.09 29.2274 108.23 29.1638H108.224ZM116.665 39.39C117.596 38.5553 118.208 39.8127 117.843 40.249C117.157 41.0731 116.241 41.6743 115.212 41.976C114.183 42.2776 113.088 42.2661 112.066 41.9428C110.984 41.6716 110.889 40.649 112.066 40.7656C112.889 40.9185 113.736 40.8711 114.537 40.6274C115.337 40.3838 116.067 39.951 116.665 39.3658V39.39Z" fill="#283D3B"/>
<path d="M128.32 54.6233C127.866 54.0446 127.38 54.034 126.674 54.4931C122.683 57.0992 118.32 59.0829 113.732 60.3758C112.228 59.1431 110.926 57.682 109.874 56.0459C109.344 55.1051 108.274 56.0459 108.697 56.764C109.661 58.3684 110.849 59.8264 112.227 61.0939C111.109 62.5026 109.793 63.7426 108.321 64.7754C107.749 62.7173 107.534 60.5764 107.685 58.4457C107.579 57.8397 106.65 57.011 106.415 60.4C106.213 62.4527 106.478 64.5245 107.191 66.46C107.921 68.072 111.227 64.1072 113.073 62.4483C113.528 63.4831 115.426 68.731 116.85 68.4841C119.709 68.0008 125.086 65.3298 126.439 63.0134C126.502 62.897 126.527 62.7633 126.51 62.6317C126.492 62.5002 126.433 62.3776 126.342 62.2819C126.25 62.1861 126.13 62.1221 125.999 62.0992C125.868 62.0763 125.734 62.0956 125.615 62.1544C123.697 63.1892 123.262 64.8011 116.956 66.9418C115.946 65.2761 115.084 63.5245 114.381 61.7075C118.979 60.2424 123.4 58.2693 127.561 55.8247C128.278 56.8004 129.643 59.1062 130.549 58.8547C131.549 58.6108 128.692 55.1036 128.32 54.6233Z" fill="#283D3B"/>
<path d="M118.776 46.1984C115.13 48.5512 111.294 49.5405 107.294 47.5043C105.352 46.5287 105.235 45.9515 105.235 43.7865C105.327 36.6528 105.975 29.5371 107.171 22.5038C107.323 21.563 105.877 21.21 105.724 22.1508C105.231 25.3626 102.878 43.1987 103.959 46.3757C104.996 49.3633 109.171 50.3283 111.989 50.3283C111.66 51.8585 111.33 53.3871 111.013 54.9278C110.93 55.3051 111.966 56.9292 112.742 53.9992C113.072 52.7523 113.307 51.4812 113.601 50.2223C115.897 49.9964 118.042 48.9724 119.661 47.3286C120.178 46.7393 119.484 45.7515 118.778 46.1515L118.776 46.1984ZM133.647 24.3627C136.106 26.0565 134.541 30.3864 132.707 30.8772C134.176 32.8891 131.142 40.043 127.224 39.8657C127.142 41.561 126.589 47.6543 126.389 53.678C126.389 54.3612 125.212 54.2082 125.094 53.584C124.694 51.866 125.647 39.6309 125.918 38.5492C126.33 36.9372 127.612 37.6402 128.905 35.901C132.035 31.659 127.6 29.0835 125.8 32.4543C124.977 33.9951 121.623 29.7834 121.094 23.3643C116.189 22.8583 107.529 21.7766 104.87 19.8344C104.202 19.3332 103.725 18.6194 103.518 17.8106C103.31 17.0019 103.384 16.1465 103.728 15.3857C104.072 14.6249 104.666 14.0042 105.41 13.6258C106.154 13.2475 107.005 13.1343 107.823 13.3047C107.414 7.98557 114.383 8.70368 115.819 11.0444C116.007 7.1508 126.925 7.09172 126.642 12.9396C130.884 10.3747 135.561 16.6211 132.337 18.9042C135.593 18.739 136.879 23.3628 133.643 24.3627H133.647Z" fill="#283D3B"/>
<path d="M292.6 292.092C199.73 292.133 105.112 292.547 12.5929 292.504C12.3651 292.504 12.1466 292.595 11.9855 292.756C11.8244 292.917 11.7339 293.135 11.7339 293.363C11.7339 293.591 11.8244 293.809 11.9855 293.971C12.1466 294.132 12.3651 294.222 12.5929 294.222C105.125 295.222 199.776 294.339 292.6 294.328C293.93 294.324 294.036 292.092 292.6 292.092Z" fill="#283D3B"/>
<path d="M69.8174 276.747C61.3122 283.716 46.288 285.288 45.6653 289.688C45.5471 290.581 85.1008 289.888 85.3825 289.359C86.9475 286.429 84.5251 278.546 84.4538 277.593C79.5581 278.012 74.6276 277.715 69.8174 276.712V276.747ZM171.244 271.392C170.28 275.11 167.902 281.543 167.002 282.149C166.102 282.755 157.495 285.585 156.085 290.644C155.883 291.362 170.721 291.078 174.661 287.962C178.602 284.846 190.331 273.924 190.484 272.661C190.637 271.397 185.498 264.86 183.426 263.755C182.28 265.958 176.151 271.392 171.244 271.392Z" fill="#283D3B"/>
<path d="M188.769 147.908C187.99 147.049 186.992 147.756 187.592 148.817C188.579 150.606 190.402 153.029 191.531 152.756C195.314 151.579 198.855 149.732 201.984 147.302C203.161 146.526 201.749 144.549 200.889 142.831C199.819 140.644 199.043 141.868 198.984 142.149C198.819 142.855 200.455 145.679 200.855 146.279C197.872 148.183 194.745 149.85 191.502 151.267C190.501 150.223 189.587 149.1 188.769 147.908ZM210.791 153.613C211.37 155.093 211.515 156.708 211.207 158.268C210.898 159.827 210.151 161.266 209.052 162.414C208.446 163.061 207.215 162.414 207.688 161.555C208.463 160.393 209.075 159.13 209.506 157.801C210.812 152.377 205.022 150.742 202.976 149.237C202.865 149.143 202.787 149.015 202.755 148.873C202.723 148.731 202.737 148.582 202.797 148.449C202.857 148.316 202.958 148.206 203.086 148.136C203.214 148.065 203.361 148.039 203.505 148.059C206.566 148.89 209.179 150.886 210.785 153.621L210.791 153.613ZM201.095 163.708C199.731 163.143 195.918 163.649 194.411 161.155C193.235 159.225 194.164 156.66 193.729 154.436C193.577 153.648 192.341 153.86 192.331 154.672C192.247 159.555 190.513 164.59 199.883 165.261C201.561 165.355 201.998 164.084 201.092 163.708H201.095Z" fill="#283D3B"/>
<path d="M254.693 185.425C248.14 182.86 230.527 192.091 224.74 195.793C219.692 186.086 210.291 169.074 204.742 160.225C206.919 156.801 201.365 154.06 199.495 157.425C199.195 157.964 199.073 158.584 199.148 159.196C199.223 159.808 199.49 160.381 199.912 160.831C200.333 161.282 200.887 161.587 201.493 161.702C202.098 161.817 202.725 161.737 203.283 161.473C222.284 196.85 241.612 232.357 259.401 268.334C259.471 268.486 259.573 268.621 259.7 268.731C259.826 268.84 259.974 268.922 260.135 268.97C260.295 269.018 260.464 269.031 260.63 269.008C260.796 268.986 260.955 268.928 261.097 268.84C267.249 265.507 273.897 269.346 276.072 273.358C278.627 272.6 291.733 267.675 294.968 261.098C298.202 254.521 283.485 232.121 278.696 221.979C278.542 221.979 263.378 188.822 254.693 185.425ZM270.588 271.923C278.363 275.844 278.952 289.017 265.411 290.263C258.87 290.869 251.458 280.534 258.139 273.877C259.752 272.295 261.819 271.257 264.051 270.906C266.283 270.556 268.568 270.911 270.588 271.923ZM273.77 281.511C273.347 285.04 270.382 287.335 266.875 287.982C260.369 289.157 255.405 280.828 258.97 276.063C263.622 269.84 274.744 273.429 273.776 281.511H273.77ZM284.063 264.004C272.014 239.309 259.356 214.474 246.592 190.051C246.156 189.237 247.568 188.486 248.015 189.273C261.91 213.838 273.898 237.699 286.228 263.181C286.87 264.519 284.709 265.339 284.063 264.004Z" fill="#197278"/>
<path d="M65.0647 155.731C63.7466 154.448 59.1819 156.403 58.1351 153.719C57.4412 151.954 62.074 150.273 62.8406 148.92C62.9088 148.802 62.9408 148.667 62.9329 148.531C62.9249 148.395 62.8772 148.265 62.7958 148.156C62.7143 148.047 62.6027 147.964 62.4746 147.918C62.3466 147.871 62.2079 147.864 62.0756 147.896C60.8327 148.425 59.6812 149.148 58.6638 150.037C54.1582 153.179 56.8049 156.613 60.5939 157.096C61.5817 157.213 64.4178 157.496 65.1116 156.896C65.1905 156.82 65.2532 156.729 65.296 156.627C65.3388 156.526 65.3608 156.418 65.3608 156.308C65.3608 156.198 65.3388 156.089 65.296 155.988C65.2532 155.887 65.1905 155.796 65.1116 155.719L65.0647 155.731ZM77.218 149.849C77.4771 150.483 75.3712 153.591 74.5001 153.213C72.2882 152.295 61.6998 147.131 62.0877 145.355C62.6322 144.035 63.4317 142.836 64.4405 141.825C64.8647 141.354 65.6176 141.931 65.4298 142.472C65.1934 143.26 63.5239 145.19 63.5936 145.437C63.7587 146.013 73.9229 151.461 74.641 151.779C75.0288 151.173 75.3818 150.236 75.8181 149.658C75.8897 149.577 75.9766 149.511 76.0737 149.463C76.1709 149.416 76.2764 149.388 76.3844 149.381C76.4923 149.375 76.6005 149.389 76.7027 149.425C76.8049 149.46 76.8992 149.515 76.9801 149.587C77.2483 149.833 77.1877 150.033 77.218 149.849ZM72.8715 154.272C71.6958 154.154 71.6958 156.472 71.3777 157.719C71.1186 158.602 70.8141 159.484 70.5081 160.367C70.202 161.251 71.7428 162.579 73.1078 158.166C73.3472 157.366 74.3713 154.424 72.8715 154.272ZM66.1903 164.506C67.1355 164.091 67.9695 163.459 68.6249 162.661C69.6021 161.39 71.2959 162.447 69.5082 164.32C66.5357 167.407 64.292 165.362 66.1827 164.506H66.1903ZM63.6481 162.696C63.283 162.847 62.8255 163.15 62.9073 163.625C63.2361 165.638 68.8961 162.202 67.1493 160.92C66.363 160.335 65.8464 161.637 63.6209 162.696H63.6481ZM63.8254 159.472C63.0012 158.731 62.0256 160.402 60.5075 161.061C60.0015 161.272 58.9653 161.508 59.1304 162.237C59.5849 164.285 65.3071 160.778 63.836 159.449L63.8254 159.472ZM58.6956 158.943C59.4607 158.296 60.0712 158.143 60.3197 158.731C61.0242 160.331 57.4957 161.761 55.8838 160.284C54.6248 159.108 54.8717 156.237 56.2368 156.754C56.8246 156.978 56.5897 158.084 56.8594 158.661C56.9448 158.819 57.0653 158.956 57.2116 159.06C57.3578 159.164 57.526 159.234 57.7032 159.263C57.8805 159.292 58.062 159.281 58.234 159.229C58.4061 159.177 58.5639 159.087 58.6956 158.964V158.943Z" fill="#283D3B"/>
<path d="M105.548 112.354C100.113 97.0524 101.806 69.0582 104.359 60.3288C104.642 59.3289 92.7588 65.3874 90.2409 71.0701C87.723 76.7529 82.7189 104.777 80.9236 108.965C79.1284 113.152 65.2873 138.895 64.8419 139.354C64.3965 139.813 78.4436 150.202 79.4071 149.53C80.054 149.076 84.0188 144.06 86.7609 140.44C90.0727 105.394 88.5608 104.636 91.1135 87.3458C91.1114 87.2741 91.1245 87.2028 91.152 87.1365C91.1795 87.0703 91.2208 87.0107 91.2731 86.9616C91.3254 86.9126 91.3875 86.8752 91.4554 86.8519C91.5232 86.8287 91.5952 86.8201 91.6666 86.8269C91.738 86.8336 91.8072 86.8554 91.8695 86.8908C91.9319 86.9263 91.986 86.9746 92.0282 87.0326C92.0704 87.0905 92.0999 87.1568 92.1146 87.227C92.1293 87.2972 92.1289 87.3697 92.1134 87.4397C91.5074 94.1663 89.5819 134.235 89.4198 136.888C89.1728 140.912 86.3489 160.711 87.067 161.782C87.6321 162.57 95.3025 163.231 97.2084 161.782C99.1142 160.334 104.618 145.86 105.292 144.849C103.453 140.06 103.9 120.671 105.548 112.354ZM183.722 106.365C186.698 111.071 199.135 137.52 199.288 139.013C199.441 140.507 186.498 147.625 185.463 147.043C184.428 146.461 166.526 119.043 164.146 116.066C160.455 111.448 141.125 98.7052 134.532 95.5965C133.896 95.2935 133.273 96.2434 133.873 96.6661C137.544 99.2552 141.319 101.373 145.19 104.114C147.638 135.323 155.521 160.422 154.225 161.575C153.238 162.456 119.955 163.515 116.956 162.622C113.958 161.728 107.156 148.95 106.367 142.408C105.577 135.867 105.285 118.749 107.379 111.819C113.192 92.5013 128.557 60.4303 131.697 59.9712C134.838 59.5122 147.803 67.0311 151.015 69.4658C159.751 75.9924 185.142 107.073 183.727 106.365H183.722ZM110.089 124.777C110.114 125.186 110.288 125.572 110.578 125.862C110.867 126.152 111.253 126.326 111.662 126.352C112.071 126.378 112.475 126.254 112.799 126.003C113.123 125.752 113.345 125.392 113.422 124.989C113.913 120.424 109.313 121.012 110.089 124.777ZM113.866 137.789C114.681 135.214 111.383 132.519 110.772 136.177C110.254 139.228 113.107 140.184 113.866 137.789ZM136.642 73.729C138.338 72.9048 135.242 65.0223 134.608 63.6694C134.277 62.9755 133.431 63.2346 133.714 63.9996C134.773 66.7046 135.404 69.5583 135.583 72.4579C134.144 72.9995 132.751 73.6582 131.419 74.4274C125.407 77.7225 126.831 77.3059 129.525 83.8401C130.031 85.0157 130.549 85.8096 129.631 86.8398C122.879 94.4511 114.89 104.123 110.925 113.334C110.622 114.028 111.431 114.323 111.783 113.687C118.112 102.287 122.654 97.216 130.608 88.1215C132.426 86.0277 131.866 85.7687 130.102 81.2509C128.436 77.0271 127.254 78.2634 136.667 73.7335L136.642 73.729ZM100.841 107.306C93.1391 85.5641 93.2663 88.4502 95.3601 84.1173C95.807 83.1765 97.0887 81.6585 96.713 81.0707C94.3587 77.3165 92.8421 76.9165 94.3587 73.8577C95.7252 71.0469 97.3984 68.3957 99.3475 65.9525C99.8187 65.3465 100.525 65.8343 100.125 66.4464C98.2129 69.1974 96.5176 72.0926 95.054 75.1061C94.3829 77.3528 98.8067 80.3404 98.2355 81.5524C94.7071 88.8471 94.9025 86.1535 97.5417 94.2239C98.9658 98.5295 100.472 102.812 101.743 107.165C101.984 107.8 101.097 108.019 100.841 107.306Z" fill="#283D3B"/>
<path d="M184.362 259.876C183.347 258.712 163.55 211.309 162.516 208.485C161.481 205.661 149.638 169.366 148.761 164.579C145.019 165.034 119.724 166.144 116.206 164.579C113.466 163.402 107.124 153.285 106.147 148.32C104.004 153.492 101.443 158.481 98.4886 163.237C97.4281 164.638 91.1348 165.026 88.6759 164.297C88.3941 165.215 76.6059 212.641 75.8651 217.687C75.1242 222.734 68.0992 268.97 67.6295 272.985C67.4644 274.161 85.8292 276.219 85.9474 274.651C86.0656 273.083 98.5007 224.379 99.2415 222.448C99.9823 220.516 113.17 192.405 119.018 182.567C116.325 176.391 116.513 174.461 110.265 172.05C109.395 171.709 109.842 170.872 110.719 171.097C115.494 172.274 117.096 173.908 118.849 177.638C124.472 189.555 130.211 208.65 136.554 218.145C138.554 221.157 166.854 268.076 168.651 269.746C170.448 271.415 185.348 261.006 184.362 259.876Z" fill="#283D3B"/>
<path d="M77.3589 179.296C76.6863 177.956 38.534 154.591 36.3464 154.884C33.4679 155.213 7.14473 187.992 7.58105 189.99C8.01737 191.988 60.194 222.31 61.9817 221.979C63.7694 221.649 78.0225 180.627 77.3589 179.296ZM70.6641 169.038C69.5945 173.567 68.0295 172.096 68.2174 171.096C68.5204 169.378 68.9825 167.673 69.3946 165.989C69.7112 164.814 70.652 164.602 71.0883 165.32C71.5247 166.038 70.8171 168.154 70.6172 169.038H70.6641ZM54.7703 154.672C55.1657 155.43 54.3824 155.278 53.2644 155.672C50.5222 156.672 50.1344 160.802 48.6527 159.955C47.3574 159.198 51.4282 154.485 52.5114 153.942C52.9081 153.741 53.3681 153.706 53.7911 153.842C54.2142 153.979 54.5661 154.277 54.7703 154.672ZM66.2403 198.509L60.6167 195.435C60.231 196.375 59.7248 197.261 59.1107 198.071C57.7275 197.717 56.4279 197.093 55.2869 196.235C55.2869 196.141 55.7929 194.741 56.464 193.141L36.1221 182.073C35.505 183.202 34.7548 184.252 33.8875 185.203C32.2971 184.645 30.8246 183.796 29.5455 182.698C30.1114 181.585 30.7522 180.511 31.4635 179.485C29.0395 178.122 26.6155 176.743 24.24 175.32C23.3567 174.802 24.24 173.59 25.0626 174.014C27.5685 175.255 30.0554 176.533 32.5225 177.849C33.1071 176.855 33.7887 175.921 34.5571 175.061C36.063 175.593 37.4616 176.39 38.687 177.414C38.2867 178.423 37.782 179.388 37.1811 180.293L57.1791 191.176C57.5262 190.105 58.034 189.093 58.685 188.175C60.1906 188.696 61.607 189.446 62.8846 190.398C62.5062 191.473 62.0505 192.52 61.5211 193.529L67.4039 196.711C68.5356 197.391 67.4175 199.144 66.2403 198.509Z" fill="#197278"/>
</svg>
